<?xml version="1.0" encoding="utf-8"?>
<!-- Generator: Adobe Illustrator 16.0.0, SVG Export Plug-In . SVG Version: 6.00 Build 0)  -->
<!DOCTYPE svg PUBLIC "-//W3C//DTD SVG 1.1//EN" "http://www.w3.org/Graphics/SVG/1.1/DTD/svg11.dtd">
<svg version="1.1" id="Layer_1" xmlns="http://www.w3.org/2000/svg" xmlns:xlink="http://www.w3.org/1999/xlink" x="0px" y="0px"
	 width="1920px" height="1000px" viewBox="0 0 1920 1000" enable-background="new 0 0 1920 1000" xml:space="preserve">
<g>
	<g>
		<path fill="none" stroke="#231F20" stroke-miterlimit="10" d="M851.139-310.011c-20.537,98.642-75.923,246.769-258.536,333.086
			C17.905,294.736,506.69,709.478,504.455,794.11c-2.81,106.832-1002.378-425.108-895.793-969.544
			c84.711-122.752,90.837-278.604,59.389-387.622"/>
	</g>
	<g>
		<path fill="none" stroke="#231F20" stroke-miterlimit="10" d="M686.586-271.428C668.437-185.727,621.74-56.558,475.445,21.579
			c-460.4,245.914-81.145,595.286-84.53,668.525c-4.263,92.45-785.873-348.542-691.062-821.44
			c69.441-107.78,77.268-242.69,54.436-336.375"/>
	</g>
	<g>
		<path fill="none" stroke="#231F20" stroke-miterlimit="10" d="M555.507-234.921c-16.011,74.468-55.461,187.072-172.833,257.439
			c-369.373,221.465-75.63,516.392-79.709,579.799c-5.141,80.039-615.841-286.452-531.719-697.255
			c57.06-94.541,65.831-211.367,49.534-291.958"/>
	</g>
	<g>
		<path fill="none" stroke="#231F20" stroke-miterlimit="10" d="M450.982-200.845c-14.102,64.709-47.5,162.85-141.812,225.948
			c-296.803,198.583-69.758,448.053-74.197,502.971c-5.6,69.32-482.343-235.996-407.875-592.893
			c47.002-82.853,56.179-184.058,44.806-253.449"/>
	</g>
	<g>
		<path fill="none" stroke="#231F20" stroke-miterlimit="10" d="M367.538-169.38c-12.403,56.234-40.731,141.75-116.639,198.119
			c-238.886,177.411-63.802,388.838-68.366,436.417c-5.756,60.06-377.562-194.903-311.767-504.991
			c38.81-72.553,48.009-160.259,40.325-220.054"/>
	</g>
	<g>
		<path fill="none" stroke="#231F20" stroke-miterlimit="10" d="M300.843-140.578c-10.899,48.873-34.968,123.372-96.168,173.573
			c-192.605,157.994-57.955,337.511-62.479,378.75C136.49,463.799-153.152,250.38-95.121-19.06
			c32.124-63.491,41.085-139.519,36.138-191.089"/>
	</g>
	<g>
		<path fill="none" stroke="#231F20" stroke-miterlimit="10" d="M247.464-114.393c-9.565,42.476-30.051,107.368-79.486,151.952
			c-155.577,140.318-52.344,293.007-56.711,328.759C105.754,411.446-119.601,232.394-68.495-1.743
			c26.659-55.522,35.204-121.449,32.271-165.955"/>
	</g>
	<g>
		<path fill="none" stroke="#231F20" stroke-miterlimit="10" d="M204.683-90.729c-8.387,36.917-25.852,93.432-65.86,132.935
			C12.916,166.529,91.773,296.615,87.63,327.62C82.404,366.757-92.684,216.197-47.737,12.724
			C-25.562-35.805-17.534-92.984-19.01-131.42"/>
	</g>
	<g>
		<path fill="none" stroke="#231F20" stroke-miterlimit="10" d="M170.346-69.448c-7.348,32.089-22.26,81.298-54.704,116.226
			C13.538,156.703,73.521,267.708,69.647,294.6C64.761,328.547-71.055,201.675-31.571,24.84
			C-13.08-17.554-5.63-67.161-6.065-100.374"/>
	</g>
	<g>
		<path fill="none" stroke="#231F20" stroke-miterlimit="10" d="M142.74-50.385c-6.432,27.894-19.182,70.737-45.547,101.564
			c-82.973,97.018-37.579,191.879-41.16,215.211c-4.519,29.453-109.677-77.685-75.028-231.378
			C-3.541-2.005,3.307-45.051,3.594-73.767"/>
	</g>
	<g>
		<path fill="none" stroke="#231F20" stroke-miterlimit="10" d="M120.512-33.374c-5.629,24.247-16.543,61.544-38.015,88.709
			c-67.575,85.492-33.428,166.667-36.708,186.916c-4.142,25.56-85.394-65.095-55.017-198.68C3.718,11.26,9.964-26.098,10.74-50.939"
			/>
	</g>
</g>
</svg>
