<?xml version="1.0" encoding="utf-8"?>
<!-- Generator: Adobe Illustrator 16.0.0, SVG Export Plug-In . SVG Version: 6.00 Build 0)  -->
<!DOCTYPE svg PUBLIC "-//W3C//DTD SVG 1.1//EN" "http://www.w3.org/Graphics/SVG/1.1/DTD/svg11.dtd">
<svg version="1.1" id="Layer_1" xmlns="http://www.w3.org/2000/svg" xmlns:xlink="http://www.w3.org/1999/xlink" x="0px" y="0px"
	 width="1920px" height="1000px" viewBox="0 0 1920 1000" enable-background="new 0 0 1920 1000" xml:space="preserve">
<g>
	<g>
		<path fill="none" stroke="#231F20" stroke-miterlimit="10" d="M1932.949-526.452c3.542,94.609-14.3,242.197-166.528,361.975
			c-479.074,376.96,78.406,645.538,95.96,723.255c22.167,98.1-1044.426-162.653-1070.35-683.314
			c51.402-131.025,20.976-274.592-34.02-366.99"/>
	</g>
	<g>
		<path fill="none" stroke="#231F20" stroke-miterlimit="10" d="M1786.669-454.282c2.787,82.268-11.26,210.605-131.125,314.758
			c-377.224,327.792,61.738,561.339,75.559,628.921c17.455,85.303-822.382-141.438-842.795-594.187
			c40.475-113.934,16.517-238.777-26.787-319.123"/>
	</g>
	<g>
		<path fill="none" stroke="#231F20" stroke-miterlimit="10" d="M1671.487-391.526c2.195,71.537-8.864,183.135-103.248,273.703
			c-297.026,285.036,48.612,488.12,59.495,546.886c13.744,74.178-647.546-122.99-663.617-516.685
			c31.869-99.072,13.004-207.631-21.094-277.496"/>
	</g>
	<g>
		<path fill="none" stroke="#231F20" stroke-miterlimit="10" d="M1580.793-336.956c1.729,62.207-6.981,159.248-81.298,238.002
			c-233.878,247.858,38.277,424.452,46.848,475.556c10.82,64.502-509.879-106.949-522.536-449.294
			c25.096-86.148,10.241-180.545-16.607-241.297"/>
	</g>
	<g>
		<path fill="none" stroke="#231F20" stroke-miterlimit="10" d="M1509.38-289.502c1.361,54.092-5.496,138.477-64.014,206.959
			c-184.157,215.528,30.139,369.089,36.886,413.522c8.522,56.09-401.479-92.996-411.443-390.685
			c19.76-74.914,8.063-157-13.077-209.828"/>
	</g>
	<g>
		<path fill="none" stroke="#231F20" stroke-miterlimit="10" d="M1453.15-248.239c1.07,47.037-4.33,120.414-50.405,179.965
			c-145.006,187.415,23.73,320.946,29.043,359.587c6.71,48.771-316.125-80.869-323.971-339.729
			c15.557-65.143,6.349-136.52-10.298-182.459"/>
	</g>
	<g>
		<path fill="none" stroke="#231F20" stroke-miterlimit="10" d="M1408.874-212.358c0.842,40.9-3.408,104.707-39.689,156.49
			c-114.178,162.97,18.687,279.083,22.871,312.683c5.284,42.412-248.918-70.318-255.096-295.415
			c12.251-56.645,4.998-118.713-8.108-158.658"/>
	</g>
	<g>
		<path fill="none" stroke="#231F20" stroke-miterlimit="10" d="M1374.011-181.159c0.664,35.566-2.685,91.051-31.252,136.08
			c-89.903,141.714,14.714,242.681,18.009,271.899c4.161,36.879-195.998-61.146-200.863-256.884
			c9.646-49.256,3.938-103.229-6.384-137.965"/>
	</g>
	<g>
		<path fill="none" stroke="#231F20" stroke-miterlimit="10" d="M1346.56-154.028c0.522,30.93-2.114,79.174-24.608,118.33
			c-70.792,123.228,11.587,211.028,14.18,236.433c3.276,32.07-154.329-53.17-158.16-223.375c7.596-42.833,3.101-89.767-5.027-119.97
			"/>
	</g>
	<g>
		<path fill="none" stroke="#231F20" stroke-miterlimit="10" d="M1324.944-130.434c0.412,26.893-1.664,68.848-19.376,102.895
			c-55.74,107.155,9.122,183.503,11.164,205.595c2.58,27.889-121.519-46.236-124.535-194.242
			c5.981-37.243,2.441-78.054-3.959-104.317"/>
	</g>
	<g>
		<path fill="none" stroke="#231F20" stroke-miterlimit="10" d="M1307.925-109.918c0.322,23.385-1.311,59.865-15.257,89.474
			c-43.891,93.178,7.182,159.566,8.79,178.779c2.03,24.25-95.685-40.205-98.06-168.906c4.707-32.388,1.922-67.874-3.117-90.714"/>
	</g>
</g>
</svg>
