<?xml version="1.0" encoding="utf-8"?>
<!-- Generator: Adobe Illustrator 16.0.0, SVG Export Plug-In . SVG Version: 6.00 Build 0)  -->
<!DOCTYPE svg PUBLIC "-//W3C//DTD SVG 1.1//EN" "http://www.w3.org/Graphics/SVG/1.1/DTD/svg11.dtd">
<svg version="1.1" id="Layer_1" xmlns="http://www.w3.org/2000/svg" xmlns:xlink="http://www.w3.org/1999/xlink" x="0px" y="0px"
	 width="1920px" height="1000px" viewBox="0 0 1920 1000" enable-background="new 0 0 1920 1000" xml:space="preserve">
<g>
	<g>
		<path fill="none" stroke="#BCBEC0" stroke-miterlimit="10" d="M451.066,1835.11c-7.097-189.681,28.672-485.582,333.875-725.722
			c960.503-755.775-157.196-1294.25-192.386-1450.067C548.108-537.363,2686.531-14.575,2738.506,1029.307
			c-103.056,262.69-42.054,550.53,68.208,735.778"/>
	</g>
	<g>
		<path fill="none" stroke="#BCBEC0" stroke-miterlimit="10" d="M744.347,1690.417c-5.588-164.939,22.576-422.245,262.894-631.063
			C1763.542,402.159,883.464-66.08,855.755-201.573C820.758-372.604,2504.556,81.995,2545.48,989.718
			c-81.146,228.427-33.113,478.723,53.707,639.808"/>
	</g>
	<g>
		<path fill="none" stroke="#BCBEC0" stroke-miterlimit="10" d="M975.276,1564.597c-4.4-143.426,17.776-367.17,207.003-548.75
			c595.513-571.474-97.462-978.639-119.28-1096.459c-27.557-148.722,1298.269,246.581,1330.493,1035.905
			c-63.896,198.632-26.074,416.28,42.289,556.354"/>
	</g>
	<g>
		<path fill="none" stroke="#BCBEC0" stroke-miterlimit="10" d="M1157.11,1455.188c-3.465-124.718,13.997-319.278,162.995-477.174
			c468.907-496.934-76.742-850.99-93.922-953.442c-21.698-129.323,1022.259,214.418,1047.633,900.787
			c-50.312,172.724-20.531,361.982,33.298,483.786"/>
	</g>
	<g>
		<path fill="none" stroke="#BCBEC0" stroke-miterlimit="10" d="M1300.287,1360.049c-2.729-108.45,11.021-277.633,128.343-414.934
			c369.218-432.116-60.427-739.991-73.954-829.08c-17.086-112.455,804.928,186.45,824.907,783.293
			c-39.615,150.194-16.166,314.768,26.219,420.684"/>
	</g>
	<g>
		<path fill="none" stroke="#BCBEC0" stroke-miterlimit="10" d="M1413.024,1277.32c-2.148-94.305,8.679-241.42,101.058-360.813
			c290.723-375.753-47.58-643.47-58.231-720.939c-13.454-97.787,633.801,162.131,649.533,681.125
			c-31.193,130.604-12.729,273.711,20.645,365.812"/>
	</g>
	<g>
		<path fill="none" stroke="#BCBEC0" stroke-miterlimit="10" d="M1501.794,1205.382c-1.691-82.004,6.834-209.93,79.573-313.75
			c228.915-326.741-37.465-559.539-45.852-626.903c-10.594-85.032,499.056,140.983,511.443,592.282
			c-24.562,113.568-10.023,238.01,16.256,318.097"/>
	</g>
	<g>
		<path fill="none" stroke="#BCBEC0" stroke-miterlimit="10" d="M1571.691,1142.827c-1.332-71.308,5.381-182.548,62.656-272.826
			c180.248-284.123-29.5-486.556-36.104-545.133c-8.342-73.941,392.957,122.594,402.711,515.028
			c-19.34,98.755-7.893,206.965,12.8,276.605"/>
	</g>
	<g>
		<path fill="none" stroke="#BCBEC0" stroke-miterlimit="10" d="M1626.729,1088.432c-1.049-62.007,4.237-158.737,49.336-237.24
			c141.928-247.063-23.229-423.092-28.428-474.029c-6.568-64.297,309.415,106.604,317.095,447.85
			c-15.228,85.874-6.215,179.97,10.079,240.526"/>
	</g>
	<g>
		<path fill="none" stroke="#BCBEC0" stroke-miterlimit="10" d="M1670.065,1041.131c-0.826-53.919,3.336-138.032,38.847-206.296
			c111.754-214.838-18.29-367.906-22.384-412.199c-5.172-55.91,243.634,92.699,249.681,389.435
			c-11.99,74.673-4.894,156.495,7.937,209.153"/>
	</g>
	<g>
		<path fill="none" stroke="#BCBEC0" stroke-miterlimit="10" d="M1704.188,1000c-0.65-46.886,2.627-120.028,30.588-179.388
			c87.995-186.815-14.401-319.918-17.625-358.434c-4.072-48.618,191.838,80.607,196.6,338.639
			c-9.441,64.934-3.854,136.083,6.249,181.873"/>
	</g>
</g>
</svg>
