<?xml version="1.0" encoding="utf-8"?>
<!-- Generator: Adobe Illustrator 16.0.0, SVG Export Plug-In . SVG Version: 6.00 Build 0)  -->
<!DOCTYPE svg PUBLIC "-//W3C//DTD SVG 1.1//EN" "http://www.w3.org/Graphics/SVG/1.1/DTD/svg11.dtd">
<svg version="1.1" id="Layer_1" xmlns="http://www.w3.org/2000/svg" xmlns:xlink="http://www.w3.org/1999/xlink" x="0px" y="0px"
	 width="161.289px" height="254.96px" viewBox="0 0 161.289 254.96" enable-background="new 0 0 161.289 254.96"
	 xml:space="preserve">
<g>
	<g>
		<g>
			<path fill="#363B3D" d="M114.832,214.015c0,0,2.429,3.634,5.836,4.418c3.406,0.785,6.762,2.033,6.787,4.183
				c0.025,2.15-9.849,3.433-13.747,1.266c-5.818-3.234-6.409-2.26-7.055-3.877c-0.645-1.617,0.775-5.939,0.733-6.454
				C107.334,212.916,114.832,214.015,114.832,214.015z"/>
		</g>
		<g>
			<path fill="#82817F" d="M114.455,212.223c0,0,0.443,1.755,0.377,1.792c-0.065,0.037-7.676,0.943-7.445-0.465
				c0.187-1.142,0.453-2.384,0.453-2.384L114.455,212.223z"/>
		</g>
		<g>
			<path fill="#363B3D" d="M89.221,213.774c0,0,1.731,3.476,4.691,4.659c3.164,1.266,5.7,2.72,5.643,4.814
				s-7.733,4.218-13.318,0.197c-3.528-2.54-4.646-2.552-5.213-4.151c-0.565-1.6,0.983-5.756,0.963-6.258
				C81.96,212.415,89.221,213.774,89.221,213.774z"/>
		</g>
		<g>
			<path fill="#82817F" d="M89.307,211.969c0,0-0.021,1.771-0.086,1.805c-0.066,0.033-7.422,0.64-7.234-0.738
				c0.148-1.095,0.713-2.417,0.713-2.417L89.307,211.969z"/>
		</g>
		<g>
			<path fill="#2E3133" d="M116.275,105.801c0,0,6.834,30.143,8.395,39.324c1.329,7.814,2.388,15.952,1.752,21.594
				c-0.788,6.984-10.676,43.182-10.263,45.229s-10.346,0.328-10.346,0.328s7.52-40.378,6.018-47.893
				c-1.112-5.565-10.86-42.54-12.354-40.644s-3.346,34.895-4.452,40.373c-1.106,5.478-4.503,48.76-4.503,48.76
				s-7.594,1.12-9.622-0.597c0,0-0.923-36.957-0.219-47.228c0.269-3.913-4.585-46.927,1.64-64.243
				C85.609,91.655,116.275,105.801,116.275,105.801z"/>
		</g>
		<g>
			<path fill="#DFCCC5" d="M146.021,78.399c-4.871-0.685-20.194,6.104-21.586,5.591c-0.958-0.352-3.205-7.673-4.811-13.215
				c-0.949-3.278-1.674-5.934-1.775-6.152l-0.005-0.012c0.015,0.146,0.264,2.652-0.053,5.944c-0.02,0.214-0.044,0.43-0.068,0.649
				c-0.007,0.057-0.015,0.113-0.021,0.172c-0.143,1.179-0.362,2.437-0.689,3.709c-0.487,1.878-0.717,4.35-0.804,6.957v0.011
				c-0.001,0.021-0.001,0.039-0.003,0.061c-0.001,0.061-0.005,0.119-0.005,0.18c0,0.023-0.002,0.049-0.002,0.074
				c-0.137,4.745,0.191,9.862,0.327,12.585c0.215,4.218-1.173,6.117-1.213,6.172c-0.001,0.001-0.001,0.001-0.001,0.001l-1.468-0.206
				l-1.062-0.149l-0.013-0.002l-1.417-0.199l-5.557-0.781l-2.013-0.283l-0.477-0.067l-3.521-0.495l-9.927-1.396l-1.089-0.152
				l-0.449-0.063l-3.743-0.527l-1.691-0.237l-0.007-0.001c0,0-1.437-10.191-1.547-15.7c-0.099-5.061-2.808-15.334-3.249-16.977
				c-0.003-0.012-0.007-0.023-0.01-0.034c-0.003-0.016-0.007-0.031-0.012-0.045c-0.009-0.028-0.015-0.052-0.021-0.073
				c-0.002-0.012-0.006-0.023-0.009-0.035c0-0.003-0.001-0.007-0.003-0.01c-0.001-0.003-0.002-0.007-0.002-0.01
				c-0.004-0.012-0.004-0.018-0.004-0.018s-8.103,8.512-9.674,12.226c-0.48,1.127-1.945,4.191-3.812,7.923
				c-1.276-2.435-2.075-4.128-2.075-4.552c0-0.052,0.001-0.107,0.002-0.165c0.12-3.673,3.969-18.563,7.006-28.291
				c2.357-4.74,4.391-8.574,5.044-9.041c0.988-0.711,5.147-2.491,8.776-3.932c0.12-0.047,0.238-0.094,0.354-0.14
				c0.339-0.134,0.673-0.265,0.997-0.392c0.162-0.063,0.322-0.123,0.479-0.185c0.086-0.033,0.171-0.064,0.257-0.097
				c0.069-0.027,0.139-0.053,0.207-0.079h0.001c1.815-0.69,3.194-1.173,3.479-1.188c0.047-0.004,0.123-0.003,0.226,0.001
				c0.12,0.002,0.275,0.01,0.46,0.021c2.243,0.132,8.938,0.759,11.094,0.963c0.392,0.037,0.635,0.062,0.671,0.064
				c0.004,0,0.005,0,0.005,0s1.026,0.468,2.571,1.175l0.002,0.001l0.143,0.065c0.935,0.428,2.016,0.999,3.157,1.624
				c2.24,1.228,4.714,2.662,6.766,3.64c2.013,0.956,4.768,2.29,5.003,2.477l10.193,29.397l17.685-3.232L146.021,78.399z"/>
		</g>
		<g>
			<path fill="#4A5156" d="M115.313,101.124c0,0,0.747,0.894,0.963,4.678c0,0-30.709-3.583-33.955-4.995
				c0,0-0.127-4.169,0.562-4.241C83.639,96.485,115.313,101.124,115.313,101.124z"/>
		</g>
		<g>
			<path fill="#F37475" d="M89.125,34.708c0.096,4.819,9.427,7.456,9.427,7.456s3.903-4.894,2.972-5.362
				c-0.367-0.184-0.516-0.915-0.561-1.733c-0.043-0.78,0.007-1.641,0.053-2.186c0.027-0.342,0.054-0.561,0.054-0.561
				s-1.333-1.406-3.029-3.083c-2.964-2.931-7.038-6.685-7.045-5.191c-0.001,0.079,0.011,0.174,0.034,0.283
				C91.745,27.693,89.125,34.708,89.125,34.708z"/>
		</g>
		<g>
			<path fill="#363B3D" d="M89.898,97.303c0,0-0.67,4.227-0.729,5.329l-1.42-0.284c0,0,0.391-4.472,0.621-5.221L89.898,97.303z"/>
		</g>
		<g>
			<path fill="#363B3D" d="M112.751,100.63c0,0,0.538,3.843,0.552,5.294l-1.503-0.196c0,0-0.309-4.798-0.48-5.298L112.751,100.63z"
				/>
		</g>
		<g>
			<path fill="#A77861" d="M92.719,27.647C92.719,27.647,92.719,27.647,92.719,27.647c0.019,0.028,0.414,0.621,1.09,1.471
				c1.433,1.802,4.126,4.762,7.154,5.951c-0.043-0.78,0.007-1.641,0.053-2.186c0.31-0.008,0.619-0.045,0.927-0.112
				c-0.831-1.45-2.029-2.971-2.029-2.971L98.04,29.24L92.719,27.647z"/>
		</g>
		<g>
			<path fill="#F37475" d="M90.928,24.114c0.807,1.756,1.573,3.028,1.791,3.533c0,0,0,0,0.001,0
				c0.141,0.329,0.526,0.864,1.089,1.471c1.538,1.656,4.396,3.842,7.207,3.766c0.31-0.008,0.619-0.045,0.927-0.112
				c1.134-0.248,2.474-0.775,3.212-2.219c5.821-11.397,1.606-20.719,1.606-20.719s-15.919-4.501-18.409,0.291
				C86.604,13.485,89.03,19.987,90.928,24.114z"/>
		</g>
		<g>
			<path fill="#2A256E" d="M106.761,9.833c0,0,1.479-0.081,1.844-2.885c0.361-2.769-0.369-3.536-0.369-3.536
				s-6.571-2.751-8.932-3.109c-2.359-0.357-8.163-0.7-9.523,0.854c0,0-3.304-0.769-4.204,4.719
				c-1.429,8.703,4.867,17.155,4.867,17.155s-0.054-5.687,1.2-6.439c1.254-0.754,2.336,1.038,2.336,1.038l2.565,0.459
				c0,0-3.896-8.412,0.777-8.724S104.086,10.321,106.761,9.833z"/>
		</g>
		<g>
			<path fill="#F37475" d="M93.909,15.364c-0.244-2.505-4.774-3.462-4.471-0.836c0.304,2.625,2.534,5.148,3.565,5.06
				C94.034,19.499,94.095,17.273,93.909,15.364z"/>
		</g>
		<g>
			<path fill="#5B83C3" d="M64.54,83.811c1.974,3.766,5.087,9.305,8.161,14.676c-0.404,0.755-0.8,1.505-1.179,2.244
				c-0.925,1.809-1.745,3.56-2.327,5.192c-0.701,1.963-1.676,6.991,0.189,7.925l9.823,5.422c0,0,0.068-0.191,0.199-0.547
				c0.325-0.882,1.031-2.77,2.008-5.214c0.031-0.079,0.13-0.313,0.275-0.655c0.195-0.461,0.478-1.119,0.799-1.871
				c0.146-0.336,0.297-0.691,0.454-1.056c0.178-0.417,0.362-0.847,0.546-1.274c0.268-0.622,0.534-1.241,0.78-1.814
				c0.67-1.561,1.192-2.775,1.192-2.775c0.033-0.071,0.066-0.143,0.1-0.215c0.319-0.691,0.647-1.385,0.981-2.076
				c0.517-1.072,1.048-2.139,1.592-3.182c0.054-0.106,0.108-0.211,0.164-0.316c0.097-0.184,0.194-0.367,0.291-0.549
				c0.061-0.111,0.121-0.223,0.182-0.332c0.013-0.025,0.027-0.051,0.04-0.075c0.025-0.044,0.049-0.087,0.073-0.132
				c2.84-5.18,6.039-9.512,7.06-15.864c0.099-0.613,0.192-1.224,0.28-1.828c0.148-1.009,0.284-2.004,0.409-2.979
				c0.046-0.37,0.092-0.734,0.136-1.096c0.511-4.239,0.816-8.016,1.063-10.646c0.769-8.194-4.251-17.068-8.104-22.55
				c-2.062-2.931-3.787-4.893-4.12-5.264c-0.008-0.008-0.014-0.015-0.02-0.021c-0.068,0.026-0.138,0.052-0.207,0.079
				c-0.086,0.032-0.171,0.063-0.257,0.097c-0.157,0.062-0.317,0.122-0.479,0.185c-0.324,0.127-0.658,0.258-0.997,0.392
				c-0.116,0.046-0.234,0.093-0.354,0.14c-3.73,1.463-12.526,4.064-13.515,4.773c-0.571,0.409-0.911,3.708-2.385,8.432
				c-3.036,9.728-4.839,24.395-4.927,28.059c-0.001,0.058-0.002,0.113-0.002,0.165C62.465,79.683,63.264,81.376,64.54,83.811z
				 M79.468,81.981c0,1.828-0.595,3.921-1.509,6.151c-0.023,0.056-0.047,0.112-0.069,0.168c-0.63-1.344-1.224-2.63-1.755-3.822
				c-0.002-0.003-0.002-0.003-0.002-0.007c-1.463-3.271-2.467-5.824-2.522-6.834c-0.36-6.488,4.419-13.957,4.419-13.957
				c0,0.003,0.001,0.007,0.002,0.01c0.002,0.003,0.003,0.007,0.003,0.01c0.003,0.012,0.007,0.023,0.009,0.035
				c0.008,0.024,0.015,0.048,0.021,0.073c0.005,0.014,0.009,0.029,0.012,0.045c0.003,0.011,0.007,0.022,0.01,0.034
				C79.063,67.745,79.468,81.981,79.468,81.981z"/>
		</g>
		<g>
			<path fill="#5B83C3" d="M152.549,68.437l-22.244,4.844l-10.604-27.729c-0.234-0.186-3.274-1.822-5.288-2.779
				c-2.095-0.998-4.747-2.229-7.099-3.315c-1.124-0.52-2.182-1.005-3.076-1.415l-0.074,0.058c0,0,1.313,4.372,3.013,15.284
				c0,0.002,0,0.003,0.001,0.004c0.059,0.367,0.115,0.74,0.174,1.121c0.005,0.044,0.012,0.089,0.02,0.133
				c0.037,0.252,0.076,0.508,0.115,0.768c0.004,0.03,0.009,0.061,0.014,0.091c0.025,0.174,0.052,0.35,0.076,0.526
				c0.064,0.432,0.129,0.87,0.192,1.317c0.758,5.313,1.821,14.353,2.843,23.479v0.003c0.807,7.192,2.647,14.575,3.231,20.083
				c0,0.004,0.002,0.007,0.002,0.011c0.115,1.079,0.392,2.519,0.765,4.141c0.041,0.184,0.085,0.37,0.129,0.558
				c1.645,6.953,4.841,16.795,4.841,16.795l0.931-0.859l2.756-2.545c0.635-0.584,0.875-1.482,0.619-2.305
				c-1.529-4.931-6.724-22.381-7.676-34.65c-0.001-0.004-0.001-0.007-0.001-0.011c-0.298-3.854,0.829-7.485,1.482-10.928
				c0.012,0.029,0.022,0.059,0.033,0.09c0.547,1.521,1.153,3.175,1.765,4.785v0.001c1.639,4.323,3.316,8.33,4.016,8.586
				c1.554,0.571,30.844-7.438,31.046-8.586L152.549,68.437z"/>
		</g>
		<g>
			<path fill="#4F71A7" d="M88.179,48.899l4.54,2.561l-1.939,1.979l5.164,27.885c1.053-6.536,1.532-12.743,1.889-16.55
				c1.188-12.669-11.457-26.96-12.243-27.835c-0.607,0.23-1.264,0.485-1.941,0.753L88.179,48.899z"/>
		</g>
		<g>
			<path fill="#4F71A7" d="M104.095,37.976c0,0,1.696,5.54,3.673,19.367c0.758,5.313,1.822,14.354,2.844,23.479l1.057-26.115
				l-2.162-2.343l1.922-2.402l-4.113-10.505c-1.124-0.519-2.182-1.005-3.076-1.416L104.095,37.976z"/>
		</g>
		<g>
			<path fill="#F4E2D8" d="M85.36,36.995l3.765-2.286c0,0,0.105,2.063,9.427,7.456l-2.647,7.456L85.36,36.995z"/>
		</g>
		<g>
			<path fill="#F4E2D8" d="M101.031,35.749c0,0-0.146,2.228-2.479,6.416l5.167,6.734l0.376-10.923L101.031,35.749z"/>
		</g>
		<g>
			<path fill="#333757" d="M98.538,42.165c0,0-1.001,4.005-0.642,5.126c0,0,2.202,0.802,3.785-0.2
				C101.682,47.09,100.561,44.287,98.538,42.165z"/>
		</g>
		<g>
			<g>
				<path fill="#AD9F99" d="M103.714,99.926c0.561-2.826,0.026-11.293,0.004-11.652l-0.479,0.03
					c0.006,0.087,0.553,8.765,0.004,11.528L103.714,99.926z"/>
			</g>
		</g>
		<g>
			<path fill="#6A747B" d="M99.793,98.624c0,0,4.519,0.539,6.014,0.912l-0.196,5.064l-5.917-0.631L99.793,98.624z"/>
		</g>
		<g>
			<path fill="#333757" d="M100.782,46.73c0,0,5.04,12.728,4.218,26.973c-0.853,14.77-2.25,20.125-2.25,20.125l-3.107,3.896
				l-1.371-4.789c0,0,4.17-18.831,1.479-37.153c-0.488-3.32-1.212-9.612-1.212-9.612L100.782,46.73z"/>
		</g>
		<g>
			<path fill="#F37475" d="M85.639,106.834c0,0,1.081,2.162,2.163,2.523c1.081,0.36,2.658,2.117,2.658,2.117l-7.614,4.01
				c0,0-2.028-3.965-2.118-6.488S85.639,106.834,85.639,106.834z"/>
		</g>
		<g>
			<path fill="#DFCCC5" d="M86.361,107.037l0.504,1.015c0,0-4.836,3.536-6.139,3.762l-0.447-1.352L86.361,107.037z"/>
		</g>
		<g>
			<path fill="#5B83C3" d="M86.865,107.082c0,0-3.624,2.997-6.677,4.378L69.916,92.985l5.323-10.289
				C75.239,82.696,86.625,105.279,86.865,107.082z"/>
		</g>
		<g>
			<path fill="#304464" d="M117.548,64.659c0.167,3.418,0.143,6.453,0.143,6.453s0,0.002,0,0.003
				c0.001,0.017,0.005,0.108,0.012,0.262c0.007-0.059,0.015-0.115,0.021-0.172c0.547,1.521,1.153,3.175,1.765,4.785
				c0.142-1.866,0.178-3.604,0.137-5.215c-0.245-9.583-3.26-14.608-3.26-14.608C117.057,57.836,117.389,61.42,117.548,64.659z"/>
		</g>
		<g>
			<path fill="#304464" d="M71.522,100.731l8.223,9.932l-7.044-12.176C72.297,99.242,71.901,99.992,71.522,100.731z"/>
		</g>
		<g>
			<path fill="#333757" d="M131.238,88.28h18.985c1.301,0,2.433-0.891,2.739-2.155l8.246-34.048c0.43-1.774-0.914-3.482-2.739-3.482
				h-18.984c-1.302,0-2.434,0.891-2.74,2.155l-8.247,34.048C128.069,86.571,129.414,88.28,131.238,88.28z"/>
		</g>
		<g>
			<g>
				<path fill="#F37475" d="M154.46,78.814c-0.929-0.859-2.722-1.358-4.255-2.384c-1.535-1.025-0.254-2.082-0.254-2.082
					c-1.577-0.542-1.406-1.262-1.205-1.752c0.273-0.662,1.994-0.475,1.994-0.475s-1.544-0.342-2.179-0.622
					c-0.635-0.281-0.419-1.389,0.558-1.739c0.978-0.35,4.958,0.633,4.958,0.633s-0.648-0.318-2.612-1.305
					c-1.963-0.985-2.395-1.881-1.236-2.312c0.805-0.3,2.386,0.328,5.422,2.367c2.285,1.536,2.1,1.736,2.1,1.736
					S155.569,79.841,154.46,78.814z"/>
			</g>
		</g>
	</g>
	<g>
		<path fill="#2A256E" d="M105.762,13.711l0.137,1.004c0,0-1.75-0.251-2.734,0.688c-0.984,0.939-1.12,1.045-1.12,1.045
			S102.608,14.197,105.762,13.711z"/>
		
			<ellipse transform="matrix(-0.9997 -0.024 0.024 -0.9997 208.7123 36.0499)" fill="#2A256E" cx="104.573" cy="16.771" rx="0.772" ry="0.917"/>
		<path fill="#2A256E" d="M105.066,26.027c-0.596-0.013-1.197-0.156-1.672-0.459c-0.234-0.155-0.419-0.359-0.543-0.589
			c-0.136-0.224-0.165-0.494-0.191-0.75l-0.004-0.033c-0.017-0.165-0.165-0.285-0.33-0.269c-0.166,0.018-0.285,0.165-0.269,0.331
			c0.002,0.015,0.005,0.031,0.009,0.045c0.086,0.326,0.188,0.658,0.411,0.924c0.209,0.268,0.481,0.474,0.774,0.604
			C103.845,26.081,104.474,26.111,105.066,26.027z"/>
		
			<ellipse transform="matrix(0.9816 -0.1912 0.1912 0.9816 -1.816 19.9784)" fill="#F15F5C" cx="102.64" cy="19.401" rx="2.066" ry="1.267"/>
	</g>
</g>
<g>
	<g>
		<g>
			<path fill="#373B5E" d="M13.396,245.058c0,0-5.481,7.7-4.729,8.921s6.517,1.395,10.025,0s3.592-10.42,5.18-14.297
				c0.664-1.623-0.758-6.415-2.757-6.763c-2-0.348-4.175,0.673-4.175,0.673S19.014,239.054,13.396,245.058z"/>
		</g>
		<g>
			<g>
				<path fill="#EFA986" d="M16.903,233.531c0,0-1.153,3.278-1.575,6.41c-0.35,2.597-3.904,8.11-3.738,8.808
					c0.168,0.697,4.679,1.329,6.517-0.469s3.021-7.027,3.425-10.154c0.377-2.913,0.854-4.352,0.854-4.352
					S18.657,231.613,16.903,233.531z"/>
			</g>
		</g>
		<g>
			<path fill="#373B5E" d="M61.107,245.186c0,0-5.284,7.572-4.533,8.793c0.753,1.221,6.517,1.395,10.025,0s3.593-10.42,5.18-14.297
				c0.664-1.623-0.758-6.415-2.757-6.763s-4.344,0.747-4.344,0.747S66.725,239.182,61.107,245.186z"/>
		</g>
		<g>
			<g>
				<path fill="#EFA986" d="M64.679,233.667c0,0-0.418,3.574-1.087,6.103c-0.668,2.528-4.26,8.282-4.094,8.979
					c0.168,0.697,4.68,1.329,6.518-0.469c1.837-1.798,3.258-7.004,3.424-10.154c0.168-3.151-0.417-5.206-0.417-5.206
					S66.433,231.749,64.679,233.667z"/>
			</g>
		</g>
		<g>
			<g>
				<path fill="#EFA986" d="M38.274,108.302c0,0-4.704,22.834-5.784,28.583s-4.104,33.592-4.429,38.326
					c-0.324,4.735-4.908,22.574-4.692,24.265c0.217,1.69-6.796,35.657-6.796,35.657s2.396,2.012,4.919,0.182
					c1.299-0.94,15.386-31.799,15.386-40.253c0-11.687,8.282-26.942,9.351-29.556c9.927-24.289,7.973-31.715,9.27-33.293
					c1.295-1.578,1.407,0.975,2.164,4.47c0.756,3.494,2.375,33.704,3.348,37.537s0.217,16.796,0.758,23.334
					c0.539,6.538,2.911,36.112,2.911,36.112s1.837,3.003,4.413,0.078c0.555-0.629,4.448-32.943,4.557-40.723
					c0.108-7.777,0.223-18.504,0.432-21.868c2.002-32.231,6.921-36.835-0.827-59.646C58.748,68.795,38.274,108.302,38.274,108.302z"
					/>
			</g>
		</g>
		<g>
			<path fill="#4B5081" d="M69.862,101.92c0,0,13.4,19.57,7.631,61.202c0,0-31.784,4.511-48.812-5.218
				c0,0,7.041-42.924,9.593-49.603S69.862,101.92,69.862,101.92z"/>
		</g>
		<g>
			<polygon fill="#373B5E" points="24.018,239.004 24.018,247.067 23.016,247.067 23.016,240.835 			"/>
		</g>
		<g>
			<polygon fill="#373B5E" points="71.926,239.004 71.926,247.067 70.924,247.067 70.924,240.835 			"/>
		</g>
		<path fill="#F37475" d="M53.976,15.142c0,0-8.974,9.04-5.918,20.681c3.057,11.641,7.968,11.705,13.381,6.697
			c5.413-5.007,8.6-10.274,9.315-16.127C71.469,20.54,62.17,7.079,53.976,15.142z"/>
		<path fill="#F37475" d="M52.22,53.966c0,0,1.33-3.045,2.263-6.474c0.164-0.604,0.316-1.221,0.447-1.834
			c0.457-2.157,0.645-4.281,0.15-5.74c-1.43-4.227,8.976-1.3,8.976-1.3s-2.016,11.185,0,14.957
			C66.072,57.347,52.22,53.966,52.22,53.966z"/>
		<path fill="#EDDAD3" d="M78.59,59.294c-1.637-3.269-2.861-4.321-6.027-5.321c-1.771-0.559-9.686-2.619-9.686-2.619l-9.505-0.35
			c0,0-6.538,1.089-11.609,2.846c-5.073,1.756-11.719,11.365-11.719,11.365s9.169,21.526,10.926,27.704
			c1.755,6.178,0.585,15.737,0.585,15.737c10.99,5.982,28.613-0.585,28.613-0.585c-1.337-4.827-1.393-10.463-0.689-14.461
			c0.082-0.472,0.176-0.921,0.278-1.342c0.095-0.386,0.226-0.936,0.376-1.552c0.008-0.027,0.015-0.055,0.02-0.082
			c6.991,0.715,13.546,1.006,13.718-0.396C84.641,83.923,80.844,63.788,78.59,59.294z M73.747,83.838
			c-0.282-0.043-0.88-0.046-1.514-0.103c0.775-2.166,1.642-4.084,1.642-4.084C74.37,81.034,76.254,84.213,73.747,83.838z"/>
		<path fill="#2D1E66" d="M56.902,21.645c0,0,4.292,7.804,6.957,10.601c2.667,2.796,2.354,5.017,2.354,5.017
			s10.393-12.82,2.979-20.559c-7.413-7.739-16.973-4.617-19.77,2.146c-2.796,6.763-1.771,15.024-1.771,15.024
			S47.732,25.937,56.902,21.645z"/>
		<path fill="#191134" d="M59.734,13.475c0,0-1.039-5.713,7.921-7.985c8.958-2.272,12.983,8.05,11.879,14.347
			c-1.104,6.297-8.763,22.267-4.608,24.344c4.154,2.078,5.777-2.401,5.777-2.401s-1.298,7.854-7.076,6.037
			c-5.777-1.817-4.998-14.583-4.127-19.67C70.371,23.058,59.734,13.475,59.734,13.475z"/>
		<path fill="#A77861" d="M62.619,41.388c-0.034,0.082-2.299,5.296-8.137,6.104c0.164-0.604,0.316-1.221,0.447-1.834
			C54.93,45.659,58.129,46.303,62.619,41.388z"/>
		<path fill="#D0BEB8" d="M73.747,79.728c0,0-0.428,0.901-1.6,4.454c-1.194-9.979-0.57-15.172-0.57-15.172
			C71.708,74.342,73.747,79.728,73.747,79.728z"/>
		<path fill="#EDDAD3" d="M61.129,12.277c0,0,6.359,1.221,9.531,6.4c0,0-0.644-4.69-3.809-6.042S61.129,12.277,61.129,12.277z"/>
		<path fill="#D0BEB8" d="M70.133,90.717c-0.15,0.616-0.281,1.166-0.376,1.552c-0.103,0.421-0.196,0.87-0.278,1.342
			c-3.938-2.142-6.766-3.815-6.766-3.815C63.772,90.033,70.133,90.717,70.133,90.717z"/>
		<path fill="#F37475" d="M63.409,51.493L52.22,60.614l1.152-9.609C53.372,51.004,59.896,49.596,63.409,51.493z"/>
		<polygon fill="#D6C5BE" points="55.453,59.066 52.22,60.614 63.209,49.719 		"/>
		<path fill="#F9A148" d="M70.793,89.928c-1.54,6.382,4.158,20.746,4.158,20.746l-11.295,3.53c-1.625,0.508-3.335-0.487-3.693-2.152
			c-1.513-7.028-5.057-24.329-5.48-33.948c-0.54-12.272,8.395-26.75,8.395-26.75c15.882,2.725,11.528,26.75,11.528,26.75
			s-0.576,1.514-1.347,3.879c0,0,0,0,0,0.002c-0.195,0.594-0.4,1.242-0.613,1.934C71.902,85.694,71.317,87.756,70.793,89.928z"/>
		<path fill="#F9A148" d="M52.247,51.53l0.195-0.525c0,0-8.133,1.237-12.266,3.302c-4.134,2.064-12.048,12.73-12.048,12.73
			l10.35,13.664c0.013,10.501-1.69,29.171-1.69,29.171l4.731,2.727c1.272,0.733,2.865-0.166,2.893-1.634
			c0.133-7.1,0.452-23.959,0.619-32.124c0.215-10.502,7.709-27.486,7.709-27.486C52.573,51.411,52.41,51.47,52.247,51.53z"/>
		<path fill="#F37475" d="M37.501,100.766c0,0,7.804,0.304,9.018,0c1.214-0.303,9.312-3.814,9.798-7.283
			c0.487-3.469-18.815,3.109-18.815,3.109V100.766z"/>
		<polygon fill="#B6A7A2" points="61.714,89.928 30.044,86.221 44.351,97.862 		"/>
		<polygon fill="#EDDAD3" points="44.351,97.862 61.714,91.944 61.714,89.928 43.766,95.686 		"/>
		<g>
			<path fill="#F37475" d="M52.514,84.112c0,0-2.619,0.001-4.086-0.297c-1.136-0.231-3.957,0.087-4.676,0.724
				c-0.72,0.637-3.005,5.076-3.438,5.347c-0.432,0.271,0.222,0.897,0.98,0.583c0,0,0.697,1.942,2.417,1.215
				c1.722-0.727,2.89-2.314,3.791-2.594c0.9-0.28,6.147-1.69,6.147-1.69S53.865,83.639,52.514,84.112z"/>
		</g>
		<polygon fill="#FAE6DE" points="53.969,49.232 47.941,58.779 45.031,60.614 51.813,51.107 		"/>
		<polygon fill="#D6C5BE" points="47.941,58.779 52.22,60.614 53.372,51.004 53.969,49.232 		"/>
		<path fill="#F9A148" d="M38.454,96.301c0,0-0.325,4.031,0,4.877c0,0-19.53-1.951-21.352-4.682
			c-1.82-2.731-1.756-6.048-1.756-6.048L38.454,96.301z"/>
		<polygon fill="#EDDAD3" points="44.351,97.862 35.116,63.526 0,59.819 9.625,91.424 		"/>
		<polygon fill="#FAE6DE" points="63.209,49.719 55.453,59.066 59.697,62.85 64.277,51.662 		"/>
		<path fill="#875827" d="M73.318,81.194c0,0-0.26,0.789-0.26,0.791c-0.195,0.594-0.4,1.242-0.613,1.934
			c-1.498,0.472-14.471-0.48-14.471-0.48S68.832,80.889,73.318,81.194z"/>
		<path fill="#F9A148" d="M72.57,83.665c-2.09-0.157-5.513-0.381-8.314-0.393c-4.359-0.019-11.813,0.467-11.813,0.467l0.89,4.658
			c0,0,13.204,2.145,20.415,2.648l0,0c0,0,9.518,1.093,10.225-0.326c0.707-1.42-0.234-10.537-1.782-18.751
			c-1.549-8.215-3.139-12.946-5.032-15.483c-1.892-2.537-11.89-4.514-11.89-4.514l8.48,27.757c0,0,1.217,2.476,1.154,3.544
			c-0.02,0.324-0.244,0.479-0.549,0.537c-0.214-0.02-0.682-0.059-1.33-0.109L72.57,83.665z"/>
	</g>
	<g>
		<ellipse fill="#2D1E66" cx="58.335" cy="33.52" rx="0.907" ry="0.992"/>
		<ellipse fill="#2D1E66" cx="51.011" cy="34.429" rx="0.907" ry="0.992"/>
		<path fill="#2D1E66" d="M60.873,33.237c0,0-1.723-1.129-2.998-0.81c-1.277,0.319-1.447,1.092-1.447,1.092s1.043-0.801,2.425-0.574
			C60.235,33.171,60.873,33.237,60.873,33.237z"/>
		<path fill="#2D1E66" d="M48.229,34.959c0,0,1.38-1.529,2.696-1.544c1.313-0.016,1.675,0.688,1.675,0.688s-1.211-0.51-2.49,0.06
			C48.829,34.734,48.229,34.959,48.229,34.959z"/>
		<path fill="#2D1E66" d="M53.721,35.61c-0.158,0.949-0.432,1.858-0.746,2.755c0.369,0.297,1.136,0.513,1.593,0.647
			c-1.483,0.061-1.899-0.532-1.968-0.556C52.6,38.457,53.137,36.733,53.721,35.61z"/>
		<ellipse fill="#F15F5C" cx="59.507" cy="36.885" rx="2.228" ry="1.39"/>
		<path fill="#F15F5C" d="M49.792,36.144c0.933,0,1.689,0.585,1.689,1.307c0,0.642-0.601,1.176-1.39,1.285
			c-0.28-0.848-0.519-1.706-0.723-2.55C49.504,36.159,49.646,36.144,49.792,36.144z"/>
		<path fill="#2D1E66" d="M57.702,41.055c0.152-0.111,0.104-0.151,0.215,0c0.719,0.984-4.082,2.21-4.082,0.976
			C53.835,41.805,55.406,42.676,57.702,41.055z"/>
		<path fill="#2D1E66" d="M60.256,30.974c0,0-2.126-0.765-2.977-0.765c-0.852,0-2.015,0.978-1.795,1.552
			c0.221,0.574,1.242-0.957,1.943-0.957C58.13,30.804,60.256,30.974,60.256,30.974z"/>
		<path fill="#2D1E66" d="M49.109,32.832c0,0,0.507-1.238,1.32-1.485c0.814-0.248,2.213,0.35,2.169,0.963s-1.466-0.555-2.138-0.35
			C49.789,32.163,49.109,32.832,49.109,32.832z"/>
	</g>
</g>
</svg>
