<?xml version="1.0" encoding="utf-8"?>
<!-- Generator: Adobe Illustrator 16.0.0, SVG Export Plug-In . SVG Version: 6.00 Build 0)  -->
<!DOCTYPE svg PUBLIC "-//W3C//DTD SVG 1.1//EN" "http://www.w3.org/Graphics/SVG/1.1/DTD/svg11.dtd">
<svg version="1.1" id="Layer_1" xmlns="http://www.w3.org/2000/svg" xmlns:xlink="http://www.w3.org/1999/xlink" x="0px" y="0px"
	 width="1920px" height="1000px" viewBox="0 0 1920 1000" enable-background="new 0 0 1920 1000" xml:space="preserve">
<g>
	<g>
		<path fill="none" stroke="#F9F9F9" stroke-miterlimit="10" d="M451.066,1835.11c-7.099-189.683,28.672-485.582,333.875-725.724
			C1745.444,353.613,627.745-184.863,592.554-340.68C548.107-537.363,2686.531-14.575,2738.506,1029.307
			c-103.056,262.69-42.054,550.53,68.208,735.778"/>
	</g>
	<g>
		<path fill="none" stroke="#F9F9F9" stroke-miterlimit="10" d="M744.347,1690.417c-5.588-164.938,22.576-422.245,262.896-631.063
			C1763.542,402.159,883.464-66.08,855.755-201.573C820.758-372.604,2504.556,81.995,2545.48,989.718
			c-81.146,228.427-33.113,478.725,53.707,639.81"/>
	</g>
	<g>
		<path fill="none" stroke="#F9F9F9" stroke-miterlimit="10" d="M975.276,1564.597c-4.4-143.426,17.774-367.17,207.003-548.75
			c595.513-571.474-97.462-978.639-119.28-1096.458C1035.442-229.333,2361.268,165.97,2393.492,955.294
			c-63.896,198.632-26.074,416.28,42.289,556.354"/>
	</g>
	<g>
		<path fill="none" stroke="#F9F9F9" stroke-miterlimit="10" d="M1157.11,1455.188c-3.466-124.718,13.997-319.276,162.995-477.174
			c468.905-496.934-76.742-850.99-93.924-953.442c-21.696-129.323,1022.26,214.418,1047.635,900.789
			c-50.313,172.724-20.531,361.98,33.298,483.784"/>
	</g>
	<g>
		<path fill="none" stroke="#F9F9F9" stroke-miterlimit="10" d="M1300.287,1360.049c-2.729-108.45,11.021-277.633,128.343-414.934
			c369.218-432.116-60.427-739.991-73.954-829.08c-17.086-112.455,804.928,186.45,824.907,783.293
			c-39.615,150.193-16.166,314.768,26.219,420.684"/>
	</g>
	<g>
		<path fill="none" stroke="#F9F9F9" stroke-miterlimit="10" d="M1413.024,1277.32c-2.148-94.307,8.679-241.42,101.058-360.813
			c290.723-375.753-47.58-643.47-58.23-720.939c-13.453-97.787,633.802,162.131,649.532,681.125
			c-31.191,130.604-12.729,273.711,20.646,365.812"/>
	</g>
	<g>
		<path fill="none" stroke="#F9F9F9" stroke-miterlimit="10" d="M1501.794,1205.382c-1.69-82.004,6.834-209.93,79.573-313.75
			c228.915-326.741-37.465-559.539-45.854-626.903c-10.594-85.032,499.057,140.983,511.443,592.282
			c-24.563,113.568-10.021,238.01,16.256,318.097"/>
	</g>
	<g>
		<path fill="none" stroke="#F9F9F9" stroke-miterlimit="10" d="M1571.691,1142.827c-1.332-71.308,5.381-182.548,62.656-272.826
			c180.248-284.123-29.5-486.556-36.104-545.133c-8.343-73.941,392.957,122.594,402.711,515.028
			c-19.34,98.755-7.894,206.965,12.8,276.604"/>
	</g>
	<g>
		<path fill="none" stroke="#F9F9F9" stroke-miterlimit="10" d="M1626.729,1088.432c-1.049-62.007,4.237-158.735,49.336-237.238
			c141.93-247.063-23.229-423.094-28.428-474.029c-6.568-64.297,309.415,106.604,317.096,447.85
			c-15.229,85.874-6.215,179.972,10.078,240.526"/>
	</g>
	<g>
		<path fill="none" stroke="#F9F9F9" stroke-miterlimit="10" d="M1670.064,1041.131c-0.826-53.919,3.336-138.032,38.848-206.296
			c111.754-214.838-18.29-367.906-22.385-412.199c-5.172-55.91,243.635,92.699,249.682,389.437
			c-11.99,74.673-4.895,156.495,7.938,209.151"/>
	</g>
	<g>
		<path fill="none" stroke="#F9F9F9" stroke-miterlimit="10" d="M1704.188,1000c-0.648-46.886,2.627-120.028,30.588-179.388
			c87.996-186.815-14.399-319.918-17.625-358.436c-4.07-48.618,191.84,80.607,196.602,338.641
			c-9.439,64.934-3.854,136.083,6.249,181.873"/>
	</g>
</g>
</svg>
