<?xml version="1.0" encoding="utf-8"?>
<!-- Generator: Adobe Illustrator 16.0.0, SVG Export Plug-In . SVG Version: 6.00 Build 0)  -->
<!DOCTYPE svg PUBLIC "-//W3C//DTD SVG 1.1//EN" "http://www.w3.org/Graphics/SVG/1.1/DTD/svg11.dtd">
<svg version="1.1" id="Layer_1" xmlns="http://www.w3.org/2000/svg" xmlns:xlink="http://www.w3.org/1999/xlink" x="0px" y="0px"
	 width="214.887px" height="247.652px" viewBox="0 0 214.887 247.652" enable-background="new 0 0 214.887 247.652"
	 xml:space="preserve">
<g>
	<path fill="#DB524F" d="M2.26,103.007c0,0,4.582,1.984,4.582,2.836l3.619,0.619C10.461,106.462,5.243,102.134,2.26,103.007z"/>
	<path fill="#F15F5C" d="M116.936,89.172c-1.458,8.157-5.32,26.729-5.32,26.729s-5.967,3.586-4.903,7.156
		c1.064,3.571,3.864,4.658,3.864,4.658s2.977,1.518,3.393,1.394c1.855-0.553,1.594-5.811,4.057-7.121s11.438-27.63,11.77-35.14
		c0.051-1.162-2.443-6.825-2.697-9.054c-3.297-0.149-5.944-0.644-9.32-1.008C118.048,81.716,117.407,86.534,116.936,89.172z"/>
	<polygon fill="#F37475" points="121.118,218.383 118.154,230.148 124.822,231.188 127.255,222.934 	"/>
	<polygon fill="#F37475" points="166.344,221.504 167.897,228.485 167.897,237.998 175.657,231.188 172.835,220.634 	"/>
	<path fill="#121740" d="M60.227,33.931c0,0,3.233,1.299,2.39,5.515c-0.843,4.216,2.628,5.426,4.276,3.777
		c1.647-1.648,0-3.057,0-3.057s3.313,1.81,2.153,4.339s-4.683,2.409-4.683,2.409s4.577-0.383,3.945,3.663
		c-0.633,4.047-4.716,3.757-4.716,3.757s2.024-1.831,0.771-3.083c-1.252-1.253-4.137,3.088-4.137,3.088s-0.579,2.498-2.89-1.191
		c-2.31-3.688-7.034-0.73-7.034,0.478c0,1.209-3.918-3.007-2.97-5.115s-1.835-2.565-1.835-0.967c0,0-2.734-3.776,0.446-4.936
		s2.693-0.666,2.693-2.441c0-1.774,2.626-5.979,4.824-7.091C55.661,31.962,60.227,33.931,60.227,33.931z"/>
	<ellipse fill="#892D6D" cx="109.614" cy="240.238" rx="105.273" ry="7.414"/>
	<path fill="#044242" d="M141.27,163.13c0-8.695,6.52-31.673,6.52-33.535c0-1.863-7.451-24.919-7.451-24.919l-13.973,5.978
		c0,0-3.105,46.887-3.105,50.613c0,3.303,0.854,47.063-4.039,62.029c2.797,0.794,5.57,1.764,8.271,2.944
		c0.541-3.011,1.75-7.456,4.151-14.361C139.096,190.454,141.27,171.823,141.27,163.13z"/>
	<path fill="#F37475" d="M90.681,220.634c-0.349-0.456-1.883-1.448-2.514-2.886c-1.021-2.328-1.173-5.419-1.31-6.276
		c-2.41,0.906-4.004,2.598-6.52,3.444c1.232,3.476,1.943,6.451,1.619,8.307c-0.781,4.494-0.891,5.501-2.025,6.926
		C84.73,228.401,88.444,225.489,90.681,220.634z"/>
	<path fill="#68121F" d="M91.586,221.68c-0.302-0.307-0.606-0.653-0.905-1.046c-2.237,4.855-5.951,7.768-10.749,9.515
		c-0.523,0.658-1.266,1.405-2.396,2.628c-4.139,4.472,2.399,4.124,4.133,2.252c0.833-0.901,6.76-6.272,10.655-9.184
		C93.555,224.924,92.667,222.773,91.586,221.68z"/>
	<path fill="#B97029" d="M63.495,126.895c2.502-13.614-20.218-23.942-20.218-23.942c-2.979,7.34-1.181,18.469-0.9,25.683
		c0.278,7.214,19.253,46.342,19.253,46.342s5.39,6.783,7.531,13.925c1.536,5.125,7.02,17.846,10.152,26.677
		c2.515-0.847,6.041-2.294,8.452-3.199c-1.704-10.786-4.507-38.028-11.254-44.271C68.897,161.062,60.993,140.509,63.495,126.895z"/>
	<path fill="#F37475" d="M39.339,220.811c-3.312-0.975-2.078-2.271-5.077-3.979c-0.969,3.284-5.114,7.31-7.479,8.256
		c-1.15,0.46-6.976-0.314-8.044-0.26c4.35,4.465,10.978,7.393,17.005,7.997c0.317-0.796,1.364-0.954,1.364-1.592
		c0-0.344-0.119-0.735-0.119-1.349C36.989,228.044,38.174,223.476,39.339,220.811z"/>
	<path fill="#68121F" d="M21.61,225.021c-4.67-0.57-7.313-1.595-8.715-0.193c-1.747,1.746,0.018,3.189,2.46,4.557
		c2.665,1.492,18.979,7.336,18.979,7.336s2.467-1.968,2.773-5.487C31.082,230.628,25.958,229.484,21.61,225.021z"/>
	<path fill="#F69321" d="M56.225,170.581c0-3.493,19.795-44.713,17.933-54.494c-1.863-9.781-7.265-16.099-7.265-16.099
		s-17.57,2.242-20.016,4.688s-2.994,58.22-2.994,61.911s-4.891,21.228-7.22,33.338c-1.383,7.189-3.592,13.216-6.372,17.425
		c2.999,1.708,6.156,3.18,9.467,4.154c2.375-5.433,6.437-12.297,9.248-19.483C53.198,191.308,56.225,174.075,56.225,170.581z"/>
	<path fill="#E3D791" d="M45.137,118.698c-0.785,23.732-0.742,46.877-0.896,48.801c-0.633,4.354-8.751,38.31-8.776,38.396
		c-1.224,4.017-2.794,7.983-5.173,11.455c5.021-8.098,4.993-13.845,10.194-36.144c4.364-18.838,2.437-9.155,3.425-37.356
		C44.177,135.46,44.505,127.069,45.137,118.698z"/>
	<path fill="#F15F5C" d="M47.574,50.647c0,0-5.176,1.488-7.738,7.077c-2.562,5.59-2.625,25.41-6.468,29.253
		c-3.842,3.842-13.923,20.313-16.879,20.512c-3.717,0.248-7.806-2.813-14.326-2.813c-6.521,0,3.608,1.747,5.472,2.329
		s1.863,1.979,1.863,2.911s-6.282-0.052-5.293,0.938c0.989,0.989,10.706,2.438,15.946,0.459
		c5.239-1.979,21.053-20.494,23.598-24.686C46.292,82.437,47.574,50.647,47.574,50.647z"/>
	<path fill="#055858" d="M168.108,178.8c-3.726-7.67-4.859-16.254-6.412-23.707c-1.553-7.451-2.727-40.732-4.279-40.732
		s-30.161,3.639-30.161,3.639l22.087,62.442c0,0,13.538,30.488,16.355,44.803c3.125-0.533,6.251-0.958,9.377-1.215
		C174.725,222.81,171.834,186.472,168.108,178.8z"/>
	<path fill="#7791A0" d="M65.601,97.335c1.152-0.539,1.831-1.758,1.687-3.022c-0.521-4.58-0.305-11.743,0.237-15.524
		c0.517-2.696,0.998-5.173,1.388-7.118c1.862-9.315,4.472-28.954-20.214-24.296c-1.602,0.302-10.295,14.748-10.295,18.939
		c0,2.238,1.394,12.967,2.693,22.485c0,0,0.681,4.772,0.637,8.545c-0.017,1.387,1.97,1.354,2.477,2.645
		C45.375,102.952,58.749,100.54,65.601,97.335z"/>
	<path fill="#596D78" d="M68.913,71.67c1.45-7.254,3.354-20.771-7.535-24.195c-1.084,5.833-2.703,16.977-0.397,22.05
		c3.198,7.039-5.921,9.367-4.854,14.447s5.863,3.176,4.101,8.044c-1.764,4.868-7.066,8.899-7.066,8.899s0.001,0,0.002,0.001
		c4.255-0.658,9.114-2.026,12.438-3.581c1.152-0.539,1.831-1.758,1.687-3.022c-0.521-4.58-0.305-11.743,0.237-15.524
		C68.042,76.092,68.523,73.615,68.913,71.67z"/>
	<path fill="#F37475" d="M64.697,50.647c0,0,3.931,0.959,7.787,7.306c3.857,6.348,7.642,24.646,10.377,32.08
		c2.735,7.435,8.888,22.585,10.197,25.48s8.634,9.092,8.468,11.415c-0.167,2.322-4.255,4.752-5.573,4.657
		c-1.314-0.095-4.342-7.934-7.317-11.37c-2.97-3.428-11.418-19.847-13.061-23c-1.642-3.152-10.1-26.588-10.681-28.188
		C64.576,68.152,64.697,50.647,64.697,50.647z"/>
	<path fill="#24275E" d="M49.389,18.522c-0.375,0.465-4.743,10.646-3.742,13.993c1.002,3.347,4.541,2.831,7.514,2.831
		c2.974,0,5.135-0.539,5.135-0.539S52.024,15.256,49.389,18.522z"/>
	<path fill="#F37475" d="M50.024,35.532c-0.32,0.32,0.976,9.565-0.306,12.127c0,0-3.37,13.219-1.08,13.492
		c1.991,0.238,9.209-10.662,9.606-12.488c0.533-2.456,0-14.732,0-14.732L50.024,35.532z"/>
	<path fill="#F15F5C" d="M50.157,38.954c3.041,2.75,7.181,1.465,8.15-3.375c-0.053-1.738-0.059-1.548-0.063-1.648l-8.221,1.602
		C49.893,35.664,50.034,36.894,50.157,38.954z"/>
	<path fill="#F37475" d="M50.984,14.757c0,0-3.851,0.734-4.31,4.035s-1.101,6.051-0.459,9.902c0.643,3.852,2.935,8.986,6.694,9.812
		c3.759,0.825,7.702-5.41,7.702-8.803s1.375-9.078-1.192-12.563C56.852,13.657,50.984,14.757,50.984,14.757z"/>
	<path fill="#FFFFFF" d="M55.333,32.516c-2.027,0.884-5.029,0.905-5.029,0.905s0.212,0.412,0.58,0.855
		c0.877-0.049,2.595-0.205,4.01-0.71C55.189,32.999,55.333,32.516,55.333,32.516z"/>
	<path fill="#2C1229" d="M54.893,33.566c-1.415,0.505-3.133,0.661-4.01,0.71C52.318,35.986,53.838,35.573,54.893,33.566z"/>
	<path fill="#F15F5C" d="M50.983,14.757c0,0-3.85,0.734-4.309,4.035c-0.416,2.991-0.982,5.531-0.606,8.848
		c0.612-0.423,1.448-0.976,2.708-1.252c3.654-0.801,6.477-6.204,7.343-10.209c-0.001-0.094,0.119-1.414-0.56-2.094
		C52.859,13.016,50.983,14.757,50.983,14.757z"/>
	<path fill="#252C64" d="M50.948,30.296c0.102-1.052,0.172-2.107,0.162-3.169c-0.234,1.344-0.289,2.324-0.369,3.301
		c0.561,0.153,1.232,0.466,2.077,0.147C52.174,30.698,51.535,30.515,50.948,30.296z"/>
	<path fill="#252C64" d="M53.032,27.026c0.191-0.606,0.711-1.188,1.418-1.376c1.258-0.329,2.025,1.482,2.888,1.466
		c-0.619,0.316-1.61-0.742-2.29-1.012c-0.37-0.149-0.696-0.046-1.061,0.126C53.632,26.413,53.315,26.696,53.032,27.026z"/>
	<ellipse fill="#252C64" cx="54.698" cy="26.481" rx="0.612" ry="0.693"/>
	<path fill="#252C64" d="M50.236,27.421c-0.219-0.598-0.763-1.154-1.478-1.311c-1.271-0.272-1.957,1.571-2.82,1.593
		c0.633,0.289,1.576-0.813,2.244-1.112c0.362-0.166,0.693-0.078,1.064,0.078C49.608,26.835,49.938,27.104,50.236,27.421z"/>
	
		<ellipse transform="matrix(-0.999 0.0455 -0.0455 -0.999 98.2703 51.6675)" fill="#252C64" cx="48.547" cy="26.952" rx="0.612" ry="0.693"/>
	<path fill="#252C64" d="M52.586,24.092c-0.137-0.089,0.961-1.192,2.277-1.316s2.739,1.316,2.739,1.316s-1.938-1.156-2.757-0.782
		C54.028,23.683,53.345,24.585,52.586,24.092z"/>
	<path fill="#2B337C" d="M54.386,11.96c2.808,0.321,7.254-0.365,9.326,4.219c1.224,2.601,3.181,0.766,3.181,9.68
		c0,13.279-8.598,9.662-8.598,9.662s0.822-0.607,1.354-7.797c-0.029,0.035-0.046,0.054-0.046,0.054s0.038-1.057,0.04-2.416
		c0-0.003,0-0.007,0-0.009c-0.022-0.399-0.024-0.809-0.01-1.222c-0.022-1.306-0.092-2.681-0.26-3.598
		c-0.412-2.246-1.238-3.393-3.255-4.354c-2.017-0.963-9.241,1.779-9.241,1.779C47.126,13.776,51.581,11.64,54.386,11.96z"/>
	<path fill="#304B9E" d="M50.627,12.718c-3.529,0.779-4.595,6.211-7.483,9.1s-2.155,7.061-0.78,9.811
		c1.376,2.751,3.581,0.963,3.581,0.963s-1.15,0.643-1.884-1.65c-0.733-2.292,0.55-4.08,4.447-5.363
		c3.896-1.284,7.61-9.398,7.61-9.398C56.215,14.592,54.159,11.938,50.627,12.718z"/>
	<path fill="#043135" d="M45.945,32.591c-1.338,0.781-3.227-2.497-1.849-4.637c1.001-1.656,3.195-2.353,4.951-3.079
		c2.78-1.596,5.451-6.004,7.071-8.696c-1.175,3.213-3.664,7.67-6.665,9.447l-0.723,0.313c-0.741,0.299-3,0.907-4.09,2.377
		c-0.879,1.154-0.46,2.945,0.124,3.793C45.013,32.475,45.468,32.763,45.945,32.591z"/>
	<path fill="#F37475" d="M58.869,28.189c0,0,0.981-4.257,2.614-3.229c1.634,1.028-0.12,5.741-1.643,5.741
		S58.869,28.189,58.869,28.189z"/>
	<path fill="#F15F5C" d="M60.456,25.856c0,0-2.412,3.87-0.758,3.443C61.352,28.872,62.006,25.137,60.456,25.856z"/>
	
		<ellipse transform="matrix(-0.9484 0.3172 -0.3172 -0.9484 118.5124 38.547)" fill="#F15F5C" cx="56.119" cy="28.92" rx="1.85" ry="0.96"/>
	
		<ellipse transform="matrix(-0.9886 -0.1508 0.1508 -0.9886 91.1679 65.8913)" fill="#F15F5C" cx="48.082" cy="29.489" rx="1.554" ry="0.877"/>
	<path fill="#7B4B1E" d="M44.21,99.988l-0.934,2.964c0,0,2.063,2.188,3.686,2.188s19.931-5.151,19.931-5.151l-1.304-2.751
		C65.589,97.237,46.68,102.458,44.21,99.988z"/>
	<path fill="#7B4B1E" d="M54.264,110.431l-0.088-2.539c0.096-0.004,9.572-0.397,11.534-5.403l2.364,0.927
		C65.504,109.974,54.721,110.415,54.264,110.431z"/>
	<path fill="#F37475" d="M169.592,61.702c0,0,8.649,21.362,8.492,25.325c-0.157,3.962,1.065,30.307,1.065,30.307
		s0.836,12.862,0.426,14.263c-0.41,1.401-5.467,7.084-6.629,7.037c-1.161-0.046,0.056-1.415,0.056-1.415s-1.557,1.001-2.033,0.486
		c-0.475-0.515,3.867-6.345,3.898-7.146c0.041-1.027-0.295-3.556-1.44-4.026s-2.021,5.52-3.012,5.479
		c-0.99-0.039-0.089-8.438,0.937-11.09c1.027-2.652,2.651-4.289,1.801-7.867c-0.85-3.578-7.438-16.172-5.536-24.814l-8.399-20.453
		L169.592,61.702z"/>
	<path fill="#F15F5C" d="M173.911,72.915c-0.88-0.369-1.805-0.551-2.729-0.438c-2.729,0.334-5.867,2.723-7.898,5.211l2.968,7.228
		c2.839-1.255,7.494-3.222,10.425-3.987C175.909,78.48,174.914,75.647,173.911,72.915z"/>
	<path fill="#B39175" d="M123.7,50.661c-1.89,4.201-4.125,16.862-6.526,26.907c3.131,1.312,6.331,2.313,9.448,3.398
		c2.147-12.07,4.279-37.219,4.279-37.219S126.495,44.45,123.7,50.661z"/>
	<path fill="#8B4452" d="M130.901,43.748c0,0-7.641,12.566-7.641,20.64s0.776,48.997,0.776,56.139c0,0,30.499,1.863,36.399,0
		c0,0-4.243-29.779-1.138-43.27c3.104-13.49,3.235-31.542,0.146-33.509C158.44,43.109,130.901,43.748,130.901,43.748z"/>
	<path fill="#F1CDB1" d="M159.137,43.67c-0.633,0.038-3.366,10.1-2.318,15.34c0.688,3.434,3.479,15.521,6.421,24.688
		c3.783-1.866,9.339-3.12,13.403-4.002C173.889,64.735,167.731,43.153,159.137,43.67z"/>
	<path fill="#F37475" d="M140.708,21.718c0,0-5.346,22.716-4.759,23.392c1.363,1.567,8.476,1.539,11.31,0.127
		c2.47-1.23,0.745-22.144,0.745-22.144S143.871,21.706,140.708,21.718z"/>
	<path fill="#F15F5C" d="M148.003,23.093c0,0,0.003,0.667-0.009,1.766c-0.455,1.473-1.234,3.729-2.151,5.33
		c-1.225,2.138-5.138,5.299-8.175,4.915l3.039-13.386C143.871,21.706,148.003,23.093,148.003,23.093z"/>
	<path fill="#1D2A58" d="M151.911,3.676c1.024,2.347,1.602,5.435-0.737,6.452c2.568-0.747,2.389-4.245,1.616-6.796L151.911,3.676z"
		/>
	<path fill="#F37475" d="M149.412,16.531c1.059,0.087,3.387,1.358,0.649,4.198c-2.736,2.84-3.838-0.941-3.314-2.332
		S148.6,16.466,149.412,16.531z"/>
	<path fill="#F15F5C" d="M150.336,18.856c0,0-0.665,2.271-1.789,2.018c-1.123-0.253-1.043-2.031-0.107-2.73
		C149.376,17.444,150.577,18.218,150.336,18.856z"/>
	<path fill="#F37475" d="M140.575,9.758c0,0-3.432-0.271-4.66,3.889s-1.592,16.305,1.53,18.068s7.895-1.477,9.19-3.634
		c1.35-2.243,2.282-6.015,2.282-6.015S152.2,6.813,140.575,9.758z"/>
	<path fill="#1D2A58" d="M151.053,28.591c0,0-0.98,0.776-1.614-0.624c0,0-1.477-3.231,0.717-5.014s5.448-4.176,5.776-8.175
		c0.327-3.999-4.372-4.926-4.372-4.926s0.458-6.137-6.519-5.481c0,0-0.979-1.546-4.848-2.16c-3.867-0.614-3.382,1.672-5.519,0.868
		c-2.138-0.805-2.094-2.597-1.029-3.079c0,0-4.147,0.963-5.257,3.911c-1.109,2.947,4.695,4.29,4.695,4.29s-4.836-0.339-1.656,2.389
		s4.931,3.05,7.577,1.354c2.647-1.696,3.929-1.972,4.996-1.233c1.068,0.738,0.126,3.244,1.821,3.883
		c1.695,0.637,1.883,5.503,1.883,5.503s1.449-0.177,0.717,3.063c-0.733,3.24-1.578,5.151,0.338,5.873
		C150.676,29.753,151.053,28.591,151.053,28.591z"/>
	<path fill="#1D2A58" d="M138.612,19.198c-0.159,2.007-0.558,3.906-0.522,5.821c0.45,0.096,0.897,0.209,1.343,0.352
		c-0.822,0.1-1.477,0.09-1.78,0.098C137.653,25.368,137.384,22.711,138.612,19.198z"/>
	<path fill="#FFFFFF" d="M141.654,26.811c0,0-3.583,0.419-5.41-0.427c0,0,0.033,1.59,1.083,2.236
		C138.375,29.268,140.812,29.049,141.654,26.811z"/>
	
		<ellipse transform="matrix(-0.9969 -0.0792 0.0792 -0.9969 279.5363 50.9342)" fill="#1D2A58" cx="140.779" cy="19.92" rx="0.659" ry="0.835"/>
	
		<ellipse transform="matrix(-0.9968 -0.08 0.08 -0.9968 270.2292 49.4508)" fill="#1D2A58" cx="136.105" cy="19.313" rx="0.659" ry="0.835"/>
	<g>
		<path fill="#1D2A58" d="M137.405,18.268c0.065,0.112,0.027,0.258-0.085,0.323c-0.064,0.037-0.139,0.042-0.202,0.018
			c-0.05-0.019-0.093-0.053-0.121-0.102c-0.186-0.317-0.784-1.186-1.309-1.383c-0.129-0.049-0.261-0.088-0.391-0.121
			c0.018-0.16,0.037-0.318,0.058-0.473c0.164,0.039,0.334,0.089,0.499,0.151C136.642,16.979,137.374,18.215,137.405,18.268z"/>
	</g>
	<g>
		<path fill="#1D2A58" d="M139.523,18.787c0.112,0.043,0.241-0.007,0.296-0.118c0.015-0.03,0.398-0.777,1.485-0.982
			c0.94-0.178,2.965,0.801,3.667,1.192c0.121,0.068,0.258,0.022,0.321-0.091c0.063-0.114,0.023-0.258-0.091-0.321
			c-0.109-0.062-2.686-1.49-3.984-1.245c-1.331,0.251-1.805,1.201-1.824,1.242c-0.057,0.117-0.008,0.258,0.109,0.315
			C139.51,18.782,139.516,18.785,139.523,18.787z"/>
	</g>
	<path fill="#9DBAC6" d="M115.07,232.052c-2.011,1.163-3.676-0.695-3.655-0.724c1.992-2.854,3.104-5.431,3.578-6.05
		c0.526-0.689,1.261-1.615,3.096-0.682c1.836,0.936,3.388,2.952,2.674,3.373C120.286,228.25,118.094,230.302,115.07,232.052z"/>
	<path fill="#0B5371" d="M127.727,237.625c0,0-4.84,0.053-8.227,0.091c-3.387,0.037-8.785,0.441-10.479,0.46
		c-1.693,0.019-7.877-3.282-7.491-4.387s5.955-0.892,8.839-2.161s6.676-5.017,7.978-4.951c1.088,0.055,6.668,1.085,7.649,1.898
		C126.977,229.39,128.562,236.894,127.727,237.625z"/>
	<path fill="#B6DFCF" d="M102.973,233.094c0.002,0.001,0.002,0.001,0.004,0.001c1.304,0.299,3.557,2.497,6.93,3.236
		c2.623,0.574,13.327-0.599,17.967-1.149c0.141,1.228,0.128,2.202-0.146,2.442c0,0-4.84,0.054-8.227,0.092
		c-3.387,0.037-8.785,0.441-10.479,0.46c-1.693,0.019-7.877-3.282-7.491-4.387C101.641,233.47,102.186,233.261,102.973,233.094z"/>
	<path fill="#B6DFCF" d="M113.621,233.216c0.038-0.043,0.058-0.098,0.049-0.146c-0.368-1.856-3.074-1.924-3.188-1.926
		c-0.097-0.002-0.195,0.07-0.222,0.16s0.03,0.165,0.126,0.166c0.026,0.001,2.6,0.067,2.929,1.73c0.017,0.082,0.108,0.12,0.207,0.084
		C113.561,233.27,113.594,233.245,113.621,233.216z"/>
	<path fill="#B6DFCF" d="M114.926,231.869c0.037-0.041,0.057-0.094,0.049-0.143c-0.191-1.188-2.993-1.799-3.112-1.824
		c-0.089-0.019-0.196,0.038-0.241,0.125c-0.044,0.089-0.008,0.176,0.081,0.194c0.765,0.163,2.778,0.773,2.916,1.628
		c0.014,0.083,0.104,0.124,0.202,0.09C114.863,231.925,114.899,231.9,114.926,231.869z"/>
	<path fill="#B6DFCF" d="M115.899,230.92c0.031-0.036,0.051-0.081,0.051-0.124c-0.021-1.098-2.84-1.948-3.161-2.041
		c-0.085-0.025-0.195,0.023-0.246,0.111c-0.05,0.087-0.021,0.178,0.065,0.202c0.823,0.24,2.967,1.033,2.981,1.813
		c0.001,0.087,0.083,0.139,0.183,0.115C115.822,230.984,115.866,230.956,115.899,230.92z"/>
	<path fill="#0B5371" d="M181.132,235.751c0,0-4.536,1.689-7.71,2.871c-3.175,1.182-8.118,3.389-9.705,3.979
		c-1.588,0.591-8.523-0.422-8.535-1.592c-0.011-1.17,5.303-2.854,7.586-5.024c2.283-2.171,4.584-6.98,5.832-7.359
		c1.041-0.317,6.641-1.237,7.84-0.803C177.638,228.257,181.67,234.781,181.132,235.751z"/>
	<path fill="#B6DFCF" d="M156.306,239.867c0.001,0,0.003-0.001,0.004-0.001c1.327-0.16,4.192,1.146,7.616,0.7
		c2.661-0.348,12.338-5.074,16.516-7.163c0.549,1.107,0.867,2.029,0.69,2.348c0,0-4.536,1.689-7.71,2.871
		c-3.175,1.182-8.118,3.389-9.705,3.979c-1.588,0.591-8.523-0.422-8.535-1.592C155.18,240.672,155.622,240.291,156.306,239.867z"/>
	<path fill="#9DBAC6" d="M167.335,234.792c-1.499,1.775-3.694,0.59-3.685,0.557c0.908-3.359,1.084-6.162,1.319-6.904
		c0.263-0.826,0.641-1.946,2.684-1.688s4.186,1.631,3.656,2.269C170.957,229.449,169.589,232.122,167.335,234.792z"/>
	<path fill="#B6DFCF" d="M166.366,236.378c0.021-0.054,0.021-0.111-0.004-0.154c-0.975-1.622-3.543-0.77-3.651-0.732
		c-0.091,0.031-0.16,0.132-0.154,0.226s0.083,0.145,0.175,0.114c0.024-0.009,2.468-0.817,3.341,0.637
		c0.044,0.072,0.144,0.075,0.224,0.008C166.328,236.448,166.352,236.414,166.366,236.378z"/>
	<path fill="#B6DFCF" d="M168.25,235.007c0.022-0.052,0.019-0.109-0.016-0.155c-0.839-1.132-4.454-0.992-4.607-0.985
		c-0.114,0.005-0.213,0.09-0.22,0.188c-0.006,0.1,0.081,0.177,0.195,0.172c0.984-0.042,3.673,0.028,4.275,0.842
		c0.059,0.079,0.187,0.096,0.285,0.035C168.205,235.079,168.233,235.044,168.25,235.007z"/>
	<path fill="#B6DFCF" d="M168.737,233.751c0.018-0.045,0.02-0.094-0.004-0.136c-0.562-1.078-4.211-1.14-4.626-1.144
		c-0.11,0-0.212,0.078-0.227,0.179c-0.015,0.1,0.063,0.181,0.173,0.182c1.063,0.009,3.909,0.2,4.31,0.967
		c0.046,0.085,0.164,0.113,0.267,0.063C168.68,233.836,168.717,233.796,168.737,233.751z"/>
	<path fill="#F15F5C" d="M106.846,120.073c0,0,6.598-1.36,7.179-0.345c0.581,1.017-5.032,1.936-5.032,2.274s5.564-1.742,6.387-0.436
		c0.823,1.307-5.443,2.105-4.936,2.613s5.236-1.613,6.001-0.85c0.764,0.764-4.8,2.059-4.8,2.688c0,0.629,3.832-1.259,3.832-0.532
		c0,0.726-2.956,2.885-3.438,2.885c-0.481,0-1.453-0.239-1.885-1.021c-0.432-0.783-1.597-0.63-1.911-1.259s-0.701-0.677-1.017-1.428
		c-0.313-0.749,0.116-1.718-0.413-2.686C106.283,121.011,106.846,120.073,106.846,120.073z"/>
</g>
</svg>
