<?xml version="1.0" encoding="utf-8"?>
<!-- Generator: Adobe Illustrator 16.0.0, SVG Export Plug-In . SVG Version: 6.00 Build 0)  -->
<!DOCTYPE svg PUBLIC "-//W3C//DTD SVG 1.1//EN" "http://www.w3.org/Graphics/SVG/1.1/DTD/svg11.dtd">
<svg version="1.1" id="Layer_1" xmlns="http://www.w3.org/2000/svg" xmlns:xlink="http://www.w3.org/1999/xlink" x="0px" y="0px"
	 width="751.111px" height="802.874px" viewBox="0 0 751.111 802.874" enable-background="new 0 0 751.111 802.874"
	 xml:space="preserve">
<g opacity="0.24">
	<polygon fill="#FDFEFF" points="307.159,703.928 303.07,708.016 298.981,703.928 296.184,706.725 300.272,710.813 296.184,714.902 
		298.981,717.7 303.07,713.611 307.159,717.7 309.957,714.902 305.867,710.813 309.957,706.725 	"/>
	<polygon fill="#FDFEFF" points="340.141,703.928 336.052,708.016 331.963,703.928 329.166,706.725 333.254,710.813 
		329.166,714.902 331.963,717.7 336.052,713.611 340.141,717.7 342.938,714.902 338.85,710.813 342.938,706.725 	"/>
	<polygon fill="#FDFEFF" points="373.123,703.928 369.034,708.016 364.945,703.928 362.148,706.725 366.236,710.813 
		362.148,714.902 364.945,717.7 369.034,713.611 373.123,717.7 375.921,714.902 371.832,710.813 375.921,706.725 	"/>
	<polygon fill="#FDFEFF" points="406.105,703.928 402.017,708.016 397.928,703.928 395.131,706.725 399.22,710.813 395.131,714.902 
		397.928,717.7 402.017,713.611 406.105,717.7 408.903,714.902 404.814,710.813 408.903,706.725 	"/>
	<polygon fill="#FDFEFF" points="430.91,717.7 434.999,713.611 439.088,717.7 441.886,714.902 437.797,710.813 441.886,706.725 
		439.088,703.928 434.999,708.016 430.91,703.928 428.113,706.725 432.201,710.813 428.113,714.902 	"/>
	<polygon fill="#FDFEFF" points="307.159,736.91 303.07,740.998 298.981,736.91 296.184,739.707 300.272,743.796 296.184,747.885 
		298.981,750.683 303.07,746.594 307.159,750.683 309.957,747.885 305.867,743.796 309.957,739.707 	"/>
	<polygon fill="#FDFEFF" points="340.141,736.91 336.052,740.998 331.963,736.91 329.166,739.707 333.254,743.796 329.166,747.885 
		331.963,750.683 336.052,746.594 340.141,750.683 342.938,747.885 338.85,743.796 342.938,739.707 	"/>
	<polygon fill="#FDFEFF" points="373.123,736.91 369.034,740.998 364.945,736.91 362.148,739.707 366.236,743.796 362.148,747.885 
		364.945,750.683 369.034,746.594 373.123,750.683 375.921,747.885 371.832,743.796 375.921,739.707 	"/>
	<polygon fill="#FDFEFF" points="406.105,736.91 402.017,740.998 397.928,736.91 395.131,739.707 399.22,743.796 395.131,747.885 
		397.928,750.683 402.017,746.594 406.105,750.683 408.903,747.885 404.814,743.796 408.903,739.707 	"/>
	<polygon fill="#FDFEFF" points="441.886,739.707 439.088,736.91 434.999,740.998 430.91,736.91 428.113,739.707 432.201,743.796 
		428.113,747.885 430.91,750.683 434.999,746.594 439.088,750.683 441.886,747.885 437.797,743.796 	"/>
	<polygon fill="#FDFEFF" points="307.159,769.892 303.07,773.98 298.981,769.892 296.184,772.689 300.272,776.778 296.184,780.867 
		298.981,783.665 303.07,779.576 307.159,783.665 309.957,780.867 305.867,776.778 309.957,772.689 	"/>
	<polygon fill="#FDFEFF" points="340.141,769.892 336.052,773.98 331.963,769.892 329.166,772.689 333.254,776.778 329.166,780.867 
		331.963,783.665 336.052,779.576 340.141,783.665 342.938,780.867 338.85,776.778 342.938,772.689 	"/>
	<polygon fill="#FDFEFF" points="373.123,769.892 369.034,773.98 364.945,769.892 362.148,772.689 366.236,776.778 362.148,780.867 
		364.945,783.665 369.034,779.576 373.123,783.665 375.921,780.867 371.832,776.778 375.921,772.689 	"/>
	<polygon fill="#FDFEFF" points="406.105,769.892 402.017,773.98 397.928,769.892 395.131,772.689 399.22,776.778 395.131,780.867 
		397.928,783.665 402.017,779.576 406.105,783.665 408.903,780.867 404.814,776.778 408.903,772.689 	"/>
	<polygon fill="#FDFEFF" points="441.886,772.689 439.088,769.892 434.999,773.98 430.91,769.892 428.113,772.689 432.201,776.778 
		428.113,780.867 430.91,783.665 434.999,779.576 439.088,783.665 441.886,780.867 437.797,776.778 	"/>
	<polygon fill="#FDFEFF" points="307.159,802.874 303.07,806.963 298.981,802.874 296.184,805.672 300.272,809.761 296.184,813.85 
		298.981,816.646 303.07,812.559 307.159,816.646 309.957,813.85 305.867,809.761 309.957,805.672 	"/>
	<polygon fill="#FDFEFF" points="340.141,802.874 336.052,806.963 331.963,802.874 329.166,805.672 333.254,809.761 329.166,813.85 
		331.963,816.646 336.052,812.559 340.141,816.646 342.938,813.85 338.85,809.761 342.938,805.672 	"/>
	<polygon fill="#FDFEFF" points="373.123,802.874 369.034,806.963 364.945,802.874 362.148,805.672 366.236,809.761 362.148,813.85 
		364.945,816.646 369.034,812.559 373.123,816.646 375.921,813.85 371.832,809.761 375.921,805.672 	"/>
	<polygon fill="#FDFEFF" points="406.105,802.874 402.017,806.963 397.928,802.874 395.131,805.672 399.22,809.761 395.131,813.85 
		397.928,816.646 402.017,812.559 406.105,816.646 408.903,813.85 404.814,809.761 408.903,805.672 	"/>
	<polygon fill="#FDFEFF" points="441.886,805.672 439.088,802.874 434.999,806.963 430.91,802.874 428.113,805.672 432.201,809.761 
		428.113,813.85 430.91,816.646 434.999,812.559 439.088,816.646 441.886,813.85 437.797,809.761 	"/>
	<polygon fill="#FDFEFF" points="307.159,835.856 303.07,839.945 298.981,835.856 296.184,838.654 300.272,842.743 296.184,846.832 
		298.981,849.629 303.07,845.541 307.159,849.629 309.957,846.832 305.867,842.743 309.957,838.654 	"/>
	<polygon fill="#FDFEFF" points="340.141,835.856 336.052,839.945 331.963,835.856 329.166,838.654 333.254,842.743 
		329.166,846.832 331.963,849.629 336.052,845.541 340.141,849.629 342.938,846.832 338.85,842.743 342.938,838.654 	"/>
	<polygon fill="#FDFEFF" points="373.123,835.856 369.034,839.945 364.945,835.856 362.148,838.654 366.236,842.743 
		362.148,846.832 364.945,849.629 369.034,845.541 373.123,849.629 375.921,846.832 371.832,842.743 375.921,838.654 	"/>
	<polygon fill="#FDFEFF" points="406.105,835.856 402.017,839.945 397.928,835.856 395.131,838.654 399.22,842.743 395.131,846.832 
		397.928,849.629 402.017,845.541 406.105,849.629 408.903,846.832 404.814,842.743 408.903,838.654 	"/>
	<polygon fill="#FDFEFF" points="441.886,838.654 439.088,835.856 434.999,839.945 430.91,835.856 428.113,838.654 432.201,842.743 
		428.113,846.832 430.91,849.629 434.999,845.541 439.088,849.629 441.886,846.832 437.797,842.743 	"/>
</g>
<circle opacity="0.4" fill="#544C61" enable-background="new    " cx="161.895" cy="6.746" r="6.746"/>
<circle opacity="0.4" fill="#544C61" enable-background="new    " cx="123.107" cy="6.746" r="6.746"/>
<circle opacity="0.4" fill="#544C61" enable-background="new    " cx="84.32" cy="6.746" r="6.746"/>
<circle opacity="0.4" fill="#544C61" enable-background="new    " cx="45.533" cy="6.746" r="6.746"/>
<circle opacity="0.4" fill="#544C61" enable-background="new    " cx="6.746" cy="6.746" r="6.746"/>
<circle opacity="0.4" fill="#544C61" enable-background="new    " cx="161.895" cy="40.475" r="6.746"/>
<circle opacity="0.4" fill="#544C61" enable-background="new    " cx="123.107" cy="40.475" r="6.746"/>
<circle opacity="0.4" fill="#544C61" enable-background="new    " cx="84.32" cy="40.475" r="6.746"/>
<circle opacity="0.4" fill="#544C61" enable-background="new    " cx="45.533" cy="40.475" r="6.746"/>
<circle opacity="0.4" fill="#544C61" enable-background="new    " cx="6.746" cy="40.475" r="6.746"/>
<circle opacity="0.4" fill="#544C61" enable-background="new    " cx="161.895" cy="74.202" r="6.746"/>
<circle opacity="0.4" fill="#544C61" enable-background="new    " cx="123.107" cy="74.202" r="6.746"/>
<circle opacity="0.4" fill="#544C61" enable-background="new    " cx="84.32" cy="74.202" r="6.746"/>
<circle opacity="0.4" fill="#544C61" enable-background="new    " cx="45.533" cy="74.202" r="6.746"/>
<circle opacity="0.4" fill="#544C61" enable-background="new    " cx="6.746" cy="74.202" r="6.746"/>
<circle opacity="0.4" fill="#544C61" enable-background="new    " cx="161.895" cy="107.931" r="6.746"/>
<circle opacity="0.4" fill="#544C61" enable-background="new    " cx="123.107" cy="107.931" r="6.746"/>
<circle opacity="0.4" fill="#544C61" enable-background="new    " cx="84.32" cy="107.931" r="6.746"/>
<circle opacity="0.4" fill="#544C61" enable-background="new    " cx="45.533" cy="107.931" r="6.746"/>
<circle opacity="0.4" fill="#544C61" enable-background="new    " cx="6.746" cy="107.931" r="6.746"/>
<g opacity="0.31">
	<path fill="#5297D1" d="M646.879,627.248c0.141-0.066,0.279-0.132,0.42-0.197l-2.354-5.046c-0.143,0.065-0.28,0.131-0.42,0.196
		L646.879,627.248z"/>
	<path fill="#5297D1" d="M647.974,626.738c0.144-0.063,0.284-0.123,0.425-0.188l-2.265-5.087c-0.142,0.063-0.284,0.122-0.425,0.188
		L647.974,626.738z"/>
	<path fill="#5297D1" d="M643.643,628.879c0.139-0.073,0.275-0.145,0.411-0.217l-2.614-4.916c-0.137,0.072-0.271,0.144-0.408,0.217
		L643.643,628.879z"/>
	<path fill="#5297D1" d="M645.791,627.773c0.139-0.068,0.276-0.142,0.416-0.207l-2.441-5.004c-0.14,0.065-0.275,0.138-0.416,0.204
		L645.791,627.773z"/>
	<path fill="#5297D1" d="M644.711,628.314c0.138-0.07,0.276-0.142,0.414-0.211l-2.527-4.962c-0.139,0.07-0.275,0.142-0.414,0.212
		L644.711,628.314z"/>
	<path fill="#5297D1" d="M651.314,625.338c0.145-0.056,0.291-0.109,0.435-0.165l-1.995-5.198c-0.145,0.057-0.29,0.109-0.434,0.165
		L651.314,625.338z"/>
	<path fill="#5297D1" d="M653.582,624.504c0.146-0.052,0.291-0.104,0.438-0.154l-1.813-5.266c-0.146,0.05-0.291,0.104-0.438,0.154
		L653.582,624.504z"/>
	<path fill="#5297D1" d="M649.08,626.254c0.143-0.062,0.283-0.124,0.426-0.185l-2.176-5.126c-0.143,0.061-0.284,0.123-0.426,0.185
		L649.08,626.254z"/>
	<path fill="#5297D1" d="M654.727,624.115c0.146-0.048,0.295-0.098,0.441-0.146l-1.722-5.296c-0.147,0.047-0.294,0.097-0.44,0.146
		L654.727,624.115z"/>
	<path fill="#5297D1" d="M642.586,629.462c0.135-0.075,0.27-0.151,0.404-0.227l-2.698-4.869c-0.136,0.075-0.271,0.149-0.405,0.227
		L642.586,629.462z"/>
	<path fill="#5297D1" d="M652.443,624.908c0.146-0.053,0.292-0.104,0.438-0.157l-1.904-5.231c-0.146,0.053-0.291,0.104-0.438,0.156
		L652.443,624.908z"/>
	<path fill="#5297D1" d="M635.484,634.036c0.124-0.092,0.249-0.186,0.374-0.274l-3.271-4.503c-0.126,0.091-0.25,0.185-0.375,0.273
		L635.484,634.036z"/>
	<path fill="#5297D1" d="M634.516,634.758c0.124-0.094,0.245-0.188,0.369-0.282l-3.35-4.443c-0.125,0.093-0.246,0.188-0.369,0.281
		L634.516,634.758z"/>
	<path fill="#5297D1" d="M633.561,635.495c0.12-0.096,0.244-0.189,0.365-0.284l-3.427-4.387c-0.122,0.095-0.245,0.188-0.366,0.284
		L633.561,635.495z"/>
	<path fill="#5297D1" d="M641.537,630.063c0.134-0.077,0.266-0.158,0.4-0.235l-2.784-4.821c-0.134,0.077-0.268,0.158-0.399,0.236
		L641.537,630.063z"/>
	<path fill="#5297D1" d="M632.619,636.252c0.12-0.098,0.241-0.193,0.361-0.291l-3.502-4.325c-0.121,0.099-0.242,0.193-0.361,0.291
		L632.619,636.252z"/>
	<path fill="#5297D1" d="M636.461,633.328c0.127-0.09,0.256-0.176,0.383-0.266l-3.191-4.561c-0.129,0.088-0.256,0.175-0.383,0.265
		L636.461,633.328z"/>
	<path fill="#5297D1" d="M637.453,632.64c0.129-0.087,0.256-0.174,0.385-0.261l-3.113-4.615c-0.128,0.087-0.256,0.176-0.384,0.263
		L637.453,632.64z"/>
	<path fill="#5297D1" d="M640.498,630.677c0.133-0.081,0.267-0.157,0.398-0.234l-2.866-4.772c-0.134,0.079-0.27,0.156-0.399,0.236
		L640.498,630.677z"/>
	<path fill="#5297D1" d="M639.474,631.315c0.132-0.082,0.265-0.164,0.396-0.245l-2.949-4.724c-0.132,0.082-0.264,0.163-0.396,0.246
		L639.474,631.315z"/>
	<path fill="#5297D1" d="M638.459,631.971c0.129-0.086,0.258-0.172,0.388-0.256l-3.032-4.669c-0.129,0.085-0.258,0.171-0.387,0.256
		L638.459,631.971z"/>
	<path fill="#5297D1" d="M650.193,625.788c0.145-0.06,0.287-0.118,0.43-0.176l-2.086-5.163c-0.143,0.058-0.285,0.117-0.43,0.176
		L650.193,625.788z"/>
	<path fill="#5297D1" d="M682.135,620.902c0.154,0.013,0.311,0.025,0.462,0.041l0.485-5.547c-0.154-0.016-0.309-0.028-0.462-0.041
		L682.135,620.902z"/>
	<path fill="#5297D1" d="M672.48,620.767c0.152-0.009,0.309-0.018,0.463-0.023l-0.291-5.563c-0.154,0.009-0.311,0.02-0.463,0.025
		L672.48,620.767z"/>
	<path fill="#5297D1" d="M674.895,620.676c0.154-0.004,0.311-0.004,0.465-0.006l-0.099-5.565c-0.153,0.002-0.31,0.003-0.464,0.006
		L674.895,620.676z"/>
	<path fill="#5297D1" d="M671.273,620.843c0.153-0.011,0.311-0.019,0.465-0.027l-0.391-5.557c-0.152,0.011-0.309,0.021-0.463,0.029
		L671.273,620.843z"/>
	<path fill="#5297D1" d="M670.07,620.943c0.152-0.016,0.309-0.028,0.463-0.041l-0.485-5.547c-0.153,0.013-0.308,0.025-0.462,0.041
		L670.07,620.943z"/>
	<path fill="#5297D1" d="M673.688,620.713c0.154-0.006,0.311-0.013,0.465-0.018l-0.193-5.565c-0.155,0.005-0.311,0.013-0.465,0.02
		L673.688,620.713z"/>
	<path fill="#5297D1" d="M679.725,620.741c0.154,0.008,0.311,0.017,0.463,0.023l0.293-5.562c-0.154-0.008-0.311-0.02-0.465-0.025
		L679.725,620.741z"/>
	<path fill="#5297D1" d="M655.875,623.744c0.148-0.046,0.297-0.088,0.445-0.133l-1.629-5.325c-0.147,0.045-0.297,0.087-0.443,0.133
		L655.875,623.744z"/>
	<path fill="#5297D1" d="M676.102,615.092v5.568c0.078,0,0.154-0.003,0.232-0.003s0.154,0.003,0.23,0.003v-5.568
		c-0.076-0.001-0.152-0.003-0.23-0.003S676.18,615.091,676.102,615.092z"/>
	<path fill="#5297D1" d="M677.311,620.67c0.154,0.002,0.311,0.002,0.463,0.006l0.1-5.565c-0.154-0.005-0.311-0.005-0.465-0.008
		L677.311,620.67z"/>
	<path fill="#5297D1" d="M678.518,620.695c0.154,0.005,0.311,0.012,0.466,0.018l0.192-5.563c-0.154-0.007-0.31-0.015-0.465-0.02
		L678.518,620.695z"/>
	<path fill="#5297D1" d="M680.93,620.813c0.154,0.013,0.312,0.021,0.463,0.029l0.391-5.555c-0.154-0.011-0.311-0.021-0.463-0.029
		L680.93,620.813z"/>
	<path fill="#5297D1" d="M659.364,622.765c0.148-0.038,0.301-0.071,0.45-0.108l-1.348-5.403c-0.148,0.037-0.301,0.072-0.449,0.11
		L659.364,622.765z"/>
	<path fill="#5297D1" d="M661.717,622.216c0.151-0.033,0.303-0.065,0.453-0.099l-1.157-5.447c-0.149,0.031-0.302,0.065-0.454,0.099
		L661.717,622.216z"/>
	<path fill="#5297D1" d="M660.537,622.479c0.15-0.034,0.303-0.068,0.453-0.104l-1.253-5.427c-0.151,0.035-0.302,0.066-0.452,0.104
		L660.537,622.479z"/>
	<path fill="#5297D1" d="M658.196,623.073c0.147-0.04,0.298-0.081,0.448-0.121l-1.441-5.379c-0.149,0.039-0.299,0.081-0.447,0.121
		L658.196,623.073z"/>
	<path fill="#5297D1" d="M657.033,623.399c0.146-0.044,0.297-0.091,0.445-0.133l-1.535-5.354c-0.148,0.043-0.297,0.089-0.445,0.132
		L657.033,623.399z"/>
	<path fill="#5297D1" d="M667.669,621.198c0.153-0.021,0.308-0.034,0.461-0.055l-0.679-5.525c-0.153,0.019-0.311,0.034-0.461,0.054
		L667.669,621.198z"/>
	<path fill="#5297D1" d="M662.9,621.971c0.148-0.028,0.303-0.059,0.455-0.088l-1.063-5.467c-0.151,0.029-0.305,0.058-0.455,0.088
		L662.9,621.971z"/>
	<path fill="#5297D1" d="M665.277,621.544c0.151-0.024,0.305-0.052,0.459-0.076l-0.872-5.5c-0.153,0.023-0.308,0.052-0.458,0.076
		L665.277,621.544z"/>
	<path fill="#5297D1" d="M666.473,621.363c0.152-0.022,0.308-0.044,0.459-0.064l-0.773-5.515c-0.152,0.021-0.307,0.042-0.459,0.063
		L666.473,621.363z"/>
	<path fill="#5297D1" d="M664.086,621.742c0.152-0.027,0.307-0.05,0.458-0.076l-0.968-5.484c-0.151,0.026-0.305,0.051-0.457,0.076
		L664.086,621.742z"/>
	<path fill="#5297D1" d="M668.869,621.061c0.154-0.016,0.307-0.033,0.461-0.051l-0.582-5.539c-0.154,0.018-0.307,0.035-0.461,0.053
		L668.869,621.061z"/>
	<path fill="#5297D1" d="M610.439,668.7c0.047-0.147,0.096-0.294,0.143-0.441l-5.296-1.721c-0.048,0.146-0.097,0.294-0.144,0.44
		L610.439,668.7z"/>
	<path fill="#5297D1" d="M610.816,667.553c0.05-0.146,0.104-0.292,0.152-0.438l-5.266-1.813c-0.051,0.146-0.104,0.291-0.154,0.438
		L610.816,667.553z"/>
	<path fill="#5297D1" d="M609.419,672.177c0.04-0.147,0.081-0.298,0.122-0.445l-5.38-1.441c-0.04,0.148-0.081,0.298-0.121,0.448
		L609.419,672.177z"/>
	<path fill="#5297D1" d="M609.735,671.012c0.042-0.147,0.087-0.297,0.131-0.443l-5.354-1.535c-0.043,0.146-0.089,0.296-0.131,0.443
		L609.735,671.012z"/>
	<path fill="#5297D1" d="M610.079,669.854c0.044-0.146,0.087-0.298,0.132-0.443l-5.325-1.628c-0.046,0.146-0.088,0.297-0.133,0.442
		L610.079,669.854z"/>
	<path fill="#5297D1" d="M611.219,666.413c0.053-0.146,0.104-0.291,0.157-0.438l-5.233-1.902c-0.054,0.145-0.104,0.291-0.155,0.437
		L611.219,666.413z"/>
	<path fill="#5297D1" d="M613.52,660.831c0.063-0.14,0.13-0.28,0.195-0.42l-5.046-2.354c-0.065,0.142-0.132,0.28-0.196,0.422
		L613.52,660.831z"/>
	<path fill="#5297D1" d="M611.641,665.281c0.057-0.146,0.109-0.289,0.165-0.436l-5.198-1.995c-0.057,0.146-0.108,0.289-0.166,0.436
		L611.641,665.281z"/>
	<path fill="#5297D1" d="M613.02,661.932c0.063-0.142,0.123-0.282,0.188-0.426l-5.086-2.265c-0.064,0.142-0.123,0.284-0.188,0.425
		L613.02,661.932z"/>
	<path fill="#5297D1" d="M612.079,664.156c0.058-0.146,0.117-0.286,0.176-0.432l-5.163-2.086c-0.059,0.146-0.118,0.286-0.176,0.432
		L612.079,664.156z"/>
	<path fill="#5297D1" d="M612.536,663.038c0.061-0.144,0.124-0.283,0.185-0.426l-5.125-2.178c-0.062,0.145-0.125,0.283-0.186,0.428
		L612.536,663.038z"/>
	<path fill="#5297D1" d="M608.842,674.523c0.034-0.151,0.068-0.305,0.104-0.453l-5.427-1.253c-0.037,0.149-0.069,0.302-0.104,0.452
		L608.842,674.523z"/>
	<path fill="#5297D1" d="M607.613,681.662c0.018-0.153,0.033-0.31,0.053-0.461l-5.527-0.678c-0.02,0.15-0.035,0.307-0.054,0.461
		L607.613,681.662z"/>
	<path fill="#5297D1" d="M607.766,680.465c0.021-0.154,0.043-0.307,0.064-0.46l-5.516-0.773c-0.021,0.151-0.043,0.307-0.063,0.46
		L607.766,680.465z"/>
	<path fill="#5297D1" d="M607.369,684.066c0.014-0.154,0.027-0.311,0.041-0.465l-5.547-0.483c-0.014,0.153-0.027,0.309-0.041,0.463
		L607.369,684.066z"/>
	<path fill="#5297D1" d="M607.936,679.269c0.023-0.151,0.053-0.305,0.076-0.458l-5.501-0.869c-0.022,0.15-0.052,0.305-0.075,0.458
		L607.936,679.269z"/>
	<path fill="#5297D1" d="M607.477,682.863c0.018-0.154,0.035-0.31,0.054-0.462l-5.538-0.582c-0.019,0.152-0.037,0.308-0.055,0.461
		L607.477,682.863z"/>
	<path fill="#5297D1" d="M609.121,673.348c0.037-0.148,0.073-0.301,0.111-0.448l-5.404-1.35c-0.037,0.149-0.072,0.302-0.11,0.451
		L609.121,673.348z"/>
	<path fill="#5297D1" d="M614.033,659.739c0.068-0.142,0.139-0.277,0.207-0.416l-5.004-2.44c-0.068,0.139-0.142,0.276-0.207,0.415
		L614.033,659.739z"/>
	<path fill="#5297D1" d="M608.133,678.076c0.026-0.151,0.05-0.305,0.077-0.457l-5.485-0.967c-0.025,0.149-0.05,0.305-0.074,0.457
		L608.133,678.076z"/>
	<path fill="#5297D1" d="M608.584,675.703c0.031-0.151,0.064-0.302,0.099-0.453l-5.445-1.158c-0.033,0.151-0.067,0.302-0.101,0.453
		L608.584,675.703z"/>
	<path fill="#5297D1" d="M608.35,676.889c0.029-0.15,0.06-0.305,0.088-0.456l-5.467-1.063c-0.027,0.151-0.059,0.304-0.088,0.456
		L608.35,676.889z"/>
	<path fill="#5297D1" d="M628.988,639.436c0.111-0.104,0.227-0.212,0.34-0.314l-3.796-4.07c-0.113,0.104-0.229,0.21-0.339,0.315
		L628.988,639.436z"/>
	<path fill="#5297D1" d="M623.973,644.657c0.104-0.117,0.205-0.231,0.309-0.351l-4.201-3.649c-0.104,0.116-0.205,0.229-0.309,0.349
		L623.973,644.657z"/>
	<path fill="#5297D1" d="M624.773,643.753c0.103-0.115,0.203-0.231,0.308-0.347l-4.137-3.727c-0.104,0.114-0.204,0.232-0.31,0.349
		L624.773,643.753z"/>
	<path fill="#5297D1" d="M622.428,646.514c0.1-0.121,0.193-0.242,0.291-0.359l-4.324-3.503c-0.098,0.118-0.192,0.239-0.291,0.359
		L622.428,646.514z"/>
	<path fill="#5297D1" d="M623.193,645.579c0.099-0.119,0.197-0.236,0.299-0.354l-4.264-3.575c-0.102,0.116-0.2,0.233-0.301,0.354
		L623.193,645.579z"/>
	<path fill="#5297D1" d="M625.586,642.861c0.105-0.114,0.211-0.229,0.316-0.34l-4.07-3.798c-0.106,0.112-0.211,0.228-0.316,0.342
		L625.586,642.861z"/>
	<path fill="#5297D1" d="M631.691,637.025c0.119-0.102,0.234-0.2,0.354-0.302l-3.577-4.264c-0.119,0.1-0.235,0.2-0.354,0.3
		L631.691,637.025z"/>
	<path fill="#5297D1" d="M630.775,637.813c0.117-0.103,0.23-0.204,0.35-0.307l-3.652-4.201c-0.117,0.104-0.23,0.205-0.348,0.309
		L630.775,637.813z"/>
	<path fill="#5297D1" d="M629.873,638.613c0.115-0.104,0.232-0.205,0.348-0.31l-3.725-4.136c-0.115,0.104-0.232,0.203-0.348,0.308
		L629.873,638.613z"/>
	<path fill="#5297D1" d="M607.281,685.271c0.01-0.154,0.018-0.311,0.029-0.465l-5.557-0.389c-0.012,0.154-0.02,0.311-0.03,0.463
		L607.281,685.271z"/>
	<path fill="#5297D1" d="M628.116,640.27c0.11-0.105,0.22-0.217,0.332-0.322l-3.866-4.004c-0.111,0.105-0.221,0.217-0.332,0.322
		L628.116,640.27z"/>
	<path fill="#5297D1" d="M621.678,647.459c0.096-0.122,0.188-0.245,0.284-0.367l-4.387-3.427c-0.095,0.121-0.188,0.245-0.283,0.367
		L621.678,647.459z"/>
	<path fill="#5297D1" d="M615.13,657.586c0.071-0.136,0.144-0.273,0.217-0.41l-4.916-2.611c-0.073,0.136-0.145,0.271-0.217,0.408
		L615.13,657.586z"/>
	<path fill="#5297D1" d="M616.293,655.47c0.076-0.134,0.157-0.266,0.235-0.397l-4.821-2.784c-0.078,0.134-0.159,0.266-0.236,0.397
		L616.293,655.47z"/>
	<path fill="#5297D1" d="M617.537,653.4c0.082-0.134,0.163-0.266,0.246-0.396l-4.721-2.95c-0.084,0.133-0.166,0.264-0.246,0.396
		L617.537,653.4z"/>
	<path fill="#5297D1" d="M616.907,654.43c0.079-0.132,0.155-0.267,0.234-0.396l-4.771-2.867c-0.08,0.132-0.156,0.267-0.235,0.396
		L616.907,654.43z"/>
	<path fill="#5297D1" d="M615.703,656.523c0.074-0.137,0.15-0.271,0.227-0.404l-4.869-2.699c-0.074,0.135-0.15,0.271-0.227,0.404
		L615.703,656.523z"/>
	<path fill="#5297D1" d="M614.572,658.658c0.067-0.139,0.139-0.276,0.21-0.414l-4.962-2.528c-0.07,0.138-0.142,0.276-0.21,0.414
		L614.572,658.658z"/>
	<path fill="#5297D1" d="M618.847,651.371c0.086-0.129,0.173-0.257,0.261-0.385l-4.613-3.112c-0.088,0.128-0.175,0.255-0.262,0.384
		L618.847,651.371z"/>
	<path fill="#5297D1" d="M618.182,652.379c0.084-0.13,0.172-0.258,0.256-0.388l-4.668-3.031c-0.086,0.129-0.172,0.258-0.256,0.388
		L618.182,652.379z"/>
	<path fill="#5297D1" d="M619.53,650.376c0.089-0.127,0.175-0.255,0.265-0.382l-4.56-3.192c-0.089,0.126-0.177,0.255-0.267,0.381
		L619.53,650.376z"/>
	<path fill="#5297D1" d="M620.229,649.392c0.093-0.126,0.184-0.251,0.273-0.375L616,645.744c-0.092,0.125-0.184,0.25-0.273,0.375
		L620.229,649.392z"/>
	<path fill="#5297D1" d="M620.943,648.417c0.092-0.124,0.188-0.245,0.28-0.368l-4.443-3.35c-0.095,0.123-0.189,0.244-0.282,0.368
		L620.943,648.417z"/>
	<path fill="#5297D1" d="M626.413,641.98c0.106-0.111,0.216-0.223,0.323-0.332l-4.004-3.866c-0.107,0.109-0.219,0.221-0.324,0.332
		L626.413,641.98z"/>
	<path fill="#5297D1" d="M739.462,661.506c0.063,0.144,0.124,0.284,0.187,0.426l5.089-2.266c-0.063-0.141-0.122-0.283-0.188-0.425
		L739.462,661.506z"/>
	<path fill="#5297D1" d="M740.413,663.727c0.059,0.146,0.118,0.286,0.176,0.432l5.163-2.086c-0.059-0.146-0.117-0.286-0.176-0.432
		L740.413,663.727z"/>
	<path fill="#5297D1" d="M739.947,662.612c0.061,0.143,0.123,0.281,0.184,0.427l5.127-2.177c-0.061-0.145-0.124-0.283-0.186-0.428
		L739.947,662.612z"/>
	<path fill="#5297D1" d="M738.428,659.323c0.068,0.139,0.139,0.274,0.207,0.416l5.004-2.441c-0.066-0.139-0.139-0.274-0.207-0.415
		L738.428,659.323z"/>
	<path fill="#5297D1" d="M738.953,660.411c0.066,0.14,0.131,0.28,0.195,0.42l5.047-2.354c-0.064-0.141-0.131-0.279-0.196-0.421
		L738.953,660.411z"/>
	<path fill="#5297D1" d="M737.886,658.244c0.071,0.138,0.142,0.275,0.21,0.414l4.961-2.528c-0.067-0.138-0.139-0.276-0.209-0.414
		L737.886,658.244z"/>
	<path fill="#5297D1" d="M742.086,668.259c0.048,0.147,0.096,0.294,0.143,0.441l5.299-1.723c-0.049-0.146-0.098-0.294-0.146-0.439
		L742.086,668.259z"/>
	<path fill="#5297D1" d="M740.861,664.848c0.057,0.146,0.109,0.289,0.166,0.436l5.199-1.995c-0.058-0.146-0.109-0.29-0.166-0.435
		L740.861,664.848z"/>
	<path fill="#5297D1" d="M742.457,669.408c0.045,0.146,0.088,0.297,0.133,0.445l5.325-1.631c-0.046-0.146-0.087-0.297-0.133-0.442
		L742.457,669.408z"/>
	<path fill="#5297D1" d="M741.697,667.115c0.051,0.146,0.104,0.291,0.154,0.438l5.266-1.813c-0.05-0.146-0.104-0.291-0.154-0.438
		L741.697,667.115z"/>
	<path fill="#5297D1" d="M741.293,665.977c0.053,0.146,0.104,0.291,0.156,0.438l5.231-1.905c-0.053-0.146-0.104-0.292-0.155-0.437
		L741.293,665.977z"/>
	<path fill="#5297D1" d="M737.322,657.176c0.072,0.139,0.144,0.274,0.217,0.411l4.915-2.614c-0.072-0.137-0.144-0.272-0.216-0.408
		L737.322,657.176z"/>
	<path fill="#5297D1" d="M732.873,649.994c0.089,0.127,0.176,0.255,0.265,0.382l4.562-3.193c-0.089-0.126-0.178-0.255-0.267-0.381
		L732.873,649.994z"/>
	<path fill="#5297D1" d="M733.561,650.986c0.088,0.128,0.177,0.256,0.264,0.385l4.613-3.113c-0.086-0.129-0.174-0.256-0.262-0.384
		L733.561,650.986z"/>
	<path fill="#5297D1" d="M734.23,651.992c0.084,0.129,0.172,0.257,0.256,0.387l4.668-3.031c-0.084-0.13-0.17-0.259-0.256-0.388
		L734.23,651.992z"/>
	<path fill="#5297D1" d="M732.165,649.017c0.091,0.125,0.183,0.249,0.272,0.375l4.504-3.271c-0.092-0.125-0.184-0.25-0.273-0.375
		L732.165,649.017z"/>
	<path fill="#5297D1" d="M731.442,648.049c0.094,0.123,0.188,0.244,0.28,0.368l4.445-3.35c-0.092-0.124-0.188-0.245-0.281-0.368
		L731.442,648.049z"/>
	<path fill="#5297D1" d="M734.885,653.007c0.082,0.13,0.164,0.263,0.246,0.396l4.721-2.95c-0.082-0.132-0.162-0.264-0.246-0.396
		L734.885,653.007z"/>
	<path fill="#5297D1" d="M736.139,655.07c0.079,0.134,0.159,0.266,0.236,0.397l4.822-2.784c-0.078-0.134-0.158-0.266-0.236-0.397
		L736.139,655.07z"/>
	<path fill="#5297D1" d="M742.802,670.566c0.043,0.146,0.089,0.296,0.131,0.443l5.354-1.535c-0.042-0.147-0.088-0.297-0.131-0.443
		L742.802,670.566z"/>
	<path fill="#5297D1" d="M736.738,656.119c0.076,0.135,0.15,0.27,0.227,0.404l4.869-2.699c-0.074-0.135-0.15-0.271-0.227-0.404
		L736.738,656.119z"/>
	<path fill="#5297D1" d="M735.523,654.031c0.08,0.132,0.156,0.267,0.235,0.397l4.772-2.866c-0.08-0.134-0.156-0.269-0.236-0.398
		L735.523,654.031z"/>
	<path fill="#5297D1" d="M745.14,682.401c0.019,0.152,0.036,0.308,0.054,0.462l5.537-0.583c-0.017-0.153-0.033-0.309-0.053-0.461
		L745.14,682.401z"/>
	<path fill="#5297D1" d="M725.412,641.117l3.936-3.938c-0.107-0.108-0.219-0.22-0.328-0.327l-3.936,3.937
		C725.193,640.898,725.303,641.008,725.412,641.117z"/>
	<path fill="#5297D1" d="M751.093,688.33l-5.565,0.097c0.003,0.154,0.004,0.312,0.006,0.464l5.565-0.097
		C751.097,688.639,751.096,688.484,751.093,688.33z"/>
	<path fill="#5297D1" d="M745.488,687.22c0.006,0.154,0.013,0.311,0.018,0.464l5.564-0.192c-0.006-0.155-0.014-0.312-0.02-0.464
		L745.488,687.22z"/>
	<path fill="#5297D1" d="M745.436,686.013c0.01,0.155,0.019,0.311,0.023,0.464l5.563-0.292c-0.008-0.152-0.018-0.309-0.024-0.463
		L745.436,686.013z"/>
	<path fill="#5297D1" d="M745.357,684.808c0.012,0.154,0.02,0.311,0.027,0.464l5.557-0.39c-0.012-0.153-0.02-0.309-0.029-0.463
		L745.357,684.808z"/>
	<path fill="#5297D1" d="M627.256,641.117c0.109-0.109,0.219-0.219,0.328-0.328l-3.936-3.936c-0.109,0.106-0.221,0.218-0.328,0.326
		L627.256,641.117z"/>
	<path fill="#5297D1" d="M725.412,738.616c-0.109,0.108-0.219,0.22-0.328,0.328l3.936,3.937c0.109-0.107,0.221-0.219,0.328-0.329
		L725.412,738.616z"/>
	<path fill="#5297D1" d="M745.543,689.866c0,0.078-0.002,0.155-0.002,0.23h5.568c0-0.075,0.002-0.152,0.002-0.23
		c0-0.077-0.002-0.154-0.002-0.231h-5.568C745.541,689.712,745.543,689.789,745.543,689.866z"/>
	<path fill="#5297D1" d="M743.127,671.729c0.041,0.149,0.082,0.3,0.122,0.447l5.379-1.438c-0.04-0.15-0.081-0.3-0.122-0.448
		L743.127,671.729z"/>
	<path fill="#5297D1" d="M607.125,689.866c0-0.077,0.002-0.154,0.002-0.231h-5.568c0,0.077-0.003,0.154-0.003,0.231
		c0,0.078,0.003,0.155,0.003,0.23h5.568C607.127,690.021,607.125,689.944,607.125,689.866z"/>
	<path fill="#5297D1" d="M627.256,738.616l-3.936,3.936c0.107,0.11,0.219,0.22,0.328,0.328l3.936-3.936
		C627.475,738.836,627.365,738.727,627.256,738.616z"/>
	<path fill="#5297D1" d="M743.984,675.25c0.033,0.151,0.066,0.302,0.1,0.453l5.447-1.158c-0.031-0.151-0.066-0.302-0.101-0.453
		L743.984,675.25z"/>
	<path fill="#5297D1" d="M744.23,676.433c0.027,0.151,0.059,0.306,0.088,0.456l5.467-1.063c-0.029-0.152-0.061-0.305-0.088-0.456
		L744.23,676.433z"/>
	<path fill="#5297D1" d="M743.436,672.896c0.038,0.148,0.074,0.302,0.11,0.449l5.403-1.347c-0.036-0.15-0.072-0.302-0.109-0.451
		L743.436,672.896z"/>
	<path fill="#5297D1" d="M743.723,674.07c0.035,0.148,0.069,0.302,0.104,0.453l5.427-1.255c-0.034-0.149-0.066-0.302-0.104-0.45
		L743.723,674.07z"/>
	<path fill="#5297D1" d="M744.458,677.619c0.028,0.152,0.05,0.306,0.077,0.458l5.484-0.968c-0.027-0.152-0.051-0.308-0.076-0.457
		L744.458,677.619z"/>
	<path fill="#5297D1" d="M745.002,681.201c0.02,0.151,0.035,0.308,0.053,0.461l5.527-0.678c-0.018-0.154-0.033-0.311-0.053-0.461
		L745.002,681.201z"/>
	<path fill="#5297D1" d="M745.257,683.604c0.015,0.154,0.028,0.311,0.042,0.465l5.547-0.485c-0.014-0.154-0.025-0.309-0.041-0.463
		L745.257,683.604z"/>
	<path fill="#5297D1" d="M730.706,647.092c0.096,0.122,0.188,0.245,0.284,0.367l4.387-3.427c-0.096-0.122-0.189-0.246-0.285-0.367
		L730.706,647.092z"/>
	<path fill="#5297D1" d="M744.838,680.005c0.021,0.153,0.043,0.306,0.064,0.46l5.515-0.773c-0.021-0.153-0.043-0.309-0.065-0.46
		L744.838,680.005z"/>
	<path fill="#5297D1" d="M744.656,678.811c0.022,0.153,0.053,0.307,0.076,0.458l5.5-0.869c-0.023-0.153-0.053-0.308-0.076-0.458
		L744.656,678.811z"/>
	<path fill="#5297D1" d="M685.736,621.299c0.151,0.021,0.307,0.042,0.459,0.064l0.773-5.517c-0.15-0.021-0.306-0.044-0.459-0.063
		L685.736,621.299z"/>
	<path fill="#5297D1" d="M699.787,624.751c0.146,0.053,0.291,0.104,0.437,0.157l1.905-5.233c-0.145-0.053-0.291-0.104-0.438-0.157
		L699.787,624.751z"/>
	<path fill="#5297D1" d="M700.92,625.173c0.145,0.056,0.289,0.109,0.434,0.165l1.995-5.198c-0.145-0.056-0.29-0.108-0.435-0.165
		L700.92,625.173z"/>
	<path fill="#5297D1" d="M702.045,625.612c0.143,0.058,0.285,0.116,0.429,0.176l2.087-5.163c-0.144-0.059-0.287-0.118-0.43-0.176
		L702.045,625.612z"/>
	<path fill="#5297D1" d="M698.648,624.35c0.146,0.052,0.291,0.104,0.438,0.154l1.813-5.266c-0.146-0.053-0.291-0.104-0.438-0.154
		L698.648,624.35z"/>
	<path fill="#5297D1" d="M697.5,623.972c0.146,0.048,0.295,0.098,0.441,0.146l1.722-5.296c-0.147-0.05-0.294-0.099-0.441-0.146
		L697.5,623.972z"/>
	<path fill="#5297D1" d="M704.27,626.553c0.143,0.063,0.284,0.122,0.427,0.188l2.265-5.087c-0.141-0.063-0.283-0.123-0.424-0.188
		L704.27,626.553z"/>
	<path fill="#5297D1" d="M707.543,628.104c0.138,0.07,0.276,0.142,0.414,0.212l2.527-4.962c-0.14-0.069-0.275-0.141-0.414-0.211
		L707.543,628.104z"/>
	<path fill="#5297D1" d="M706.461,627.566c0.141,0.065,0.277,0.139,0.416,0.207l2.441-5.007c-0.141-0.066-0.277-0.139-0.416-0.206
		L706.461,627.566z"/>
	<path fill="#5297D1" d="M703.162,626.069c0.143,0.061,0.284,0.123,0.426,0.185l2.176-5.126c-0.143-0.062-0.283-0.124-0.426-0.185
		L703.162,626.069z"/>
	<path fill="#5297D1" d="M705.369,627.051c0.141,0.065,0.28,0.131,0.42,0.197l2.354-5.047c-0.14-0.065-0.277-0.131-0.42-0.196
		L705.369,627.051z"/>
	<path fill="#5297D1" d="M696.348,623.611c0.148,0.045,0.297,0.087,0.444,0.133l1.628-5.326c-0.146-0.045-0.296-0.087-0.443-0.132
		L696.348,623.611z"/>
	<path fill="#5297D1" d="M686.933,621.468c0.153,0.024,0.307,0.052,0.458,0.076l0.871-5.5c-0.151-0.024-0.305-0.053-0.458-0.076
		L686.933,621.468z"/>
	<path fill="#5297D1" d="M689.313,621.883c0.152,0.029,0.307,0.06,0.455,0.088l1.063-5.467c-0.151-0.03-0.303-0.059-0.455-0.088
		L689.313,621.883z"/>
	<path fill="#5297D1" d="M695.189,623.269c0.146,0.042,0.297,0.087,0.443,0.133l1.535-5.354c-0.146-0.044-0.297-0.089-0.445-0.132
		L695.189,623.269z"/>
	<path fill="#5297D1" d="M708.615,628.662c0.136,0.072,0.271,0.144,0.408,0.217l2.613-4.916c-0.137-0.073-0.271-0.145-0.408-0.217
		L708.615,628.662z"/>
	<path fill="#5297D1" d="M683.338,621.01c0.154,0.018,0.309,0.035,0.461,0.051l0.582-5.536c-0.154-0.019-0.307-0.036-0.461-0.054
		L683.338,621.01z"/>
	<path fill="#5297D1" d="M684.538,621.146c0.153,0.019,0.308,0.032,0.461,0.053l0.679-5.527c-0.151-0.019-0.307-0.034-0.461-0.053
		L684.538,621.146z"/>
	<path fill="#5297D1" d="M688.124,621.666c0.152,0.026,0.306,0.049,0.458,0.076l0.967-5.484c-0.152-0.025-0.306-0.05-0.457-0.076
		L688.124,621.666z"/>
	<path fill="#5297D1" d="M694.023,622.952c0.148,0.039,0.299,0.081,0.445,0.121l1.442-5.379c-0.149-0.041-0.299-0.082-0.448-0.121
		L694.023,622.952z"/>
	<path fill="#5297D1" d="M692.854,622.654c0.149,0.037,0.303,0.07,0.45,0.108l1.349-5.401c-0.149-0.038-0.303-0.073-0.45-0.11
		L692.854,622.654z"/>
	<path fill="#5297D1" d="M690.498,622.117c0.15,0.031,0.302,0.063,0.453,0.099l1.158-5.447c-0.152-0.031-0.305-0.065-0.454-0.099
		L690.498,622.117z"/>
	<path fill="#5297D1" d="M691.678,622.374c0.15,0.034,0.303,0.068,0.452,0.104l1.253-5.429c-0.15-0.035-0.301-0.066-0.452-0.104
		L691.678,622.374z"/>
	<path fill="#5297D1" d="M725.932,641.648c0.107,0.109,0.217,0.221,0.324,0.332l4.003-3.866c-0.104-0.111-0.216-0.223-0.323-0.332
		L725.932,641.648z"/>
	<path fill="#5297D1" d="M724.221,639.945c0.11,0.105,0.223,0.217,0.332,0.322l3.865-4.004c-0.11-0.105-0.221-0.217-0.332-0.322
		L724.221,639.945z"/>
	<path fill="#5297D1" d="M723.34,639.119c0.113,0.104,0.229,0.21,0.34,0.314l3.797-4.069c-0.112-0.105-0.228-0.211-0.341-0.315
		L723.34,639.119z"/>
	<path fill="#5297D1" d="M721.543,637.506c0.117,0.103,0.232,0.204,0.35,0.307l3.65-4.199c-0.115-0.104-0.23-0.206-0.348-0.309
		L721.543,637.506z"/>
	<path fill="#5297D1" d="M722.447,638.306c0.115,0.104,0.23,0.204,0.348,0.31l3.725-4.136c-0.113-0.104-0.23-0.205-0.348-0.311
		L722.447,638.306z"/>
	<path fill="#5297D1" d="M709.678,629.235c0.135,0.073,0.271,0.149,0.404,0.228l2.699-4.87c-0.135-0.075-0.271-0.149-0.404-0.227
		L709.678,629.235z"/>
	<path fill="#5297D1" d="M720.621,636.726c0.119,0.102,0.236,0.2,0.354,0.302l3.577-4.266c-0.116-0.1-0.233-0.198-0.354-0.3
		L720.621,636.726z"/>
	<path fill="#5297D1" d="M728.389,644.309c0.104,0.117,0.205,0.231,0.309,0.351l4.199-3.651c-0.102-0.117-0.205-0.23-0.307-0.349
		L728.389,644.309z"/>
	<path fill="#5297D1" d="M726.766,642.521c0.105,0.11,0.211,0.226,0.316,0.34l4.07-3.796c-0.105-0.114-0.211-0.229-0.316-0.342
		L726.766,642.521z"/>
	<path fill="#5297D1" d="M729.176,645.225c0.102,0.118,0.2,0.235,0.299,0.354l4.266-3.577c-0.1-0.119-0.199-0.237-0.3-0.354
		L729.176,645.225z"/>
	<path fill="#5297D1" d="M727.588,643.406c0.104,0.112,0.204,0.229,0.307,0.347l4.139-3.725c-0.104-0.114-0.204-0.232-0.311-0.349
		L727.588,643.406z"/>
	<path fill="#5297D1" d="M729.949,646.152c0.097,0.119,0.191,0.238,0.29,0.359l4.325-3.503c-0.098-0.12-0.193-0.241-0.291-0.359
		L729.949,646.152z"/>
	<path fill="#5297D1" d="M712.801,631.07c0.131,0.081,0.264,0.163,0.396,0.245l2.948-4.723c-0.131-0.083-0.263-0.164-0.394-0.246
		L712.801,631.07z"/>
	<path fill="#5297D1" d="M713.822,631.715c0.129,0.084,0.258,0.171,0.387,0.256l3.032-4.669c-0.13-0.085-0.258-0.172-0.388-0.256
		L713.822,631.715z"/>
	<path fill="#5297D1" d="M710.73,629.825c0.135,0.077,0.267,0.158,0.398,0.234l2.783-4.819c-0.133-0.078-0.268-0.159-0.399-0.236
		L710.73,629.825z"/>
	<path fill="#5297D1" d="M714.83,632.379c0.129,0.087,0.256,0.174,0.384,0.261l3.112-4.613c-0.127-0.087-0.255-0.176-0.383-0.263
		L714.83,632.379z"/>
	<path fill="#5297D1" d="M711.771,630.44c0.133,0.077,0.267,0.153,0.397,0.234l2.867-4.771c-0.133-0.08-0.269-0.157-0.399-0.236
		L711.771,630.44z"/>
	<path fill="#5297D1" d="M717.783,634.476c0.124,0.095,0.245,0.188,0.369,0.282l3.35-4.445c-0.123-0.094-0.244-0.188-0.368-0.28
		L717.783,634.476z"/>
	<path fill="#5297D1" d="M718.742,635.211c0.121,0.095,0.245,0.188,0.366,0.284l3.427-4.387c-0.121-0.098-0.244-0.189-0.367-0.284
		L718.742,635.211z"/>
	<path fill="#5297D1" d="M719.688,635.961c0.12,0.098,0.241,0.193,0.361,0.291l3.502-4.325c-0.119-0.098-0.24-0.192-0.361-0.291
		L719.688,635.961z"/>
	<path fill="#5297D1" d="M716.811,633.762c0.125,0.092,0.25,0.185,0.375,0.274l3.271-4.504c-0.125-0.091-0.249-0.185-0.374-0.273
		L716.811,633.762z"/>
	<path fill="#5297D1" d="M715.824,633.063c0.127,0.091,0.256,0.177,0.382,0.267l3.192-4.562c-0.125-0.09-0.254-0.177-0.381-0.265
		L715.824,633.063z"/>
	<path fill="#5297D1" d="M723.68,740.299c-0.111,0.105-0.227,0.211-0.34,0.315l3.796,4.069c0.113-0.104,0.229-0.211,0.341-0.314
		L723.68,740.299z"/>
	<path fill="#5297D1" d="M710.082,750.271c-0.135,0.073-0.27,0.149-0.404,0.227l2.698,4.869c0.136-0.075,0.271-0.151,0.405-0.229
		L710.082,750.271z"/>
	<path fill="#5297D1" d="M707.957,751.419c-0.138,0.07-0.276,0.14-0.414,0.21l2.527,4.961c0.139-0.07,0.274-0.139,0.414-0.21
		L707.957,751.419z"/>
	<path fill="#5297D1" d="M709.023,750.854c-0.137,0.073-0.272,0.146-0.408,0.219l2.613,4.916c0.137-0.072,0.271-0.146,0.408-0.219
		L709.023,750.854z"/>
	<path fill="#5297D1" d="M711.131,749.672c-0.134,0.078-0.266,0.159-0.4,0.236l2.784,4.82c0.134-0.076,0.269-0.157,0.399-0.234
		L711.131,749.672z"/>
	<path fill="#5297D1" d="M712.17,749.057c-0.133,0.081-0.267,0.157-0.398,0.237l2.866,4.771c0.134-0.079,0.269-0.156,0.399-0.236
		L712.17,749.057z"/>
	<path fill="#5297D1" d="M704.694,752.995c-0.143,0.063-0.284,0.124-0.425,0.187l2.266,5.086c0.141-0.063,0.283-0.12,0.424-0.186
		L704.694,752.995z"/>
	<path fill="#5297D1" d="M703.588,753.479c-0.142,0.063-0.283,0.125-0.426,0.187l2.176,5.126c0.143-0.063,0.283-0.123,0.426-0.186
		L703.588,753.479z"/>
	<path fill="#5297D1" d="M706.877,751.96c-0.139,0.068-0.275,0.14-0.416,0.207l2.441,5.005c0.139-0.068,0.275-0.139,0.416-0.207
		L706.877,751.96z"/>
	<path fill="#5297D1" d="M702.474,753.945c-0.144,0.059-0.286,0.117-0.429,0.176l2.086,5.163c0.143-0.058,0.286-0.117,0.43-0.176
		L702.474,753.945z"/>
	<path fill="#5297D1" d="M705.789,752.485c-0.141,0.064-0.279,0.132-0.42,0.195l2.354,5.047c0.142-0.064,0.28-0.132,0.42-0.195
		L705.789,752.485z"/>
	<path fill="#5297D1" d="M713.194,748.418c-0.132,0.082-0.265,0.164-0.396,0.246l2.949,4.721c0.132-0.082,0.264-0.164,0.396-0.246
		L713.194,748.418z"/>
	<path fill="#5297D1" d="M701.354,754.396c-0.145,0.056-0.289,0.107-0.434,0.163l1.994,5.198c0.145-0.055,0.29-0.107,0.435-0.165
		L701.354,754.396z"/>
	<path fill="#5297D1" d="M720.049,743.481c-0.12,0.098-0.241,0.192-0.361,0.291l3.502,4.323c0.121-0.097,0.242-0.191,0.361-0.291
		L720.049,743.481z"/>
	<path fill="#5297D1" d="M719.107,744.238c-0.12,0.096-0.244,0.188-0.365,0.283l3.426,4.388c0.123-0.095,0.246-0.188,0.367-0.284
		L719.107,744.238z"/>
	<path fill="#5297D1" d="M720.977,742.708c-0.119,0.1-0.234,0.2-0.354,0.3l3.578,4.264c0.119-0.1,0.234-0.198,0.354-0.3
		L720.977,742.708z"/>
	<path fill="#5297D1" d="M721.893,741.922c-0.115,0.104-0.23,0.205-0.35,0.307l3.652,4.2c0.117-0.101,0.23-0.205,0.348-0.307
		L721.893,741.922z"/>
	<path fill="#5297D1" d="M722.795,741.12c-0.115,0.104-0.232,0.205-0.348,0.308l3.725,4.139c0.115-0.104,0.232-0.204,0.348-0.311
		L722.795,741.12z"/>
	<path fill="#5297D1" d="M716.206,746.405c-0.126,0.09-0.255,0.177-0.382,0.265l3.191,4.562c0.129-0.09,0.258-0.177,0.383-0.266
		L716.206,746.405z"/>
	<path fill="#5297D1" d="M715.214,747.094c-0.128,0.087-0.255,0.174-0.384,0.263l3.113,4.613c0.128-0.087,0.256-0.174,0.383-0.261
		L715.214,747.094z"/>
	<path fill="#5297D1" d="M718.152,744.976c-0.123,0.096-0.245,0.189-0.369,0.282l3.351,4.445c0.124-0.093,0.245-0.188,0.368-0.282
		L718.152,744.976z"/>
	<path fill="#5297D1" d="M714.209,747.764c-0.129,0.084-0.258,0.171-0.387,0.255l3.031,4.669c0.129-0.084,0.258-0.171,0.388-0.256
		L714.209,747.764z"/>
	<path fill="#5297D1" d="M717.186,745.697c-0.125,0.092-0.25,0.184-0.375,0.271l3.271,4.504c0.125-0.091,0.249-0.183,0.374-0.271
		L717.186,745.697z"/>
	<path fill="#5297D1" d="M680.188,758.967c-0.152,0.009-0.309,0.021-0.463,0.025l0.291,5.562c0.154-0.008,0.311-0.017,0.465-0.023
		L680.188,758.967z"/>
	<path fill="#5297D1" d="M682.597,758.79c-0.151,0.014-0.308,0.028-0.462,0.041l0.485,5.548c0.153-0.014,0.308-0.027,0.462-0.042
		L682.597,758.79z"/>
	<path fill="#5297D1" d="M687.391,758.189c-0.151,0.022-0.305,0.053-0.458,0.074l0.871,5.5c0.153-0.021,0.307-0.051,0.458-0.074
		L687.391,758.189z"/>
	<path fill="#5297D1" d="M684.999,758.535c-0.153,0.02-0.308,0.034-0.461,0.053l0.679,5.527c0.154-0.021,0.31-0.033,0.461-0.055
		L684.999,758.535z"/>
	<path fill="#5297D1" d="M686.195,758.371c-0.152,0.021-0.308,0.043-0.459,0.063l0.773,5.516c0.153-0.021,0.309-0.042,0.459-0.064
		L686.195,758.371z"/>
	<path fill="#5297D1" d="M681.393,758.891c-0.151,0.013-0.309,0.021-0.463,0.029l0.391,5.555c0.152-0.01,0.309-0.018,0.463-0.027
		L681.393,758.891z"/>
	<path fill="#5297D1" d="M683.799,758.673c-0.152,0.019-0.307,0.036-0.461,0.051l0.582,5.539c0.154-0.016,0.307-0.034,0.461-0.052
		L683.799,758.673z"/>
	<path fill="#5297D1" d="M676.564,764.643v-5.567c-0.076,0-0.152,0.003-0.23,0.003s-0.154-0.003-0.232-0.003v5.567
		c0.078,0,0.154,0.002,0.232,0.002S676.488,764.643,676.564,764.643z"/>
	<path fill="#5297D1" d="M677.773,759.058c-0.154,0.005-0.311,0.005-0.466,0.009l0.099,5.565c0.154-0.003,0.311-0.003,0.465-0.007
		L677.773,759.058z"/>
	<path fill="#5297D1" d="M700.225,754.825c-0.146,0.054-0.292,0.104-0.438,0.157l1.904,5.231c0.146-0.053,0.293-0.104,0.438-0.157
		L700.225,754.825z"/>
	<path fill="#5297D1" d="M724.553,739.464c-0.111,0.107-0.222,0.217-0.332,0.324l3.865,4.004c0.111-0.107,0.222-0.217,0.332-0.324
		L724.553,739.464z"/>
	<path fill="#5297D1" d="M678.98,759.021c-0.154,0.006-0.311,0.013-0.464,0.018l0.192,5.564c0.155-0.006,0.313-0.013,0.465-0.019
		L678.98,759.021z"/>
	<path fill="#5297D1" d="M696.793,755.989c-0.148,0.046-0.297,0.088-0.445,0.133l1.629,5.325c0.147-0.045,0.299-0.087,0.443-0.133
		L696.793,755.989z"/>
	<path fill="#5297D1" d="M695.635,756.335c-0.146,0.043-0.297,0.088-0.445,0.131l1.535,5.354c0.148-0.043,0.297-0.088,0.445-0.133
		L695.635,756.335z"/>
	<path fill="#5297D1" d="M688.582,757.991c-0.152,0.025-0.307,0.05-0.458,0.076l0.967,5.482c0.152-0.024,0.306-0.049,0.458-0.076
		L688.582,757.991z"/>
	<path fill="#5297D1" d="M694.471,756.66c-0.146,0.041-0.297,0.082-0.447,0.121l1.441,5.38c0.149-0.04,0.299-0.081,0.448-0.122
		L694.471,756.66z"/>
	<path fill="#5297D1" d="M697.941,755.618c-0.146,0.048-0.293,0.096-0.441,0.144l1.722,5.296c0.147-0.047,0.294-0.095,0.441-0.144
		L697.941,755.618z"/>
	<path fill="#5297D1" d="M699.086,755.23c-0.146,0.051-0.291,0.104-0.438,0.152l1.813,5.268c0.146-0.053,0.292-0.104,0.438-0.155
		L699.086,755.23z"/>
	<path fill="#5297D1" d="M693.304,756.969c-0.147,0.038-0.301,0.073-0.45,0.11l1.349,5.403c0.147-0.037,0.301-0.072,0.45-0.11
		L693.304,756.969z"/>
	<path fill="#5297D1" d="M690.951,757.518c-0.151,0.033-0.303,0.068-0.453,0.102l1.157,5.447c0.149-0.032,0.302-0.066,0.454-0.102
		L690.951,757.518z"/>
	<path fill="#5297D1" d="M689.768,757.764c-0.148,0.029-0.303,0.061-0.455,0.087l1.063,5.469c0.152-0.029,0.304-0.06,0.455-0.089
		L689.768,757.764z"/>
	<path fill="#5297D1" d="M692.13,757.256c-0.149,0.035-0.302,0.069-0.452,0.104l1.253,5.427c0.151-0.034,0.302-0.068,0.452-0.104
		L692.13,757.256z"/>
	<path fill="#5297D1" d="M743.826,705.211c-0.034,0.15-0.068,0.302-0.104,0.452l5.427,1.253c0.037-0.15,0.069-0.302,0.104-0.453
		L743.826,705.211z"/>
	<path fill="#5297D1" d="M743.248,707.557c-0.039,0.149-0.08,0.3-0.121,0.447l5.379,1.441c0.041-0.149,0.082-0.298,0.122-0.447
		L743.248,707.557z"/>
	<path fill="#5297D1" d="M743.546,706.386c-0.036,0.149-0.072,0.302-0.11,0.45l5.404,1.348c0.037-0.148,0.073-0.301,0.109-0.449
		L743.546,706.386z"/>
	<path fill="#5297D1" d="M675.357,759.064c-0.154-0.005-0.311-0.005-0.463-0.009l-0.1,5.567c0.154,0.004,0.311,0.004,0.464,0.007
		L675.357,759.064z"/>
	<path fill="#5297D1" d="M744.318,702.845c-0.029,0.152-0.061,0.307-0.088,0.456l5.467,1.063c0.027-0.151,0.059-0.306,0.088-0.455
		L744.318,702.845z"/>
	<path fill="#5297D1" d="M744.084,704.03c-0.031,0.149-0.066,0.302-0.1,0.453l5.445,1.156c0.033-0.149,0.067-0.302,0.102-0.452
		L744.084,704.03z"/>
	<path fill="#5297D1" d="M742.933,708.723c-0.042,0.148-0.088,0.297-0.131,0.445l5.354,1.534c0.044-0.148,0.09-0.296,0.132-0.444
		L742.933,708.723z"/>
	<path fill="#5297D1" d="M741.449,713.32c-0.053,0.146-0.104,0.291-0.156,0.437l5.232,1.904c0.053-0.146,0.104-0.291,0.155-0.438
		L741.449,713.32z"/>
	<path fill="#5297D1" d="M741.027,714.451c-0.057,0.145-0.109,0.29-0.166,0.435l5.197,1.995c0.059-0.145,0.11-0.289,0.166-0.434
		L741.027,714.451z"/>
	<path fill="#5297D1" d="M741.852,712.181c-0.05,0.146-0.104,0.292-0.152,0.438l5.266,1.813c0.051-0.146,0.104-0.291,0.154-0.438
		L741.852,712.181z"/>
	<path fill="#5297D1" d="M740.589,715.577c-0.058,0.144-0.117,0.286-0.176,0.43l5.163,2.086c0.059-0.144,0.117-0.286,0.176-0.43
		L740.589,715.577z"/>
	<path fill="#5297D1" d="M742.589,709.88c-0.044,0.148-0.087,0.298-0.132,0.445l5.325,1.628c0.046-0.147,0.087-0.297,0.133-0.444
		L742.589,709.88z"/>
	<path fill="#5297D1" d="M742.229,711.033c-0.047,0.146-0.095,0.295-0.143,0.439l5.295,1.723c0.049-0.146,0.098-0.294,0.146-0.441
		L742.229,711.033z"/>
	<path fill="#5297D1" d="M745.459,693.257c-0.007,0.155-0.016,0.312-0.023,0.464l5.562,0.291c0.009-0.152,0.019-0.309,0.024-0.463
		L745.459,693.257z"/>
	<path fill="#5297D1" d="M745.387,694.463c-0.01,0.154-0.018,0.311-0.027,0.463l5.555,0.391c0.012-0.154,0.021-0.311,0.029-0.465
		L745.387,694.463z"/>
	<path fill="#5297D1" d="M745.299,695.668c-0.014,0.154-0.027,0.308-0.042,0.462l5.548,0.485c0.016-0.154,0.027-0.311,0.041-0.463
		L745.299,695.668z"/>
	<path fill="#5297D1" d="M744.535,701.656c-0.027,0.15-0.05,0.307-0.077,0.458l5.485,0.968c0.025-0.152,0.049-0.306,0.074-0.458
		L744.535,701.656z"/>
	<path fill="#5297D1" d="M745.506,692.05c-0.005,0.155-0.012,0.312-0.018,0.464l5.563,0.194c0.006-0.154,0.014-0.31,0.02-0.464
		L745.506,692.05z"/>
	<path fill="#5297D1" d="M745.531,690.843c-0.002,0.154-0.003,0.312-0.006,0.464l5.565,0.099c0.003-0.154,0.004-0.311,0.006-0.464
		L745.531,690.843z"/>
	<path fill="#5297D1" d="M744.902,699.27c-0.021,0.153-0.043,0.309-0.064,0.459l5.514,0.775c0.022-0.153,0.045-0.307,0.065-0.46
		L744.902,699.27z"/>
	<path fill="#5297D1" d="M744.732,700.465c-0.023,0.153-0.054,0.305-0.076,0.458l5.5,0.871c0.023-0.152,0.053-0.305,0.076-0.458
		L744.732,700.465z"/>
	<path fill="#5297D1" d="M726.256,737.753c-0.107,0.111-0.217,0.221-0.324,0.332l4.004,3.866c0.107-0.111,0.219-0.221,0.323-0.332
		L726.256,737.753z"/>
	<path fill="#5297D1" d="M745.191,696.87c-0.018,0.155-0.035,0.308-0.054,0.462l5.538,0.582c0.019-0.154,0.036-0.307,0.053-0.461
		L745.191,696.87z"/>
	<path fill="#5297D1" d="M745.055,698.07c-0.018,0.152-0.033,0.309-0.053,0.462l5.527,0.679c0.02-0.153,0.035-0.308,0.053-0.461
		L745.055,698.07z"/>
	<path fill="#5297D1" d="M731.725,731.316c-0.093,0.124-0.188,0.243-0.28,0.366l4.444,3.352c0.094-0.123,0.189-0.244,0.281-0.368
		L731.725,731.316z"/>
	<path fill="#5297D1" d="M730.99,732.274c-0.096,0.122-0.188,0.243-0.284,0.364l4.387,3.43c0.095-0.121,0.188-0.245,0.284-0.367
		L730.99,732.274z"/>
	<path fill="#5297D1" d="M730.239,733.22c-0.097,0.121-0.193,0.242-0.29,0.361l4.324,3.503c0.098-0.119,0.192-0.241,0.291-0.361
		L730.239,733.22z"/>
	<path fill="#5297D1" d="M733.138,729.357c-0.089,0.127-0.176,0.255-0.265,0.382l4.56,3.19c0.089-0.126,0.178-0.255,0.267-0.381
		L733.138,729.357z"/>
	<path fill="#5297D1" d="M732.438,730.342c-0.091,0.126-0.183,0.25-0.271,0.375l4.503,3.271c0.092-0.124,0.185-0.249,0.273-0.374
		L732.438,730.342z"/>
	<path fill="#5297D1" d="M728.695,735.076c-0.104,0.117-0.205,0.23-0.309,0.349l4.201,3.651c0.104-0.116,0.205-0.231,0.309-0.35
		L728.695,735.076z"/>
	<path fill="#5297D1" d="M740.131,716.695c-0.061,0.143-0.123,0.283-0.184,0.426l5.125,2.176c0.062-0.143,0.125-0.283,0.185-0.426
		L740.131,716.695z"/>
	<path fill="#5297D1" d="M727.895,735.98c-0.103,0.113-0.201,0.23-0.307,0.347l4.135,3.725c0.104-0.114,0.205-0.229,0.311-0.347
		L727.895,735.98z"/>
	<path fill="#5297D1" d="M729.475,734.154c-0.099,0.119-0.197,0.234-0.299,0.354l4.264,3.577c0.102-0.117,0.199-0.235,0.301-0.354
		L729.475,734.154z"/>
	<path fill="#5297D1" d="M733.821,728.362c-0.086,0.129-0.173,0.257-0.261,0.385l4.613,3.112c0.088-0.128,0.174-0.256,0.262-0.386
		L733.821,728.362z"/>
	<path fill="#5297D1" d="M727.082,736.873c-0.105,0.113-0.211,0.227-0.316,0.339l4.07,3.796c0.105-0.111,0.211-0.226,0.316-0.34
		L727.082,736.873z"/>
	<path fill="#5297D1" d="M738.635,719.994c-0.066,0.14-0.139,0.277-0.207,0.416l5.004,2.438c0.068-0.139,0.141-0.274,0.207-0.413
		L738.635,719.994z"/>
	<path fill="#5297D1" d="M734.486,727.354c-0.084,0.132-0.172,0.26-0.256,0.39l4.668,3.031c0.086-0.131,0.172-0.26,0.256-0.39
		L734.486,727.354z"/>
	<path fill="#5297D1" d="M737.539,722.146c-0.073,0.137-0.145,0.272-0.217,0.409l4.915,2.613c0.073-0.136,0.145-0.273,0.217-0.41
		L737.539,722.146z"/>
	<path fill="#5297D1" d="M739.148,718.902c-0.064,0.14-0.129,0.278-0.195,0.42l5.046,2.354c0.065-0.141,0.132-0.28,0.196-0.421
		L739.148,718.902z"/>
	<path fill="#5297D1" d="M739.648,717.802c-0.063,0.144-0.123,0.284-0.188,0.427l5.087,2.266c0.063-0.143,0.123-0.283,0.188-0.426
		L739.648,717.802z"/>
	<path fill="#5297D1" d="M738.096,721.075c-0.068,0.139-0.139,0.274-0.21,0.414l4.962,2.526c0.07-0.138,0.142-0.274,0.209-0.413
		L738.096,721.075z"/>
	<path fill="#5297D1" d="M735.761,725.303c-0.079,0.133-0.155,0.27-0.237,0.399l4.772,2.868c0.081-0.135,0.157-0.27,0.237-0.4
		L735.761,725.303z"/>
	<path fill="#5297D1" d="M736.965,723.21c-0.074,0.136-0.15,0.271-0.227,0.404l4.869,2.698c0.076-0.136,0.15-0.271,0.227-0.403
		L736.965,723.21z"/>
	<path fill="#5297D1" d="M735.131,726.334c-0.082,0.131-0.164,0.263-0.246,0.393l4.721,2.95c0.084-0.131,0.164-0.262,0.246-0.394
		L735.131,726.334z"/>
	<path fill="#5297D1" d="M736.375,724.264c-0.077,0.136-0.157,0.268-0.236,0.399l4.822,2.784c0.078-0.136,0.158-0.268,0.236-0.399
		L736.375,724.264z"/>
	<path fill="#5297D1" d="M640.896,749.294c-0.134-0.08-0.268-0.156-0.398-0.237l-2.867,4.772c0.132,0.08,0.268,0.157,0.399,0.236
		L640.896,749.294z"/>
	<path fill="#5297D1" d="M617.145,725.703c-0.08-0.133-0.156-0.27-0.235-0.4l-4.771,2.868c0.079,0.132,0.155,0.267,0.235,0.399
		L617.145,725.703z"/>
	<path fill="#5297D1" d="M615.347,722.558c-0.073-0.137-0.146-0.272-0.217-0.411l-4.916,2.614c0.072,0.139,0.144,0.274,0.217,0.41
		L615.347,722.558z"/>
	<path fill="#5297D1" d="M616.528,724.663c-0.078-0.134-0.158-0.266-0.235-0.399l-4.822,2.784c0.077,0.134,0.158,0.268,0.236,0.399
		L616.528,724.663z"/>
	<path fill="#5297D1" d="M615.93,723.615c-0.076-0.138-0.15-0.271-0.227-0.405l-4.869,2.699c0.074,0.136,0.15,0.27,0.227,0.402
		L615.93,723.615z"/>
	<path fill="#5297D1" d="M614.24,720.41c-0.068-0.139-0.139-0.276-0.207-0.416l-5.004,2.439c0.065,0.141,0.139,0.276,0.207,0.415
		L614.24,720.41z"/>
	<path fill="#5297D1" d="M614.782,721.489c-0.071-0.14-0.143-0.275-0.21-0.413l-4.961,2.525c0.067,0.14,0.139,0.276,0.209,0.414
		L614.782,721.489z"/>
	<path fill="#5297D1" d="M611.376,713.757c-0.054-0.146-0.104-0.291-0.157-0.437l-5.231,1.902c0.052,0.146,0.104,0.292,0.155,0.438
		L611.376,713.757z"/>
	<path fill="#5297D1" d="M612.255,716.007c-0.059-0.144-0.118-0.286-0.176-0.43l-5.163,2.086c0.059,0.144,0.117,0.286,0.176,0.43
		L612.255,716.007z"/>
	<path fill="#5297D1" d="M613.205,718.229c-0.063-0.143-0.123-0.283-0.186-0.426l-5.089,2.267c0.063,0.142,0.122,0.282,0.188,0.425
		L613.205,718.229z"/>
	<path fill="#5297D1" d="M613.715,719.322c-0.064-0.142-0.132-0.28-0.195-0.42l-5.047,2.353c0.064,0.143,0.131,0.28,0.196,0.421
		L613.715,719.322z"/>
	<path fill="#5297D1" d="M612.721,717.121c-0.061-0.145-0.124-0.283-0.184-0.426l-5.127,2.176c0.061,0.143,0.124,0.283,0.186,0.426
		L612.721,717.121z"/>
	<path fill="#5297D1" d="M611.806,714.886c-0.056-0.145-0.108-0.29-0.165-0.434l-5.197,1.995c0.056,0.145,0.107,0.29,0.166,0.434
		L611.806,714.886z"/>
	<path fill="#5297D1" d="M625.081,736.327c-0.104-0.114-0.205-0.231-0.308-0.347l-4.139,3.725c0.104,0.115,0.204,0.232,0.311,0.347
		L625.081,736.327z"/>
	<path fill="#5297D1" d="M622.719,733.581c-0.098-0.119-0.191-0.24-0.291-0.361l-4.324,3.503c0.099,0.12,0.193,0.242,0.291,0.361
		L622.719,733.581z"/>
	<path fill="#5297D1" d="M621.962,732.642c-0.096-0.122-0.188-0.243-0.284-0.365l-4.386,3.427c0.095,0.122,0.188,0.246,0.283,0.367
		L621.962,732.642z"/>
	<path fill="#5297D1" d="M617.783,726.729c-0.083-0.132-0.164-0.264-0.246-0.395l-4.721,2.949c0.082,0.132,0.162,0.263,0.246,0.394
		L617.783,726.729z"/>
	<path fill="#5297D1" d="M623.492,734.509c-0.1-0.118-0.2-0.233-0.299-0.354l-4.266,3.578c0.101,0.116,0.199,0.234,0.301,0.354
		L623.492,734.509z"/>
	<path fill="#5297D1" d="M624.279,735.425c-0.104-0.116-0.205-0.229-0.309-0.349l-4.199,3.65c0.102,0.116,0.205,0.231,0.308,0.35
		L624.279,735.425z"/>
	<path fill="#5297D1" d="M618.438,727.742c-0.084-0.13-0.172-0.258-0.256-0.389l-4.668,3.03c0.084,0.13,0.17,0.259,0.256,0.39
		L618.438,727.742z"/>
	<path fill="#5297D1" d="M620.503,730.717c-0.092-0.125-0.183-0.249-0.272-0.375l-4.504,3.272c0.093,0.125,0.184,0.25,0.273,0.374
		L620.503,730.717z"/>
	<path fill="#5297D1" d="M619.107,728.747c-0.088-0.128-0.177-0.256-0.263-0.384l-4.614,3.11c0.086,0.13,0.174,0.258,0.262,0.386
		L619.107,728.747z"/>
	<path fill="#5297D1" d="M619.795,729.739c-0.09-0.127-0.176-0.255-0.265-0.382l-4.562,3.191c0.089,0.127,0.178,0.255,0.267,0.381
		L619.795,729.739z"/>
	<path fill="#5297D1" d="M621.227,731.685c-0.095-0.122-0.189-0.242-0.281-0.366l-4.445,3.35c0.093,0.124,0.188,0.245,0.282,0.368
		L621.227,731.685z"/>
	<path fill="#5297D1" d="M607.41,696.13c-0.014-0.154-0.027-0.308-0.041-0.462l-5.547,0.484c0.014,0.152,0.025,0.309,0.041,0.463
		L607.41,696.13z"/>
	<path fill="#5297D1" d="M607.311,694.926c-0.012-0.152-0.02-0.309-0.027-0.463l-5.558,0.389c0.013,0.154,0.021,0.311,0.03,0.465
		L607.311,694.926z"/>
	<path fill="#5297D1" d="M607.232,693.721c-0.01-0.152-0.019-0.309-0.024-0.464l-5.562,0.292c0.008,0.154,0.018,0.311,0.023,0.463
		L607.232,693.721z"/>
	<path fill="#5297D1" d="M607.666,698.532c-0.02-0.153-0.035-0.31-0.053-0.462l-5.527,0.68c0.018,0.153,0.033,0.308,0.053,0.461
		L607.666,698.532z"/>
	<path fill="#5297D1" d="M607.528,697.332c-0.019-0.154-0.036-0.307-0.052-0.462l-5.539,0.583c0.016,0.154,0.034,0.307,0.053,0.461
		L607.528,697.332z"/>
	<path fill="#5297D1" d="M607.137,688.891c0.002-0.152,0.002-0.31,0.006-0.464l-5.565-0.097c-0.003,0.154-0.004,0.309-0.006,0.464
		L607.137,688.891z"/>
	<path fill="#5297D1" d="M607.83,699.729c-0.021-0.15-0.044-0.306-0.064-0.459l-5.515,0.774c0.021,0.153,0.043,0.307,0.063,0.46
		L607.83,699.729z"/>
	<path fill="#5297D1" d="M607.18,692.514c-0.006-0.152-0.013-0.309-0.018-0.464l-5.564,0.194c0.004,0.155,0.014,0.31,0.02,0.464
		L607.18,692.514z"/>
	<path fill="#5297D1" d="M607.162,687.684c0.005-0.153,0.012-0.31,0.018-0.464l-5.563-0.192c-0.006,0.152-0.016,0.309-0.02,0.464
		L607.162,687.684z"/>
	<path fill="#5297D1" d="M607.143,691.307c-0.004-0.152-0.004-0.31-0.006-0.464l-5.565,0.099c0.002,0.153,0.003,0.31,0.006,0.464
		L607.143,691.307z"/>
	<path fill="#5297D1" d="M610.582,711.475c-0.047-0.146-0.096-0.294-0.143-0.439l-5.299,1.721c0.049,0.147,0.098,0.295,0.146,0.441
		L610.582,711.475z"/>
	<path fill="#5297D1" d="M609.232,706.836c-0.038-0.148-0.074-0.301-0.111-0.45l-5.403,1.349c0.038,0.148,0.073,0.301,0.11,0.449
		L609.232,706.836z"/>
	<path fill="#5297D1" d="M608.012,700.923c-0.023-0.153-0.053-0.305-0.076-0.458l-5.5,0.871c0.023,0.153,0.053,0.306,0.075,0.458
		L608.012,700.923z"/>
	<path fill="#5297D1" d="M609.866,709.168c-0.044-0.148-0.089-0.297-0.131-0.445l-5.354,1.535c0.042,0.148,0.088,0.296,0.131,0.444
		L609.866,709.168z"/>
	<path fill="#5297D1" d="M610.971,712.618c-0.051-0.146-0.104-0.291-0.152-0.438l-5.268,1.813c0.051,0.146,0.104,0.291,0.154,0.438
		L610.971,712.618z"/>
	<path fill="#5297D1" d="M610.211,710.325c-0.045-0.147-0.088-0.297-0.132-0.444l-5.326,1.628c0.045,0.147,0.087,0.297,0.133,0.444
		L610.211,710.325z"/>
	<path fill="#5297D1" d="M609.541,708.004c-0.041-0.146-0.082-0.298-0.122-0.447l-5.379,1.441c0.04,0.148,0.081,0.298,0.121,0.447
		L609.541,708.004z"/>
	<path fill="#5297D1" d="M608.945,705.663c-0.035-0.15-0.069-0.302-0.104-0.452l-5.427,1.252c0.034,0.151,0.066,0.303,0.104,0.453
		L608.945,705.663z"/>
	<path fill="#5297D1" d="M608.21,702.114c-0.026-0.151-0.05-0.307-0.077-0.458l-5.484,0.968c0.027,0.152,0.051,0.306,0.076,0.458
		L608.21,702.114z"/>
	<path fill="#5297D1" d="M608.438,703.301c-0.028-0.149-0.059-0.304-0.088-0.456l-5.467,1.063c0.029,0.149,0.061,0.304,0.088,0.455
		L608.438,703.301z"/>
	<path fill="#5297D1" d="M608.683,704.483c-0.03-0.151-0.065-0.304-0.099-0.453l-5.447,1.156c0.031,0.151,0.066,0.304,0.101,0.453
		L608.683,704.483z"/>
	<path fill="#5297D1" d="M631.125,742.229c-0.117-0.102-0.232-0.203-0.35-0.307l-3.65,4.2c0.115,0.102,0.23,0.206,0.348,0.307
		L631.125,742.229z"/>
	<path fill="#5297D1" d="M657.479,756.466c-0.146-0.043-0.297-0.088-0.443-0.132l-1.535,5.354c0.146,0.045,0.297,0.091,0.445,0.134
		L657.479,756.466z"/>
	<path fill="#5297D1" d="M656.32,756.122c-0.148-0.045-0.297-0.087-0.444-0.133l-1.628,5.325c0.146,0.046,0.296,0.088,0.443,0.133
		L656.32,756.122z"/>
	<path fill="#5297D1" d="M655.168,755.762c-0.146-0.048-0.295-0.096-0.441-0.144l-1.721,5.296c0.146,0.049,0.293,0.097,0.44,0.144
		L655.168,755.762z"/>
	<path fill="#5297D1" d="M659.814,757.079c-0.149-0.037-0.303-0.072-0.45-0.11l-1.347,5.403c0.148,0.038,0.301,0.073,0.449,0.11
		L659.814,757.079z"/>
	<path fill="#5297D1" d="M660.99,757.359c-0.15-0.034-0.303-0.068-0.453-0.104l-1.252,5.427c0.15,0.035,0.301,0.069,0.452,0.104
		L660.99,757.359z"/>
	<path fill="#5297D1" d="M648.398,753.182c-0.144-0.063-0.283-0.123-0.428-0.187l-2.264,5.087c0.141,0.063,0.283,0.123,0.425,0.186
		L648.398,753.182z"/>
	<path fill="#5297D1" d="M650.623,754.121c-0.143-0.06-0.285-0.117-0.43-0.176l-2.086,5.163c0.145,0.059,0.287,0.116,0.43,0.176
		L650.623,754.121z"/>
	<path fill="#5297D1" d="M649.506,753.664c-0.143-0.061-0.283-0.123-0.426-0.186l-2.176,5.127c0.142,0.062,0.283,0.123,0.426,0.185
		L649.506,753.664z"/>
	<path fill="#5297D1" d="M654.02,755.385c-0.146-0.051-0.291-0.104-0.438-0.152l-1.813,5.265c0.146,0.051,0.291,0.104,0.438,0.154
		L654.02,755.385z"/>
	<path fill="#5297D1" d="M651.749,754.561c-0.146-0.056-0.29-0.107-0.435-0.164l-1.994,5.197c0.144,0.058,0.289,0.11,0.434,0.165
		L651.749,754.561z"/>
	<path fill="#5297D1" d="M652.881,754.982c-0.146-0.055-0.291-0.104-0.438-0.157l-1.904,5.231c0.146,0.055,0.291,0.104,0.438,0.157
		L652.881,754.982z"/>
	<path fill="#5297D1" d="M658.645,756.781c-0.148-0.039-0.299-0.08-0.446-0.121l-1.44,5.379c0.148,0.041,0.298,0.082,0.447,0.121
		L658.645,756.781z"/>
	<path fill="#5297D1" d="M670.533,758.831c-0.154-0.013-0.311-0.027-0.463-0.041l-0.484,5.547c0.154,0.015,0.309,0.028,0.462,0.042
		L670.533,758.831z"/>
	<path fill="#5297D1" d="M662.17,757.617c-0.15-0.032-0.302-0.066-0.453-0.102l-1.158,5.447c0.152,0.033,0.305,0.067,0.454,0.102
		L662.17,757.617z"/>
	<path fill="#5297D1" d="M668.13,758.588c-0.153-0.019-0.308-0.033-0.461-0.053l-0.679,5.527c0.15,0.019,0.308,0.032,0.461,0.053
		L668.13,758.588z"/>
	<path fill="#5297D1" d="M672.943,758.992c-0.154-0.007-0.311-0.019-0.463-0.025l-0.291,5.563c0.152,0.009,0.309,0.018,0.463,0.023
		L672.943,758.992z"/>
	<path fill="#5297D1" d="M671.738,758.92c-0.154-0.01-0.312-0.019-0.465-0.029l-0.389,5.557c0.154,0.012,0.311,0.02,0.463,0.027
		L671.738,758.92z"/>
	<path fill="#5297D1" d="M669.33,758.724c-0.154-0.015-0.307-0.032-0.461-0.051l-0.582,5.538c0.154,0.018,0.307,0.036,0.461,0.052
		L669.33,758.724z"/>
	<path fill="#5297D1" d="M663.355,757.851c-0.152-0.026-0.307-0.058-0.455-0.087l-1.063,5.468c0.15,0.028,0.303,0.059,0.455,0.088
		L663.355,757.851z"/>
	<path fill="#5297D1" d="M664.544,758.067c-0.151-0.026-0.306-0.051-0.458-0.076l-0.967,5.482c0.152,0.027,0.306,0.052,0.457,0.076
		L664.544,758.067z"/>
	<path fill="#5297D1" d="M666.932,758.436c-0.151-0.021-0.307-0.043-0.459-0.063l-0.773,5.514c0.152,0.022,0.307,0.044,0.459,0.064
		L666.932,758.436z"/>
	<path fill="#5297D1" d="M665.736,758.266c-0.154-0.021-0.308-0.052-0.459-0.074l-0.871,5.5c0.152,0.023,0.305,0.053,0.458,0.074
		L665.736,758.266z"/>
	<path fill="#5297D1" d="M642.99,750.498c-0.135-0.075-0.271-0.151-0.404-0.227l-2.699,4.867c0.135,0.075,0.271,0.151,0.405,0.229
		L642.99,750.498z"/>
	<path fill="#5297D1" d="M674.15,759.038c-0.154-0.005-0.311-0.012-0.463-0.019l-0.195,5.564c0.154,0.006,0.31,0.013,0.465,0.02
		L674.15,759.038z"/>
	<path fill="#5297D1" d="M632.046,743.008c-0.118-0.1-0.235-0.2-0.354-0.3l-3.577,4.264c0.117,0.102,0.233,0.2,0.354,0.3
		L632.046,743.008z"/>
	<path fill="#5297D1" d="M632.98,743.771c-0.12-0.098-0.241-0.192-0.361-0.291l-3.502,4.324c0.119,0.1,0.24,0.194,0.361,0.291
		L632.98,743.771z"/>
	<path fill="#5297D1" d="M634.885,745.258c-0.125-0.093-0.245-0.188-0.369-0.282l-3.35,4.445c0.123,0.094,0.244,0.189,0.369,0.282
		L634.885,745.258z"/>
	<path fill="#5297D1" d="M635.857,745.971c-0.125-0.09-0.25-0.182-0.373-0.271l-3.272,4.504c0.125,0.091,0.249,0.183,0.375,0.271
		L635.857,745.971z"/>
	<path fill="#5297D1" d="M647.299,752.683c-0.141-0.063-0.281-0.131-0.42-0.195l-2.354,5.047c0.14,0.063,0.277,0.131,0.42,0.194
		L647.299,752.683z"/>
	<path fill="#5297D1" d="M626.736,738.085c-0.107-0.111-0.217-0.221-0.323-0.332l-4.005,3.866c0.106,0.111,0.217,0.221,0.325,0.332
		L626.736,738.085z"/>
	<path fill="#5297D1" d="M628.448,739.788c-0.112-0.107-0.222-0.216-0.332-0.324l-3.866,4.004c0.111,0.107,0.221,0.219,0.332,0.324
		L628.448,739.788z"/>
	<path fill="#5297D1" d="M630.221,741.428c-0.115-0.103-0.23-0.204-0.348-0.308l-3.725,4.136c0.113,0.104,0.23,0.205,0.348,0.311
		L630.221,741.428z"/>
	<path fill="#5297D1" d="M629.328,740.614c-0.113-0.104-0.227-0.21-0.34-0.315l-3.795,4.07c0.11,0.104,0.226,0.211,0.339,0.313
		L629.328,740.614z"/>
	<path fill="#5297D1" d="M633.926,744.523c-0.121-0.098-0.245-0.189-0.365-0.285l-3.428,4.387c0.121,0.096,0.244,0.189,0.366,0.284
		L633.926,744.523z"/>
	<path fill="#5297D1" d="M644.054,751.071c-0.137-0.072-0.272-0.146-0.411-0.219l-2.611,4.916c0.137,0.073,0.271,0.146,0.408,0.219
		L644.054,751.071z"/>
	<path fill="#5297D1" d="M636.844,746.67c-0.127-0.088-0.256-0.175-0.383-0.265l-3.191,4.56c0.125,0.09,0.256,0.177,0.383,0.266
		L636.844,746.67z"/>
	<path fill="#5297D1" d="M645.125,751.629c-0.138-0.07-0.276-0.14-0.414-0.21l-2.527,4.961c0.139,0.071,0.275,0.14,0.414,0.21
		L645.125,751.629z"/>
	<path fill="#5297D1" d="M646.207,752.167c-0.141-0.067-0.277-0.139-0.416-0.207l-2.441,5.005c0.141,0.068,0.276,0.139,0.416,0.206
		L646.207,752.167z"/>
	<path fill="#5297D1" d="M641.938,749.908c-0.135-0.077-0.267-0.158-0.398-0.236l-2.783,4.822c0.134,0.077,0.268,0.158,0.399,0.234
		L641.938,749.908z"/>
	<path fill="#5297D1" d="M625.902,737.212c-0.105-0.112-0.211-0.226-0.316-0.339l-4.07,3.795c0.105,0.113,0.211,0.229,0.316,0.34
		L625.902,737.212z"/>
	<path fill="#5297D1" d="M638.847,748.019c-0.13-0.084-0.259-0.17-0.388-0.255l-3.031,4.668c0.129,0.085,0.258,0.172,0.387,0.256
		L638.847,748.019z"/>
	<path fill="#5297D1" d="M607.208,686.477c0.008-0.153,0.017-0.309,0.025-0.464l-5.563-0.291c-0.008,0.154-0.018,0.311-0.023,0.463
		L607.208,686.477z"/>
	<path fill="#5297D1" d="M637.838,747.354c-0.129-0.087-0.256-0.174-0.385-0.261l-3.112,4.615c0.128,0.087,0.256,0.174,0.384,0.261
		L637.838,747.354z"/>
	<path fill="#5297D1" d="M639.867,748.664c-0.131-0.082-0.264-0.164-0.396-0.246l-2.948,4.721c0.131,0.082,0.263,0.164,0.395,0.246
		L639.867,748.664z"/>
</g>
<path fill="#EFEEF1" d="M288.774,455.005c-0.129,0.157-0.258,0.313-0.386,0.471C288.517,455.318,288.646,455.162,288.774,455.005z"
	/>
<circle fill="#544C61" cx="716.23" cy="423.429" r="3.064"/>
<circle fill="#544C61" cx="698.614" cy="423.429" r="3.064"/>
<circle fill="#544C61" cx="680.997" cy="423.429" r="3.064"/>
<circle fill="#544C61" cx="663.379" cy="423.429" r="3.064"/>
<circle fill="#544C61" cx="645.762" cy="423.429" r="3.064"/>
<circle fill="#544C61" cx="716.23" cy="438.981" r="3.064"/>
<circle fill="#544C61" cx="698.614" cy="438.981" r="3.064"/>
<circle fill="#544C61" cx="680.997" cy="438.981" r="3.064"/>
<circle fill="#544C61" cx="663.379" cy="438.981" r="3.064"/>
<circle fill="#544C61" cx="645.762" cy="438.981" r="3.064"/>
<circle fill="#544C61" cx="716.23" cy="454.534" r="3.064"/>
<circle fill="#544C61" cx="698.614" cy="454.534" r="3.064"/>
<circle fill="#544C61" cx="680.997" cy="454.534" r="3.064"/>
<circle fill="#544C61" cx="663.379" cy="454.534" r="3.064"/>
<circle fill="#544C61" cx="645.762" cy="454.534" r="3.064"/>
</svg>
