<?xml version="1.0" encoding="utf-8"?>
<!-- Generator: Adobe Illustrator 16.0.0, SVG Export Plug-In . SVG Version: 6.00 Build 0)  -->
<!DOCTYPE svg PUBLIC "-//W3C//DTD SVG 1.1//EN" "http://www.w3.org/Graphics/SVG/1.1/DTD/svg11.dtd">
<svg version="1.1" id="Layer_1" xmlns="http://www.w3.org/2000/svg" xmlns:xlink="http://www.w3.org/1999/xlink" x="0px" y="0px"
	 width="647.809px" height="875px" viewBox="0 0 647.809 875" enable-background="new 0 0 647.809 875" xml:space="preserve">
<polyline points="0,816.947 0,875 647.808,875 647.808,0 0,0 0,370.459 "/>
<path fill="none" stroke="#FFFFFF" stroke-miterlimit="10" d="M647.809,218.625c-66.787,46.218-163.324,75.303-302.823,64.58
	C195.355,271.704,76.074,303.932,0,355.712"/>
<path fill="none" stroke="#FFFFFF" stroke-miterlimit="10" d="M647.809,218.625"/>
<path fill="none" stroke="#FFFFFF" stroke-miterlimit="10" d="M607.429,0c-54.032,81.203-165.335,150.634-364.781,169.683
	C147.63,178.758,57.907,202.326,0,234.761"/>
<path fill="none" stroke="#FFFFFF" stroke-miterlimit="10" d="M607.429,0"/>
<path fill="none" stroke="#FFFFFF" stroke-miterlimit="10" d="M647.809,437.926c-57.219,3.572-123.507-4.071-200.169-27.718
	C246.731,348.232,96.442,389.264,0,460.139"/>
<path fill="none" stroke="#FFFFFF" stroke-miterlimit="10" d="M647.809,437.926"/>
<path fill="none" stroke="#FFFFFF" stroke-miterlimit="10" d="M647.801,622.186c-38.936-13.477-80.071-33.203-123.343-60.538
	C307.559,424.628,121.257,463.839,0,537.019"/>
<path fill="none" stroke="#FFFFFF" stroke-miterlimit="10" d="M647.801,622.186"/>
<path fill="none" stroke="#FFFFFF" stroke-miterlimit="10" d="M646,875c-40.589-25.605-70.466-60.936-110.299-108.471
	C356.353,552.508,145.184,562.952,0,613.787"/>
<path fill="none" stroke="#FFFFFF" stroke-miterlimit="10" d="M646,875"/>
<path fill="none" stroke="#FFFFFF" stroke-miterlimit="10" d="M469.646,875.002C331.649,721.01,134.501,678.989,0,683.602"/>
<path fill="none" stroke="#FFFFFF" stroke-miterlimit="10" d="M469.646,875.002"/>
<path fill="none" stroke="#FFFFFF" stroke-miterlimit="10" d="M249.622,874.998C173.226,812.398,80.49,784.089,0,772.787"/>
<path fill="none" stroke="#FFFFFF" stroke-miterlimit="10" d="M249.622,874.998"/>
<path fill="none" stroke="#FFFFFF" stroke-miterlimit="10" d="M500.8,953.821"/>
</svg>
