<?xml version="1.0" encoding="utf-8"?>
<!-- Generator: Adobe Illustrator 16.0.0, SVG Export Plug-In . SVG Version: 6.00 Build 0)  -->
<!DOCTYPE svg PUBLIC "-//W3C//DTD SVG 1.1//EN" "http://www.w3.org/Graphics/SVG/1.1/DTD/svg11.dtd">
<svg version="1.1" id="Layer_1" xmlns="http://www.w3.org/2000/svg" xmlns:xlink="http://www.w3.org/1999/xlink" x="0px" y="0px"
	 width="160.943px" height="250.157px" viewBox="0 0 160.943 250.157" enable-background="new 0 0 160.943 250.157"
	 xml:space="preserve">
<g>
	<path fill="#D05D35" d="M79.475,45.36l-8.45-1.864c0,0-10.759,9.608-17.895,11.867s-30.368-1.893-30.368-1.893l-1.48,7.951
		c0,0,34.393,13.064,42.449,10.584c8.056-2.479,16.735-14.036,16.735-14.036L79.475,45.36z"/>
	<ellipse fill="#6177BA" cx="80.472" cy="234.251" rx="80.472" ry="8.066"/>
	<path fill="#F37475" d="M127.492,57.188c0,0,9.537,21.106,9.537,25.092c0,3.986,2.278,30.391,2.278,30.391
		s1.353,12.883,0.996,14.306c-0.355,1.424-5.207,7.331-6.375,7.331c-1.169,0,0-1.424,0-1.424s-1.525,1.068-2.023,0.57
		c-0.498-0.499,3.63-6.525,3.63-7.331c0-1.032-0.438-3.559-1.606-3.985c-1.169-0.428-1.81,5.622-2.806,5.622
		c-0.997,0-0.428-8.47,0.498-11.174c0.925-2.704,2.491-4.413,1.494-7.972c-0.996-3.559-8.114-15.942-6.548-24.697l-9.251-20.204
		L127.492,57.188z"/>
	<path fill="#B97029" d="M114.582,38.457c0,0,11.488,10.921,19.114,26.359c7.626,15.438,6.667,43,6.667,43l-7.599,1.904
		c0,0-7.067-16.889-8.368-25.14c-1.303-8.251-13.021-27.937-13.021-27.937L114.582,38.457z"/>
	<path fill="#0F2B20" d="M118.021,124.13l-3.579-11.947l-18.554,6.2l-18.621-2.771c-1.229,3.277,4.915,56.234,4.915,68.522
		s2.995,52.017,2.995,52.017h8.928c0,0,0.16-61.438,0.16-66.147c0-2.875,3.034-22.766,2.381-35.696
		c0.525-0.03,1.123-1.128,1.8-1.013l-0.31,8.652c0,0,2.542,25.395,2.542,34.405s0.372,44.418,0.372,44.418l8.921,0.424
		c0,0,3.076-31.953,2.078-43.022C111.166,168.37,118.021,124.13,118.021,124.13z"/>
	<path fill="#F6A547" d="M120.752,132.41c0,0-2.754-53.701-4.177-65.658c-1.424-11.957-1.993-28.295-1.993-28.295
		s-9.42-4.755-22.995-3.099s-18.105,5.682-20.563,8.138c0,0,5.026,26.721,5.084,50.783c0.03,13.02-1.562,36.779-2.461,40.027
		C73.647,134.307,111.356,125.578,120.752,132.41z"/>
	<path fill="#F37475" d="M16.322,135.109c-0.125,1.481-0.207,2.427-0.207,2.427s-0.918,8.747-0.676,9.713
		c0.241,0.967,3.535,4.978,4.328,4.978c0.794,0,0-0.967,0-0.967s1.035,0.725,1.374,0.387c0.338-0.338-2.465-4.431-2.465-4.978
		c0-0.7,0.298-2.416,1.091-2.706c0.794-0.289,1.229,3.817,1.905,3.817s0.29-5.75-0.339-7.586c-0.608-1.78-1.621-2.929-1.066-5.199
		C18.962,134.939,17.636,134.987,16.322,135.109z"/>
	<path fill="#191134" d="M48.104,12.083c0,0,4.763,1.927,7.075,4.335c2.312,2.408,3.364,7.195,2.901,10.979
		s-1.453,4.473-1.453,4.473s2.187,5.298,1.522,9.839s-5.619,8.876-8.856,9.496c0,0,4.489-5.367,3.896-8.188
		c0,0-3.236,4.61-6.474,6.399S30.902,67.3,20.774,56.072c0,0,5.196-4.111,2.487-11.542s4.757-14.174,4.757-14.174
		s-5.813,3.233-8.853-1.101c-3.039-4.336,2.18-7.707,2.443-7.432c0.265,0.275-2.048,4.197,0.662,5.229
		c2.708,1.032,3.336-3.131,7.597-7.569C34.13,15.047,46.056,9.95,48.104,12.083z"/>
	<path fill="#252033" d="M20.774,155.86c0,0,25.98-4.058,57.617,0L58.988,92.858H27.641L20.774,155.86z"/>
	<path fill="#424D4D" d="M25.677,121.273l3.38,50.934c0,0,0.516,23.761,0.516,36.115c0,12.355,1.934,26.802,1.934,26.802l6.463-0.95
		c0,0,4.751-42.198,4.751-51.132s2.302-47.17,2.302-50.363l2.071,0.563c0,0,0.579,31.563,0.579,38.976s2.496,39.808,0.586,48.552
		l5.107,0.289c0,0,9.694-30.596,6.082-39.724c-3.611-9.128,4.016-48.854,2.829-54.937C61.09,120.315,25.677,121.273,25.677,121.273z
		"/>
	<path fill="#323A39" d="M25.677,121.273l3.019,45.482l8.67-1.903c0,0,4.916-27.339,5.767-36.185
		c0.12-1.244,0.044-3.752-0.174-7.146C34.157,121.044,25.677,121.273,25.677,121.273z"/>
	<path fill="#02597E" d="M40.122,45.36l-14.445,7.35c0,0,6.336,34.722,3.802,44.859c-2.535,10.138-1.774,32.694-1.774,32.694h34.854
		c0.963-2.896,2.043-14.896,4.176-14.447c2.231,0.47-3.295-22.488-3.295-31.899s7.35-33.234,6.082-33.234S57.104,45.36,57.104,45.36
		H40.122z"/>
	<path fill="#014360" d="M43.132,128.668c0.794-8.26-7.014-72.289-8.052-80.742l-9.403,4.784c0,0,6.336,34.722,3.802,44.859
		c-2.535,10.138-1.774,32.694-1.774,32.694h15.255C43.027,129.682,43.085,129.147,43.132,128.668z"/>
	<path fill="#014360" d="M27.603,124.359c0.021,3.541,0.102,5.904,0.102,5.904h34.854c0.357-1.078,0.732-3.416,1.172-5.904H27.603z"
		/>
	<path fill="#014360" d="M27.704,130.264h15.255c0.068-0.582,0.126-1.116,0.173-1.596c0.083-0.865,0.071-2.345-0.017-4.309H27.603
		C27.624,127.9,27.704,130.264,27.704,130.264z"/>
	<path fill="#484066" d="M64.453,164.853l13.938-8.992c0,0-8.724-35.481-8.724-50.688c0-15.206-0.146-54.489-0.146-54.489
		l-11.246-4.446c0,0,0.855,59.693,2.375,76.421C62.172,139.384,64.453,164.853,64.453,164.853z"/>
	<polygon fill="#B44626" points="41.137,63.608 36.828,95.288 51.527,95.288 51.527,63.608 	"/>
	<polygon fill="#E6962B" points="48.74,62.087 47.093,98.583 56.85,102.385 58.624,108.467 64.453,108.467 56.85,58.032 	"/>
	<path fill="#771139" d="M54.568,39.024c0,0-17.437-5.656-17.201-3.745c0.236,1.91,7.104,8.07,7.104,8.07l8.972-2.461L54.568,39.024
		z"/>
	<path fill="#F15F5C" d="M48.656,42.572l0.66-7.754l-10.378-2.441l0.697,8.683C41.473,42.81,45.276,44.323,48.656,42.572z"/>
	<path fill="#F37475" d="M50.551,15.977c0,0,3.494,1.245,3.494,5.997c0,0-0.381,10.882-4.729,16.321
		c-3.188,3.986-7.438,0.988-9.215-0.789c-2.589-2.589-1.854-6.109-1.854-10.861C38.247,21.892,45.773,12.6,50.551,15.977z"/>
	<polygon fill="#F37475" points="68.138,109.063 63.205,117.78 70.817,122.161 72.349,112.677 	"/>
	<path fill="#252033" d="M69.383,50.683c0,0,4.942,0.761,5.893,7.35c0.95,6.59,8.969,44.109,7.733,45.345
		c-1.235,1.236-10.635,12.676-10.635,12.676l-5.62-6.412l5.133-12.273l-2.433-25.713L69.383,50.683z"/>
	<path fill="#293983" d="M23.306,53.471c0,0-4.741,35.948-6.7,42.479s-1.494,39.184-1.494,39.184h5.617l4.948-37.504L23.306,53.471z
		"/>
	<path fill="#484066" d="M31.999,49.236c0,0,1.661,45.291,1.661,56.696s-1.531,54.546-1.531,54.546l-14.436-4.618
		c0,0,4.309-28.892,6.336-46.38c2.027-17.487-1.268-56.01-1.268-56.01L31.999,49.236z"/>
	<path fill="#6D6584" d="M31.999,49.236c0,0,2.967,50.342,2.967,63.44s-2.837,47.802-2.837,47.802L31.999,49.236z"/>
	<path fill="#E6962B" d="M37.334,35.223c0,0,1.015,10.138-3.548,10.138c-4.562,0-4.729,5.322-4.729,5.322s0.422,13.179,9.799,16.728
		c9.377,3.548,25.598-15.386,25.598-18.174c0-2.787-2.146-4.149-5.84-6.027c-2.937-1.494-4.357-0.637-4.357-0.637l0.313-3.548
		c0,0-6.438,2.995-10.605,1.957C40.027,40.002,37.334,35.223,37.334,35.223z"/>
	<path fill="#9F1C4C" d="M36.828,48.174c0,0,7.097,7.07,11.912,8.084c4.814,1.015,11.91-8.084,11.91-8.084
		S53.701,60.82,47.672,60.82C41.644,60.82,36.828,48.174,36.828,48.174z"/>
	<path fill="#9F1C4C" d="M41.137,42.572c0,0,8.616,5.602,11.911,5.602C53.048,48.174,48.993,42.572,41.137,42.572z"/>
	<g>
		<path fill="#673090" d="M48.346,216.438c0,0-0.377,4.784-0.633,8.038c-0.255,3.254-1.838,5.72,1.969,6.72
			c3.807,0.998,8,0.2,8.565-1.871c0.566-2.07-2.843-7.371-2.677-9.477s-0.869-3.061-1.564-2.445
			C53.31,218.017,48.346,216.438,48.346,216.438z"/>
		<path fill="#FFDA88" d="M47.319,229.487c0.598,0.833,1.543,1.035,2.588,1.177c2.225,0.314,7.128,0.615,8.34-1.34
			c0.012,0.578-0.341,1.13-0.752,1.528C54.48,233.608,47.443,232.188,47.319,229.487z"/>
		<path fill="#F2E6F1" d="M54.952,221.868c-0.23,2.678-3.839,3.155-4.719,0.628c-0.015-0.04-0.028-0.08-0.042-0.121
			c-1.38-4.067-1.42-5.155-1.692-6.072c-0.303-1.021-0.692-2.416,1.404-3.201c2.097-0.784,5.03-0.428,4.955,0.529
			C54.809,214.27,55.299,217.84,54.952,221.868z"/>
		<path fill="#FFFFFF" d="M49.903,213.102c-2.097,0.785-1.707,2.18-1.404,3.201c0.272,0.917,0.313,2.005,1.692,6.072
			c0.014,0.041,0.027,0.081,0.042,0.121c0.079,0.228,0.181,0.431,0.3,0.61c-0.025-0.06-0.05-0.121-0.072-0.185
			c-0.013-0.039-0.027-0.08-0.041-0.121c-1.38-4.067-1.42-5.155-1.692-6.072c-0.303-1.021-0.692-2.416,1.405-3.2
			c1.721-0.644,4.005-0.519,4.728,0.075C54.877,212.668,51.98,212.325,49.903,213.102z"/>
		<path fill="#B698C8" d="M50.574,223.167c0,0,0.623-5.899-0.168-6.21c-0.792-0.311-2.061-0.52-2.061-0.52s-0.057,6.005,0.828,7.09
			C50.058,224.613,50.574,223.167,50.574,223.167z"/>
		<g>
			<path fill="#FFFFFF" d="M55.526,219.275c-0.006,0.073-0.044,0.144-0.11,0.186c-2.45,1.582-5.496-0.475-5.625-0.563
				c-0.107-0.073-0.137-0.224-0.065-0.335s0.215-0.143,0.321-0.068c0.029,0.02,2.928,1.974,5.126,0.556
				c0.108-0.07,0.252-0.035,0.319,0.079C55.52,219.174,55.53,219.226,55.526,219.275z"/>
		</g>
		<g>
			<path fill="#FFFFFF" d="M55.475,221.658c-0.005,0.071-0.041,0.14-0.104,0.183c-1.522,1.048-5.272-0.538-5.431-0.605
				c-0.118-0.051-0.175-0.192-0.127-0.315c0.05-0.124,0.185-0.184,0.304-0.133c1.019,0.437,3.904,1.402,4.998,0.649
				c0.107-0.073,0.251-0.043,0.322,0.068C55.467,221.553,55.479,221.605,55.475,221.658z"/>
		</g>
		<g>
			<path fill="#FFFFFF" d="M55.494,223.379c-0.004,0.062-0.031,0.122-0.08,0.165c-1.233,1.09-5.268-0.267-5.724-0.425
				c-0.121-0.042-0.188-0.178-0.146-0.306c0.04-0.126,0.172-0.195,0.294-0.153c1.17,0.406,4.398,1.289,5.275,0.515
				c0.098-0.087,0.244-0.074,0.327,0.028C55.482,223.254,55.5,223.317,55.494,223.379z"/>
		</g>
		<path fill="#B698C8" d="M49.447,225.432c0,0-1.23,2.982-0.709,3.622s7.889,1.159,7.993-0.167s-1.349-4.08-1.989-4.338
			C54.102,224.292,49.447,225.432,49.447,225.432z"/>
	</g>
	<g>
		<path fill="#673090" d="M102.817,219.336c0,0-0.287,3.534-0.543,6.787c-0.257,3.254-1.838,5.721,1.969,6.719
			c3.806,1,7.999,0.201,8.565-1.869c0.565-2.071-2.844-7.372-2.678-9.478c0.166-2.104-0.869-3.061-1.565-2.445
			C107.87,219.664,102.817,219.336,102.817,219.336z"/>
		<path fill="#FFDA88" d="M101.88,231.135c0.598,0.833,1.542,1.036,2.587,1.178c2.225,0.313,7.13,0.615,8.342-1.34
			c0.011,0.577-0.342,1.129-0.754,1.527C109.041,235.256,102.004,233.836,101.88,231.135z"/>
		<path fill="#F2E6F1" d="M109.513,223.516c-0.23,2.678-3.839,3.156-4.72,0.628c-0.014-0.04-0.027-0.08-0.041-0.121
			c-1.381-4.067-1.42-5.155-1.692-6.072c-0.303-1.021-0.692-2.416,1.405-3.2c2.097-0.785,5.029-0.428,4.954,0.529
			C109.369,215.918,109.859,219.487,109.513,223.516z"/>
		<path fill="#FFFFFF" d="M104.465,214.75c-2.098,0.784-1.708,2.18-1.405,3.2c0.272,0.917,0.312,2.005,1.692,6.072
			c0.014,0.041,0.027,0.081,0.041,0.121c0.08,0.228,0.182,0.431,0.301,0.61c-0.025-0.06-0.049-0.121-0.071-0.184
			c-0.015-0.041-0.028-0.081-0.042-0.121c-1.379-4.068-1.42-5.156-1.693-6.073c-0.302-1.021-0.691-2.416,1.405-3.2
			c1.722-0.644,4.006-0.52,4.729,0.075C109.438,214.315,106.541,213.973,104.465,214.75z"/>
		<path fill="#B698C8" d="M105.135,224.814c0,0,0.623-5.899-0.168-6.21c-0.792-0.31-2.149,0.731-2.149,0.731s0.032,4.754,0.917,5.84
			C104.618,226.261,105.135,224.814,105.135,224.814z"/>
		<g>
			<path fill="#FFFFFF" d="M110.087,220.923c-0.006,0.073-0.044,0.144-0.109,0.187c-2.451,1.582-5.497-0.476-5.626-0.564
				c-0.106-0.073-0.137-0.223-0.065-0.335c0.07-0.111,0.214-0.142,0.321-0.068c0.029,0.021,2.928,1.974,5.125,0.556
				c0.109-0.07,0.253-0.035,0.32,0.079C110.08,220.821,110.091,220.873,110.087,220.923z"/>
		</g>
		<g>
			<path fill="#FFFFFF" d="M110.035,223.306c-0.006,0.071-0.041,0.14-0.104,0.183c-1.522,1.048-5.272-0.537-5.432-0.605
				c-0.117-0.051-0.174-0.192-0.126-0.315c0.049-0.124,0.185-0.183,0.303-0.132c1.02,0.436,3.905,1.402,4.999,0.648
				c0.107-0.073,0.251-0.043,0.322,0.068C110.027,223.2,110.039,223.254,110.035,223.306z"/>
		</g>
		<g>
			<path fill="#FFFFFF" d="M110.055,225.027c-0.004,0.062-0.031,0.121-0.081,0.164c-1.232,1.09-5.267-0.266-5.723-0.424
				c-0.121-0.043-0.188-0.179-0.146-0.307c0.04-0.127,0.172-0.195,0.294-0.152c1.17,0.405,4.398,1.289,5.275,0.514
				c0.098-0.086,0.244-0.074,0.326,0.028C110.042,224.901,110.06,224.965,110.055,225.027z"/>
		</g>
		<path fill="#B698C8" d="M104.009,227.08c0,0-1.231,2.981-0.71,3.621s7.889,1.159,7.994-0.167c0.104-1.327-1.35-4.081-1.99-4.337
			C108.662,225.939,104.009,227.08,104.009,227.08z"/>
	</g>
	<g>
		<path fill="#673090" d="M37.976,234.251c0,0,0.376,4.784,0.632,8.038s1.839,5.72-1.969,6.719c-3.807,1-7.998,0.201-8.564-1.869
			c-0.566-2.072,2.843-7.372,2.677-9.478s0.869-3.061,1.564-2.445C33.012,235.83,37.976,234.251,37.976,234.251z"/>
		<path fill="#FFDA88" d="M39.002,247.301c-0.598,0.833-1.543,1.035-2.588,1.177c-2.225,0.314-7.129,0.615-8.34-1.339
			c-0.012,0.577,0.342,1.129,0.752,1.527C31.841,251.422,38.878,250.002,39.002,247.301z"/>
		<path fill="#F2E6F1" d="M31.369,239.682c0.23,2.678,3.84,3.155,4.719,0.628c0.015-0.04,0.028-0.081,0.042-0.121
			c1.38-4.067,1.42-5.155,1.692-6.073c0.303-1.02,0.692-2.415-1.404-3.199c-2.098-0.785-5.031-0.429-4.955,0.529
			C31.513,232.084,31.021,235.653,31.369,239.682z"/>
		<path fill="#FFFFFF" d="M36.418,230.916c2.097,0.784,1.707,2.18,1.404,3.199c-0.272,0.918-0.313,2.006-1.692,6.073
			c-0.014,0.04-0.027,0.081-0.042,0.121c-0.078,0.228-0.18,0.431-0.299,0.61c0.025-0.06,0.049-0.121,0.071-0.185
			c0.013-0.04,0.027-0.08,0.041-0.121c1.38-4.067,1.421-5.155,1.692-6.072c0.303-1.021,0.691-2.416-1.404-3.2
			c-1.722-0.645-4.006-0.52-4.729,0.075C31.444,230.48,34.341,230.139,36.418,230.916z"/>
		<path fill="#B698C8" d="M35.747,240.98c0,0-0.622-5.899,0.169-6.21s2.06-0.52,2.06-0.52s0.057,6.005-0.827,7.09
			C36.264,242.426,35.747,240.98,35.747,240.98z"/>
		<g>
			<path fill="#FFFFFF" d="M30.795,237.089c0.006,0.073,0.045,0.144,0.109,0.186c2.451,1.583,5.497-0.475,5.626-0.563
				c0.106-0.073,0.137-0.224,0.065-0.335c-0.07-0.111-0.215-0.143-0.321-0.069c-0.029,0.021-2.928,1.975-5.126,0.557
				c-0.108-0.07-0.252-0.035-0.319,0.078C30.802,236.987,30.791,237.039,30.795,237.089z"/>
		</g>
		<g>
			<path fill="#FFFFFF" d="M30.847,239.472c0.005,0.071,0.042,0.14,0.104,0.183c1.522,1.048,5.272-0.537,5.431-0.605
				c0.119-0.051,0.175-0.192,0.127-0.315c-0.049-0.124-0.185-0.184-0.303-0.133c-1.02,0.437-3.904,1.403-4.999,0.649
				c-0.106-0.073-0.251-0.043-0.322,0.068C30.855,239.366,30.843,239.42,30.847,239.472z"/>
		</g>
		<g>
			<path fill="#FFFFFF" d="M30.827,241.192c0.005,0.062,0.032,0.122,0.081,0.165c1.232,1.09,5.267-0.266,5.723-0.425
				c0.121-0.042,0.188-0.178,0.146-0.306c-0.04-0.127-0.172-0.195-0.294-0.152c-1.17,0.405-4.397,1.289-5.274,0.514
				c-0.099-0.086-0.245-0.074-0.328,0.028C30.84,241.067,30.822,241.131,30.827,241.192z"/>
		</g>
		<path fill="#B698C8" d="M36.874,243.246c0,0,1.229,2.981,0.709,3.621c-0.521,0.639-7.889,1.158-7.993-0.168s1.35-4.08,1.989-4.337
			C32.22,242.105,36.874,243.246,36.874,243.246z"/>
	</g>
	<g>
		<path fill="#673090" d="M92.896,234.549c0,0,0.584,3.462,0.84,6.716c0.256,3.253,1.838,5.72-1.97,6.719
			c-3.807,0.999-7.998,0.201-8.564-1.87s2.843-7.371,2.677-9.477s0.869-3.061,1.565-2.446
			C88.14,234.806,92.896,234.549,92.896,234.549z"/>
		<path fill="#FFDA88" d="M94.131,246.276c-0.599,0.833-1.544,1.035-2.588,1.177c-2.226,0.313-7.129,0.615-8.341-1.34
			c-0.012,0.577,0.341,1.13,0.753,1.527C86.969,250.397,94.007,248.978,94.131,246.276z"/>
		<path fill="#F2E6F1" d="M86.497,238.656c0.23,2.679,3.839,3.156,4.72,0.629c0.014-0.041,0.027-0.08,0.041-0.121
			c1.38-4.068,1.421-5.156,1.693-6.073c0.302-1.021,0.691-2.415-1.405-3.2c-2.097-0.784-5.03-0.428-4.955,0.529
			C86.641,231.059,86.15,234.629,86.497,238.656z"/>
		<path fill="#FFFFFF" d="M91.546,229.891c2.097,0.785,1.707,2.18,1.405,3.2c-0.272,0.917-0.313,2.005-1.693,6.073
			c-0.014,0.041-0.027,0.08-0.041,0.121c-0.08,0.228-0.182,0.431-0.301,0.61c0.026-0.06,0.05-0.121,0.072-0.185
			c0.014-0.04,0.027-0.08,0.041-0.121c1.38-4.067,1.42-5.155,1.692-6.072c0.303-1.021,0.692-2.416-1.404-3.2
			c-1.721-0.645-4.006-0.52-4.728,0.075C86.572,229.456,89.47,229.114,91.546,229.891z"/>
		<path fill="#B698C8" d="M90.875,239.956c0,0-0.623-5.899,0.169-6.21c0.791-0.311,1.796,0.932,1.796,0.932s0.32,4.553-0.563,5.639
			C91.392,241.401,90.875,239.956,90.875,239.956z"/>
		<g>
			<path fill="#FFFFFF" d="M85.923,236.064c0.006,0.073,0.044,0.143,0.109,0.186c2.452,1.582,5.497-0.476,5.626-0.563
				c0.106-0.073,0.137-0.224,0.065-0.335c-0.07-0.111-0.214-0.143-0.321-0.068c-0.029,0.02-2.928,1.974-5.126,0.556
				c-0.108-0.07-0.252-0.036-0.319,0.078C85.93,235.963,85.92,236.014,85.923,236.064z"/>
		</g>
		<g>
			<path fill="#FFFFFF" d="M85.975,238.447c0.006,0.07,0.041,0.14,0.104,0.182c1.523,1.049,5.272-0.537,5.431-0.605
				c0.119-0.051,0.175-0.191,0.127-0.315c-0.049-0.124-0.185-0.183-0.303-0.132c-1.02,0.436-3.904,1.402-4.999,0.648
				c-0.106-0.073-0.251-0.043-0.322,0.069C85.982,238.341,85.97,238.395,85.975,238.447z"/>
		</g>
		<g>
			<path fill="#FFFFFF" d="M85.955,240.168c0.005,0.062,0.031,0.121,0.081,0.164c1.233,1.091,5.267-0.266,5.723-0.424
				c0.121-0.042,0.188-0.178,0.146-0.307c-0.04-0.126-0.172-0.194-0.294-0.152c-1.17,0.406-4.398,1.289-5.275,0.515
				c-0.098-0.087-0.244-0.074-0.327,0.027C85.968,240.042,85.95,240.106,85.955,240.168z"/>
		</g>
		<path fill="#B698C8" d="M92.001,242.221c0,0,1.231,2.982,0.71,3.621c-0.521,0.641-7.889,1.159-7.993-0.167s1.349-4.08,1.989-4.337
			S92.001,242.221,92.001,242.221z"/>
	</g>
	<path fill="#36304C" d="M71.977,118.727l-9.574-2.674l0.462,5.697l9.112,3.592C71.59,123.104,72.291,120.881,71.977,118.727z"/>
	<ellipse fill="#2D1E66" cx="43.904" cy="27.486" rx="0.907" ry="0.993"/>
	<ellipse fill="#2D1E66" cx="51.228" cy="28.396" rx="0.907" ry="0.992"/>
	<path fill="#2D1E66" d="M41.366,27.203c0,0,1.723-1.128,2.999-0.809c1.275,0.318,1.445,1.091,1.445,1.091s-1.042-0.801-2.424-0.573
		C42.004,27.139,41.366,27.203,41.366,27.203z"/>
	<path fill="#2D1E66" d="M54.011,28.926c0,0-1.38-1.528-2.695-1.544c-1.314-0.016-1.676,0.688-1.676,0.688s1.211-0.51,2.49,0.061
		C53.41,28.7,54.011,28.926,54.011,28.926z"/>
	<path fill="#2D1E66" d="M48.519,29.576c0.158,0.949,0.433,1.858,0.747,2.755c-0.37,0.298-1.137,0.513-1.594,0.647
		c1.483,0.062,1.9-0.531,1.968-0.555C49.64,32.424,49.103,30.699,48.519,29.576z"/>
	<ellipse fill="#F15F5C" cx="42.733" cy="30.853" rx="2.228" ry="1.39"/>
	<path fill="#F15F5C" d="M52.447,30.111c-0.933,0-1.689,0.584-1.689,1.306c0,0.643,0.6,1.176,1.39,1.286
		c0.28-0.849,0.519-1.707,0.723-2.551C52.735,30.125,52.594,30.111,52.447,30.111z"/>
	<path fill="#2D1E66" d="M53.111,14.975c0,0,0.61,6.564-5.175,6.989c-5.783,0.426-9.459,3.303-9.459,3.303l-2.576,7.717
		c0,0-1.247-5.956-1.077-10.325c0.17-4.368,6.407-10.444,10.544-11C49.506,11.104,53.111,14.975,53.111,14.975z"/>
	<path fill="#F37475" d="M39.267,26.305c0,0-0.406-1.44-1.675-1.128c-1.268,0.313-0.646,4.05,0,4.696
		C38.238,30.519,40.52,30.014,39.267,26.305z"/>
	<path fill="#F15F5C" d="M38.938,27.023c0,0-0.751-1.769-1.347-1.174c-0.595,0.596,0.12,3.186,0.64,3.186
		C38.75,29.035,38.938,27.023,38.938,27.023z"/>
	<path fill="#2D1E66" d="M44.537,35.022c-0.152-0.112-0.104-0.151-0.215,0c-0.719,0.983,4.082,2.209,4.082,0.975
		C48.404,35.771,46.833,36.643,44.537,35.022z"/>
	<path fill="#2D1E66" d="M41.983,24.941c0,0,2.126-0.766,2.978-0.766c0.85,0,2.015,0.978,1.794,1.552
		c-0.222,0.575-1.241-0.957-1.943-0.957S41.983,24.941,41.983,24.941z"/>
	<path fill="#2D1E66" d="M53.13,26.798c0,0-0.507-1.237-1.321-1.485c-0.813-0.247-2.212,0.35-2.168,0.963
		c0.045,0.613,1.467-0.554,2.138-0.35S53.13,26.798,53.13,26.798z"/>
	<path fill="#2D1E66" d="M50.758,17.328c0,0-10.455,6.244-11.491,8.977c-1.035,2.73-4.648,6.64-2.25,15.438
		c2.399,8.798-6.736,12.557-10.036,9.795c-3.299-2.762-2.627-8.619,0-8.188c0,0,1.26,2.672,3.312,0.619
		c2.052-2.052,0.261-9.564-0.089-14.393C29.853,24.749,41.983,5.335,50.758,17.328z"/>
	<path fill="#F37475" d="M21.281,54.619c0,0,0.184-1.847,0.818-2.482c0.636-0.635,3.224-1.047,5.398,0.252
		c2.176,1.298,3.442,1.045,2.256,2.23c-1.186,1.186-4.351-0.933-4.351-0.933s4.674,2.096,4.028,3.465
		c-0.645,1.37-3.834-1.461-4.57-0.725c-0.736,0.735,4.409,2.015,3.523,2.9c-0.887,0.887-5.09-1.906-5.09-0.872
		c0,1.033,4.404,1.315,3.236,2.483s-4.268-0.015-5.25,0.483c-0.983,0.498-2.417-3.545-1.727-3.545c0,0-0.227-1.678,0.209-2.111
		C20.198,55.33,21.281,54.619,21.281,54.619z"/>
	<polygon fill="#C75528" points="92.777,49.236 94.354,120.697 95.889,120.697 94.333,49.236 	"/>
	<path fill="#FAAF3C" d="M86.418,49.236c0,0-11.472-8.08-11.472-12.123s3.021-5.227,5.52-7.726s16.12-6.033,20.833-3.531
		c4.712,2.502,6.78,5.882,6.78,9.151c0,3.271-8.143,14.229-9.942,14.229C96.338,49.236,86.418,49.236,86.418,49.236z"/>
	<path fill="#0F2B20" d="M89.146,46.236c0,0-10.473-10.492-6.008-14.957c4.465-4.464,18.753-4.306,20.144,0
		c1.392,4.307-3.594,14.081-5.146,14.081C96.586,45.36,89.146,46.236,89.146,46.236z"/>
	<g>
		<path fill="#F37475" d="M82.521,6.67c0,0-4.497,6.206-5.096,10.359c-0.616,4.273-1.323,11.1-1.323,11.1l1.888-0.045
			c0,0,1.663,3.739,1.723,6.257s4.009,0.85,6.317,0.795c2.308-0.055,7.4-2.169,9.222-9.455C97.073,18.396,100.438,5.406,82.521,6.67
			z"/>
		<path fill="#F37475" d="M99.314,38.926c1.457,3.145-1.597,3.709-4.878,4.827c-2.276,0.775-4.44,1.379-5.632,1.695
			c-0.41,0.108-0.812-0.202-0.805-0.626c0.024-1.547-0.377-4.804-0.758-7.619c-0.225-1.659-0.441-3.166-0.56-4.079
			c0.456-1.229,3.928-10.586,3.704-9.988c0,0,0,0,0-0.007l0.715-1.917L99.314,38.926z"/>
		<path fill="#2A256E" d="M76.123,2.413c-0.207,0.366-3.675,7.859,2.675,10.54c6.35,2.682,7.813-1.431,9.552,1.047
			c1.737,2.479-1.3,6.627,0.118,8.902l2.102,0.352c0,0,0.396-1.25,1.235-1.27c0.84-0.02,1.227,6.329,2.577,6.297
			c1.35-0.031,3.845-5.505,5.044-8.052c1.199-2.548,3.62-11.106-1.258-13.195c-4.877-2.089-6.936-0.36-6.985-2.459
			c-0.05-2.098-2.096,0.155-2.096,0.155s-1.19-1.547-0.499-3.348s-5.197-2.291-6.477,1.309C80.832,6.29,78.338-1.522,76.123,2.413z"
			/>
		<path fill="#F37475" d="M89.953,19.729c0,0-0.005,4.144,0.993,4.119c0.997-0.023,3.13-2.42,2.7-4.906
			C93.217,16.456,90.336,16.824,89.953,19.729z"/>
		<path fill="#F15F5C" d="M90.639,19.263c0,0-0.461,1.658,0.306,2.389c0.766,0.731,2.166-1.1,1.338-2.428
			S90.772,18.31,90.639,19.263z"/>
		<path fill="#2A256E" d="M79.73,18.371l-0.137,1.004c0,0,1.75-0.251,2.734,0.688s1.12,1.045,1.12,1.045S82.884,18.856,79.73,18.371
			z"/>
		
			<ellipse transform="matrix(0.9997 -0.024 0.024 0.9997 -0.4916 1.9506)" fill="#2A256E" cx="80.919" cy="21.431" rx="0.772" ry="0.917"/>
		<path fill="#2A256E" d="M80.426,30.687c0.596-0.014,1.197-0.156,1.672-0.459c0.234-0.155,0.418-0.36,0.543-0.589
			c0.136-0.225,0.165-0.494,0.191-0.75l0.004-0.033c0.017-0.166,0.165-0.286,0.33-0.269c0.166,0.018,0.285,0.165,0.269,0.331
			c-0.002,0.015-0.005,0.031-0.009,0.045c-0.085,0.326-0.188,0.658-0.411,0.924c-0.209,0.268-0.481,0.474-0.774,0.604
			C81.647,30.74,81.019,30.77,80.426,30.687z"/>
		<path fill="#2A256E" d="M73.535,10.031c-0.038,0.344,0.332,0.939,0.543,1.215c1.136,1.405,3.281,1.558,4.72,1.707
			c-0.191,0.016-2.094,0.431-3.71,0.01c-1.744-0.414-2.805-1.531-3.13-2.681L73.535,10.031z"/>
		<path fill="#F15F5C" d="M91.407,34.138c-0.632,0.663-2.802,2.159-4.144,3.063c-0.3-2.258-0.581-4.077-0.581-4.077
			s1.183,0.973,3.688-10.063c0,0,0.009,0.022,0.017,0.067c0,0.007,0,0.007,0,0.007C90.565,24.07,92.295,33.215,91.407,34.138z"/>
		<path fill="#2A256E" d="M79.49,32.629c0,0-0.295,1.631-0.273,2.563c0.023,0.932,2.375,1.907,4.456,1.259
			c2.081-0.647,4.96-2.099,5.657-2.83c0.698-0.731,1.043-10.398,1.043-10.398l-1.905-0.319c0,0-0.789,6.314-1.553,7.115
			C86.152,30.817,79.49,32.629,79.49,32.629z"/>
		
			<ellipse transform="matrix(-0.9816 -0.1912 0.1912 -0.9816 159.5749 63.5199)" fill="#F15F5C" cx="82.852" cy="24.061" rx="2.066" ry="1.266"/>
	</g>
	<path fill="#084A25" d="M86.683,37.798c0,0,8.741-0.399,10.787-2.851c0,0,3.162,4.711,3.162,6.803c0,2.093-3.07,4.697-4.743,5.766
		c-1.674,1.07-6.063,1.35-7.845-2.324C86.263,41.518,86.683,37.798,86.683,37.798z"/>
</g>
</svg>
