<?xml version="1.0" encoding="utf-8"?>
<!-- Generator: Adobe Illustrator 16.0.0, SVG Export Plug-In . SVG Version: 6.00 Build 0)  -->
<!DOCTYPE svg PUBLIC "-//W3C//DTD SVG 1.1//EN" "http://www.w3.org/Graphics/SVG/1.1/DTD/svg11.dtd">
<svg version="1.1" id="Layer_1" xmlns="http://www.w3.org/2000/svg" xmlns:xlink="http://www.w3.org/1999/xlink" x="0px" y="0px"
	 width="166.78px" height="230.437px" viewBox="0 0 166.78 230.437" enable-background="new 0 0 166.78 230.437"
	 xml:space="preserve">
<g>
	<ellipse fill="#892D6D" cx="75.316" cy="222.592" rx="75.316" ry="7.845"/>
	<path fill="#101B29" d="M113.904,6.104c0,0,4.699,17.418,4.699,24.672c0,7.253,8.581,6.759,8.096,5.019
		c0,0,1.402,1.281,0.593,3.277c-0.809,1.996-2.967,2.212-2.967,2.212s0.972,1.457,0.054,2.805c-0.917,1.35-3.183,3.615-6.851,2.051
		s-9.656-12.458-9.656-12.458L113.904,6.104z"/>
	<path fill="#101B29" d="M103.718,2.301c0,0,7.563,1.067,8.789,8.562c1.227,7.495-1.919,21.905-6.253,25.305
		c-4.333,3.399-5.799,13.994-9.499,16.481c-3.699,2.488-11.857,2.341-10.431-4.945c0,0,3.669,1.641,5.53-2.704
		c0,0-6.204,2.442-7.846-3.462c-1.641-5.904,4.245-5.27,4.245-5.27s-3.518,3.146,0.032,3.012c3.549-0.134,6.113-2.806,6.88-6.717
		c0.766-3.91-5.48-2.543-3.474-9.611S101.237,1.558,103.718,2.301z"/>
	<path fill="#F37475" d="M56.012,206.051c-0.431,0.433-4.891,13.086-4.891,13.086l8.199,0.725l0.005-5.113l1.438-7.546
		L56.012,206.051z"/>
	<polygon fill="#F37475" points="139.592,211.95 143.836,220.653 149.519,214.749 143.907,207.491 	"/>
	<path fill="#757F85" d="M111.021,104.996c0,0-17.56,30.943-21.348,41.623c-3.788,10.679-4.691,13.192-12.267,25.454
		c-7.576,12.262-17.079,39.877-17.079,39.877h-8.057c0,0,7.162-47.9,17.263-57.393c10.102-9.493,19.497-58.342,19.497-58.342
		l18.679,2.288L111.021,104.996z"/>
	<path fill="#B0BAC1" d="M95.584,87.968c0,0-9.582,9.751-9.582,16.207c0,6.455,31.038,47.218,31.038,52.534
		s2.734,19.601,6.152,26.436s16.477,33.797,16.477,33.797l7.938-7.006c0,0-15.188-38.563-15.188-46.536s-5.048-20.863-9.226-29.597
		c-4.177-8.733-15.669-37.481-15.669-37.481L95.584,87.968z"/>
	<path fill="#F15F5C" d="M104.188,36.423c0,0,4.39-6.647,8.497-0.497c4.108,6.148-1.41,39.066-0.699,44.04
		c0.711,4.975,16.223,21.567,16.561,22.159c0.337,0.593,4.914,3.973,5.336,4.713c0.421,0.74-1.383,1.1-1.686,1.966
		s-0.603,1.337-1.399,1.801s-1.577,0.558-2.431,1.055s-5.498-3.534-5.511-6.483s-16.922-18.138-19.19-23.585
		C101.397,76.145,100.134,38.784,104.188,36.423z"/>
	<path fill="#DD959E" d="M106.192,34.017c0,0-10.188-1.452-12.044,2.601c-2.107,4.602,1.989,11.84,2.934,19.754
		c1.776,14.881,1.099,25.197-2.934,28.698c-5.902,5.124-11.847,16.472-11.847,16.472s20.938,5.23,33.376,3.454
		c0,0-1.457-10.3-0.392-19.222c1.399-11.729,6.525-24.373,6.525-28.788c0-7.774-1.898-8.923-8.916-22.152
		C111.851,32.864,106.192,34.017,106.192,34.017z"/>
	<path fill="#EBBFC4" d="M115.678,104.996c-5.354-29.972,8.116-40.437,4.833-53.734c-0.999-3.887-4.513-9.549-7.615-16.428
		c11.105,17.998,11.476,17.621,6.925,34.339C115.837,83.277,114.686,89.859,115.678,104.996z"/>
	<path opacity="0.31" fill="#A77177" d="M98.758,83.2c0-3.453,7.824-1.731,3.299-6.256c-4.525-4.526,1.112-16.617,1.112-22.842
		c0-6.226-8.462-18.308-8.462-18.308l-1.153,3.967c0.034,4.453,2.777,10.318,3.528,16.61c1.776,14.881,1.099,25.197-2.934,28.698
		c-5.902,5.124-11.847,16.472-11.847,16.472s8.313,2.077,17.575,3.169C102.354,96.933,98.758,86.44,98.758,83.2z"/>
	<path fill="#F37475" d="M115.724,20.75c0,0-3.809,15.624-2.766,16.668c1.18,1.179,3.149,5.935,3.149,5.935
		s-8.831-5.949-10.12-9.893l1.907-15.542L115.724,20.75z"/>
	<path fill="#F15F5C" d="M107.895,17.917l7.829,2.832c0,0-0.201,0.845-0.498,2.159c-2.598-0.197-6.606-0.702-7.702-1.968
		L107.895,17.917z"/>
	<path fill="#101B29" d="M107.255,5.671l11.723,3.767c0,0,2.205-0.381,1.727-2.826c-0.479-2.445-3.643-4.313-6.662-5.172
		c-3.018-0.859-6.578-0.788-6.578-0.788L107.255,5.671z"/>
	<g>
		<path fill="#010101" d="M100.135,95.237c-0.189-0.454-0.711-0.669-1.165-0.479s-0.669,0.712-0.479,1.166
			c0.19,0.454,0.712,0.668,1.165,0.479C100.11,96.212,100.325,95.691,100.135,95.237z M99.591,96.247
			c-0.368,0.153-0.791-0.021-0.944-0.389s0.021-0.791,0.388-0.944c0.368-0.153,0.791,0.021,0.945,0.388
			C100.133,95.67,99.959,96.092,99.591,96.247z"/>
		<path fill="#863947" d="M71.78,111.268c-1.509,17.297,13.588,27.799,20.698,19.343c5.794-6.492,7.712-16.965,8.021-25.77
			c0.105-2.582,0.274-6.269-1.124-8.593l0.599-0.766c1.621,2.486,1.541,6.832,1.455,9.414c-0.253,9.039-2.155,19.717-8.117,26.496
			c-7.81,9.368-24.397-1.686-22.923-20.277L71.78,111.268z"/>
		<polygon fill="#010101" points="95.883,109.758 92.848,108.596 98.758,96.206 		"/>
		<path fill="#B24B5E" d="M68.161,88.549c-1.021,1.253-7.782,19.444-7.782,19.444s22.764,8.401,31.097,9.3l7.282-21.088
			L68.161,88.549z"/>
		<path fill="#D38792" d="M62.725,107.054c0,0,4.936-13.007,6.985-14.794l15.536,3.182l-15.247-2.487
			C69.999,92.955,67.349,95.808,62.725,107.054z"/>
	</g>
	<path fill="#F37475" d="M103.159,44.055c-0.201-3.439-1.458-5.582-2.843-6.91c-2.071-1.987-5.407-1.73-7.288,0.438
		c-6.603,7.613-18.768,30.012-19.311,35.343c-0.655,6.45,5.842,30.31,4.53,33.128s-0.832,9.084,0.062,9.084
		c0.895,0,2.918,0.498,3.752,0.498c0.835,0,1.931,0.893,2.557,0.235c0.117-0.124-0.026-1.047-0.015-1.599
		c1.09,0.496,2.108,1.92,2.481,1.547c0.611-0.611-0.216-1.115-1.083-2.625c-0.867-1.511-1.85-6.14-1.85-6.14l0,0
		c-0.231-2.19-2.11-32.229-0.526-37.102C85.295,64.817,103.637,52.196,103.159,44.055z"/>
	<path fill="#F37475" d="M110.579,2.274c0,0,4.229-0.104,5.708,1.628c1.479,1.731,2.688,6.313,4.001,7.196
		c1.313,0.883,2.316,1.188,2.316,1.188s0.391,0.199-0.601,0.963c-0.989,0.765-0.548,1.305,0.134,1.171
		c0.683-0.134,0.869,1.172,0.375,1.425c0,0,0.465,0.315,0.467,0.988c0.003,0.673-0.502,0.844-0.502,0.844s-0.033,0.981,0.473,1.711
		c0.506,0.73,0.741,2.91-4.82,2.911c0,0-8.328-0.312-9.241-2.464c-0.913-2.153-6.054-9.621-3.627-13.23S110.579,2.274,110.579,2.274
		z"/>
	<path fill="#1C3753" d="M106.945,0.445c0.698-0.136,6.154,3.72,5.69,7.696c-0.465,3.978-3.636,2.862-5.237,4.213
		c-1.602,1.35,1.447,5.546,1.49,7.48s-2.901,13.625-2.901,13.625s-8.674-21.796-6.924-26.491
		C100.813,2.272,106.945,0.445,106.945,0.445z"/>
	<path fill="#F37475" d="M108.032,12.696c0,0-2.061-2.86-2.602-2.055c-0.542,0.806,0.031,5.512,2.496,5.495
		C110.39,16.121,108.032,12.696,108.032,12.696z"/>
	<path fill="#1C3753" d="M108.889,19.834c0,0,1.529,26.004-7.724,27.299c-9.252,1.295-7.3-8.891-5.543-10.648
		c0,0,0.566,3.169,2.468,2.535s1.423-0.127,0.157-4.184c-1.265-4.057,2.538-2.903,4.693-6.649c2.155-3.745-3.299-6.438-3.17-9.703
		c0.13-3.265-0.809-7.985-0.809-7.985L108.889,19.834z"/>
	<ellipse fill="#1C3753" cx="118.604" cy="10.602" rx="0.36" ry="0.783"/>
	<path fill="#E8BBBD" d="M166.78,212.127c0,0-10.056,9-12.139,9.67c-2.082,0.669-3.494,3.495-5.429,4.462
		c-1.934,0.967-6.168-6.038-6.168-6.038l6.474-7.054c0,0,1.479,0.658,6.909-0.606C161.857,211.297,166.349,210.008,166.78,212.127z"
		/>
	<path fill="#E8BBBD" d="M60.282,216.864c0,0,0.941,0.808,2.422,2.289c1.757,1.756,10.437,7.058,9.351,8.144
		s-12.518,0.754-13.573-0.302c-1.057-1.056-4.042-2.353-6.273-2.353c-2.232,0-2.836-1.991-2.836-4.223
		c0-2.232,3.197-5.671,3.197-5.671L60.282,216.864z"/>
	<path fill="#1C3753" d="M119.189,8.252c0,0,0.229,1.555-2.149,3.133L119.189,8.252z"/>
	
		<ellipse transform="matrix(-0.9813 0.1924 -0.1924 -0.9813 229.7851 5.3102)" fill="#F15F5C" cx="114.635" cy="13.811" rx="2.135" ry="1.032"/>
	<path fill="#1C3753" d="M117.845,8.067c0,0-1.162-0.417-1.969-0.26c-0.807,0.158-1.487,0.63-1.43,0.926
		c0,0,0.803-0.593,1.521-0.621c0.72-0.028,1.15,0.445,1.43,0.39C117.678,8.447,117.845,8.067,117.845,8.067z"/>
	<path fill="#1C3753" d="M106.218,0.784c0,0,1.311-1.124,6.579-0.68s7.474,5.377,7.474,5.377s-3.64-1.543-5.66-1.146
		c-2.021,0.396-6.744,0.524-7.632-0.072C106.091,3.665,106.218,0.784,106.218,0.784z"/>
	<g>
		<path fill="#B980A7" d="M56.57,224.986c-1.914-1.913-6.376-2.316-6.421-2.32c-0.577-0.049-0.488-0.921,0.072-0.859
			c0.197,0.017,4.822,0.433,6.958,2.569c1.938,1.938,10.936,2.412,11.763,1.669c0.426-0.381,0.991,0.229,0.609,0.612
			C68.388,227.821,58.757,227.173,56.57,224.986z"/>
	</g>
	<g>
		<path fill="#B980A7" d="M148.295,224.826c-0.078,0-0.157-0.021-0.228-0.065c-0.202-0.127-0.264-0.393-0.139-0.595
			c0.086-0.138,2.137-3.385,5.488-4.428c3.166-0.985,9.447-6.234,10.046-7.221c0.124-0.203,0.388-0.269,0.593-0.145
			c0.203,0.123,0.269,0.389,0.145,0.593c-0.746,1.229-7.285,6.588-10.526,7.597c-3.039,0.945-4.993,4.028-5.012,4.06
			C148.58,224.752,148.438,224.826,148.295,224.826z"/>
	</g>
	<path fill="#F15F5C" d="M108.003,13.099c0,0-1.08-1.567-1.404-1.085s0.639,3.098,1.182,2.991S108.305,13.937,108.003,13.099z"/>
</g>
</svg>
