<?xml version="1.0" encoding="utf-8"?>
<!-- Generator: Adobe Illustrator 16.0.0, SVG Export Plug-In . SVG Version: 6.00 Build 0)  -->
<!DOCTYPE svg PUBLIC "-//W3C//DTD SVG 1.1//EN" "http://www.w3.org/Graphics/SVG/1.1/DTD/svg11.dtd">
<svg version="1.1" id="Layer_1" xmlns="http://www.w3.org/2000/svg" xmlns:xlink="http://www.w3.org/1999/xlink" x="0px" y="0px"
	 width="937.5px" height="937.5px" viewBox="491.25 31.25 937.5 937.5" enable-background="new 491.25 31.25 937.5 937.5"
	 xml:space="preserve">
<title></title>
<g id="Layer_28">
	<path fill="#29333D" d="M960,968.75c-258.884,0-468.75-209.866-468.75-468.75c0-258.883,209.866-468.75,468.75-468.75
		S1428.75,241.117,1428.75,500C1428.75,758.884,1218.884,968.75,960,968.75z M960,93.75c-224.365,0-406.25,181.884-406.25,406.25
		c0,224.365,181.885,406.25,406.25,406.25S1366.25,724.365,1366.25,500C1366.25,275.634,1184.365,93.75,960,93.75z"/>
	<path fill="#29333D" d="M887.188,687.5c-8.661-0.027-16.923-3.649-22.813-10L718.438,521.25
		c-10.87-13.405-8.814-33.085,4.591-43.955c12.122-9.83,29.639-9.209,41.034,1.455l123.125,131.563l268.75-287.813
		c10.87-13.405,30.55-15.461,43.955-4.591s15.461,30.55,4.591,43.955c-0.901,1.111-1.877,2.158-2.921,3.136L910,677.5
		C904.11,683.851,895.849,687.473,887.188,687.5z"/>
</g>
</svg>
