<?xml version="1.0" encoding="utf-8"?>
<!-- Generator: Adobe Illustrator 16.0.0, SVG Export Plug-In . SVG Version: 6.00 Build 0)  -->
<!DOCTYPE svg PUBLIC "-//W3C//DTD SVG 1.1//EN" "http://www.w3.org/Graphics/SVG/1.1/DTD/svg11.dtd">
<svg version="1.1" id="Layer_1" xmlns="http://www.w3.org/2000/svg" xmlns:xlink="http://www.w3.org/1999/xlink" x="0px" y="0px"
	 width="552.882px" height="550.266px" viewBox="3.945 -0.009 552.882 550.266"
	 enable-background="new 3.945 -0.009 552.882 550.266" xml:space="preserve">
<circle fill="#4FCCFC" cx="283.992" cy="269.07" r="133.615"/>
<g>
	<g>
		<circle fill="#406CCF" cx="101.672" cy="433.414" r="28.387"/>
	</g>
	<g>
		<circle fill="#406CCF" cx="182.574" cy="492.193" r="28.387"/>
	</g>
	<g>
		<circle fill="#406CCF" cx="280.389" cy="512.983" r="28.387"/>
	</g>
	<g>
		<path fill="#406CCF" d="M384.106,519.959c-15.334,3.261-30.409-6.53-33.67-21.866c-3.257-15.335,6.531-30.409,21.867-33.668
			c15.333-3.26,30.408,6.528,33.669,21.865C409.23,501.624,399.441,516.698,384.106,519.959z"/>
	</g>
	<g>
		<circle fill="#406CCF" cx="459.106" cy="433.413" r="28.387"/>
	</g>
	<g>
		<circle fill="#406CCF" cx="509.105" cy="346.81" r="28.387"/>
	</g>
	<g>
		<circle fill="#406CCF" cx="519.558" cy="247.358" r="28.387"/>
	</g>
	<g>
		<circle fill="#406CCF" cx="488.656" cy="152.252" r="28.387"/>
	</g>
	<g>
		<circle fill="#406CCF" cx="421.743" cy="77.938" r="28.387"/>
	</g>
	<g>
		<circle fill="#406CCF" cx="330.388" cy="37.264" r="28.387"/>
	</g>
	<g>
		<circle fill="#406CCF" cx="230.388" cy="37.264" r="28.387"/>
	</g>
	<g>
		<circle fill="#406CCF" cx="139.033" cy="77.938" r="28.387"/>
	</g>
	<g>
		<circle fill="#406CCF" cx="72.12" cy="152.253" r="28.387"/>
	</g>
	<g>
		<circle fill="#406CCF" cx="41.219" cy="247.359" r="28.387"/>
	</g>
	<g>
		<circle fill="#406CCF" cx="51.672" cy="346.812" r="28.387"/>
	</g>
	<g>
		<circle fill="#406CCF" cx="101.672" cy="433.414" r="28.387"/>
	</g>
	<g>
		<circle fill="#406CCF" cx="182.574" cy="492.193" r="28.387"/>
	</g>
	<g>
		<circle fill="#406CCF" cx="280.389" cy="512.983" r="28.387"/>
	</g>
	<g>
		<circle fill="#406CCF" cx="378.204" cy="492.192" r="28.387"/>
	</g>
	<g>
		<circle fill="#406CCF" cx="459.105" cy="433.413" r="28.387"/>
	</g>
	<g>
		<circle fill="#406CCF" cx="509.105" cy="346.811" r="28.387"/>
	</g>
	<g>
		<circle fill="#406CCF" cx="519.558" cy="247.358" r="28.387"/>
	</g>
	<g>
		<circle fill="#406CCF" cx="488.656" cy="152.253" r="28.387"/>
	</g>
	<g>
		<circle fill="#406CCF" cx="421.743" cy="77.938" r="28.387"/>
	</g>
	<g>
		<circle fill="#406CCF" cx="330.389" cy="37.265" r="28.387"/>
	</g>
	<g>
		<circle fill="#406CCF" cx="230.389" cy="37.265" r="28.387"/>
	</g>
</g>
<title></title>
</svg>
