<?xml version="1.0" encoding="utf-8"?>
<!-- Generator: Adobe Illustrator 16.0.0, SVG Export Plug-In . SVG Version: 6.00 Build 0)  -->
<!DOCTYPE svg PUBLIC "-//W3C//DTD SVG 1.1//EN" "http://www.w3.org/Graphics/SVG/1.1/DTD/svg11.dtd">
<svg version="1.1" id="Layer_1" xmlns="http://www.w3.org/2000/svg" xmlns:xlink="http://www.w3.org/1999/xlink" x="0px" y="0px"
	 width="224.359px" height="251.092px" viewBox="0 0 224.359 251.092" enable-background="new 0 0 224.359 251.092"
	 xml:space="preserve">
<g>
	<path fill="#F37458" d="M71.091,43.545l-1.172-2.729l-2.912-0.582c-0.332-0.066-0.443-0.484-0.189-0.707l2.233-1.958l-0.347-2.95
		c-0.039-0.336,0.323-0.571,0.614-0.398l2.552,1.52l2.698-1.241c0.308-0.142,0.644,0.131,0.569,0.461l-0.656,2.896l2.014,2.183
		c0.229,0.249,0.074,0.652-0.263,0.684l-2.957,0.271l-1.454,2.59C71.657,43.879,71.225,43.855,71.091,43.545z"/>
	<g>
		<polygon fill="#51C0A5" points="120.512,10.479 121.423,9.316 124.263,11.541 126.667,7.32 127.95,8.051 124.701,13.76 		"/>
	</g>
	<g>
		<g>
			<circle fill="#F7CC7F" cx="90.076" cy="7.247" r="7.246"/>
			<path fill="#EFEFEF" d="M86.107,8c-0.215,2.129,1.336,4.029,3.465,4.244s4.028-1.337,4.243-3.466L86.107,8z"/>
		</g>
	</g>
	<path fill="#F58D80" d="M137.78,36.893l2.192-2.347l-1.217-0.806c-0.266-0.176-0.34-0.535-0.163-0.801l0,0
		c0.176-0.267,0.535-0.34,0.801-0.163l1.403,0.929l1.963-2.109l-1.3-0.859c-0.267-0.177-0.34-0.535-0.163-0.802l0,0
		c0.176-0.267,0.535-0.339,0.801-0.163l1.486,0.984l2.271-2.411c0.193-0.204,0.506-0.241,0.74-0.085l0.227,0.149
		c0.298,0.197,0.348,0.614,0.104,0.876l-2.119,2.279l2.154,1.426l2.271-2.41c0.193-0.205,0.505-0.241,0.739-0.086l0.248,0.164
		c0.298,0.197,0.348,0.614,0.104,0.876l-2.12,2.278l1.217,0.806c0.267,0.177,0.34,0.535,0.163,0.802l0,0
		c-0.176,0.266-0.534,0.339-0.801,0.162l-1.403-0.928l-1.941,2.122l1.301,0.86c0.266,0.176,0.339,0.535,0.162,0.801l0,0
		c-0.176,0.267-0.535,0.34-0.801,0.164l-1.486-0.984l-2.325,2.489c-0.192,0.206-0.506,0.243-0.741,0.088l-0.266-0.176
		c-0.298-0.197-0.348-0.615-0.104-0.877l2.192-2.347l-2.154-1.426l-2.325,2.488c-0.192,0.207-0.506,0.244-0.742,0.088l-0.265-0.176
		C137.585,37.572,137.536,37.154,137.78,36.893z M144.195,35.954l1.961-2.109l-2.154-1.426l-1.962,2.108L144.195,35.954z"/>
	<g>
		<path fill="#F58D80" d="M108.062,101.909c0,0,1.032-1.799,3.441-2.069c2.146-0.241,3.818,1.299,4.042,3.287
			c0.258,2.301-1.453,5.25-6.426,8.204c-5.503-1.778-7.825-4.274-8.084-6.575c-0.224-1.987,1.064-3.86,3.213-4.102
			C106.657,100.384,108.062,101.909,108.062,101.909z"/>
		<g>
			<path fill="#F58D80" d="M90.411,104.812c2.124,0.104,3.837,0.081,5.52-0.022c0.554-0.034,1.526,0.07,1.882-0.429
				c0.185-0.26,0.197-0.562-0.042-0.8c-0.437-0.437-1.261-0.204-1.819-0.17c-1.704,0.104-3.637,0.14-5.593,0.063
				c-0.366-0.015-0.665,0.358-0.652,0.704C89.72,104.553,90.043,104.793,90.411,104.812L90.411,104.812z"/>
		</g>
		<g>
			<path fill="#F58D80" d="M119.118,107.467c0.816-0.035,1.631-0.086,2.446-0.135c0.78-0.047,1.71,0.035,2.433-0.274
				c0.533-0.229,0.54-0.956-0.046-1.128c-0.757-0.222-1.658-0.032-2.439,0.017c-0.816,0.052-1.631,0.1-2.445,0.163
				C118.196,106.178,118.242,107.506,119.118,107.467L119.118,107.467z"/>
		</g>
		<g>
			<path fill="#F58D80" d="M98.558,115.043c0.923-1.777,2.139-2.378,3.052-3.092c0.489-0.382,0.163-1.118-0.454-0.984
				c-1.693,0.369-3.055,1.983-3.802,3.458C96.961,115.201,98.156,115.817,98.558,115.043L98.558,115.043z"/>
		</g>
		<g>
			<path fill="#F58D80" d="M108.206,118.803c-0.08-0.84-0.001-1.67,0.265-2.475c0.162-0.491,1.057-1.888,0.084-2.084
				c-0.916-0.186-1.315,1.325-1.494,1.964c-0.24,0.855-0.311,1.765-0.218,2.647C106.934,119.725,108.291,119.68,108.206,118.803
				L108.206,118.803z"/>
		</g>
		<g>
			<path fill="#F58D80" d="M114.825,113.274c0.472,0.304,0.943,0.606,1.416,0.909c0.471,0.303,0.932,0.756,1.521,0.6
				c0.332-0.088,0.444-0.432,0.388-0.732c-0.102-0.547-0.843-0.831-1.274-1.104c-0.474-0.3-0.947-0.601-1.42-0.9
				c-0.315-0.2-0.771-0.011-0.931,0.299C114.341,112.703,114.509,113.072,114.825,113.274L114.825,113.274z"/>
		</g>
		<g>
			<path fill="#F58D80" d="M102.169,97.232c-1.969-4.066-1.936-4.09-2.305-4.412c-0.379-0.331-1.021-0.055-0.993,0.465
				c0.028,0.513,0.032,0.428,2.12,4.699c0.166,0.339,0.672,0.399,0.965,0.213C102.306,97.975,102.335,97.573,102.169,97.232
				L102.169,97.232z"/>
		</g>
		<g>
			<path fill="#F58D80" d="M109.605,96.763c0.231-0.708,0.385-1.432,0.461-2.173c0.071-0.688,0.273-1.733-0.388-2.172
				c-0.142-0.095-0.396-0.077-0.53,0.024c-0.556,0.426-0.383,1.348-0.451,1.982c-0.074,0.692-0.223,1.376-0.413,2.046
				c-0.101,0.352,0.173,0.73,0.515,0.807C109.184,97.362,109.491,97.111,109.605,96.763L109.605,96.763z"/>
		</g>
		<g>
			<path fill="#F58D80" d="M120.142,96.848c0.104-0.325-0.17-0.61-0.448-0.703c-0.574-0.19-1.281,0.396-1.737,0.702
				c-0.531,0.355-1.022,0.761-1.489,1.197c-0.27,0.251-0.207,0.731,0.049,0.964c0.301,0.271,0.685,0.193,0.964-0.05
				C119.302,97.374,119.886,97.647,120.142,96.848z"/>
		</g>
	</g>
	<polygon fill="#476EB5" points="178.292,49.355 176.698,51.184 173.931,50.188 171.321,52.712 168.97,52.344 168.274,53.575 
		171.417,54.067 173.891,51.675 176.769,52.712 179.168,49.961 	"/>
	<path fill="#98D5C7" d="M30.306,43.089c-2.28,3.193-0.175,7.836,3.115,9.331c3.638,1.652,8.164,0.376,10.535-2.797
		c2.564-3.434,1.929-7.627-1.395-9.769c-3.234-2.085-7.014-0.241-7.672,3.317c-0.472,2.553,1.078,4.433,2.401,4.371
		c1.032-0.049,1.619-1.254,0.788-1.971c-0.334-0.286-0.838-0.285-1.195-0.104c-0.649-0.772-0.625-2.7,0.782-4.037
		c1.799-1.708,4.485-0.414,5.594,1.43c1.41,2.348,0.309,5.176-1.59,6.88c-1.993,1.789-5.113,2.364-7.576,1.255
		c-2.791-1.256-4.047-4.59-2.82-7.383C31.564,42.954,30.714,42.518,30.306,43.089z"/>
	<g>
		<g>
			<path fill="#F8A491" d="M61.841,235.375c0,0-0.402,7.475-0.405,7.49c-0.153,0.949-0.763,3.297-0.76,4.158
				c0.01,3.24,14.489-2.813,11.236-4.234c-0.294-0.129-2.298-1.837-2.397-2.939c-0.154-1.699-0.084-4.402-0.084-4.402
				L61.841,235.375z"/>
			<path fill="#194655" d="M71.876,242.758c0,0-3.4,1.006-5.144,1.262c-1.742,0.256-4.047-1.821-5.278-1.252
				c-1.355,0.626-1.427,7.771-1.427,7.771s17.85,1.279,22.413-0.055C84.491,249.885,78.841,245.037,71.876,242.758z"/>
		</g>
		<g>
			<path fill="#F8A491" d="M89.793,235.254c0,0-0.402,7.475-0.405,7.49c-0.154,0.95-0.763,3.297-0.76,4.159
				c0.01,3.24,14.489-2.813,11.236-4.235c-0.295-0.129-2.297-1.836-2.397-2.939c-0.154-1.698-0.083-4.402-0.083-4.402
				L89.793,235.254z"/>
			<path fill="#194655" d="M99.829,242.638c0,0-3.401,1.006-5.144,1.262c-1.742,0.255-4.047-1.821-5.278-1.253
				c-1.355,0.626-1.427,7.771-1.427,7.771s17.85,1.28,22.412-0.055C112.443,249.764,106.794,244.916,99.829,242.638z"/>
		</g>
		<path fill="#F15F5C" d="M101.479,39.176c0.479,3.648,1.056,3.414,1.104,3.884c0.058,0.555-3.278,7.267-3.278,7.267
			s-9.704,19.845-10.265,20.898L71.717,85.863L76.25,96.6c0,0,18.438-16.431,19.258-17.46c0.82-1.028,10.904-29.367,11.87-31.834
			c0,0,2.208-2.524,3.545-4.156c1.336-1.63,1.902-3.774,2.21-4.292c0.046-0.076,0.975-1.858,1.551-4.354
			c0.496-2.151-0.936-0.327-0.936-0.327s-1.617,3.828-1.889,3.65c-0.209-0.137,0.795-2.176,1.368-4.551
			c0.147-0.611,0.29-1.214,0.418-1.77c0.334-1.456-0.442-2.068-1.029-0.597c-0.207,0.52-0.531,1.391-0.677,2.044
			c-0.156,0.706-0.522,1.307-0.742,1.88c-0.438,1.14-0.743,1.976-0.779,1.933c-0.046-0.057-0.288,0.109-0.151-0.543
			c0.165-0.785,0.874-2.379,1.029-3.551c0.087-0.664,0.353-2.043,0.353-2.043s0.022-2.154-0.1-2.196
			c-0.666-0.226-1.087,1.247-1.091,2.165c-0.296,0.586-0.536,2.044-0.536,2.044s-1.13,2.848-1.524,2.696
			c-0.168-0.064,0.322-1.893,0.529-3.756c0.19-1.732,0.108-3.509-0.221-3.594c-0.558-0.146-0.971,1.758-0.971,1.758
			s-0.22,1.347-0.326,1.789c-0.124,0.519-0.613,2.044-0.613,2.044s-1.944,5.233-2.305,5.057c-0.36-0.176-1.104-1.007-1.094-1.372
			s0.374-1.029,0.386-1.395s-0.281-0.847-0.719-0.888c-0.438-0.042-1.152,1.712-1.152,1.712S101.341,38.123,101.479,39.176z"/>
		<path fill="#F15F5C" d="M14.1,46.597c0.217,3.673-0.394,3.552-0.354,4.022c0.048,0.556,4.587,6.518,4.587,6.518
			s13.264,17.658,14.013,18.587l19.766,11.107L49.68,98.23c0,0-21.199-12.657-22.198-13.513
			C26.484,83.861,11.25,57.935,9.837,55.694c0,0-2.645-2.063-4.264-3.413c-1.619-1.35-2.578-3.348-2.979-3.798
			C2.537,48.417,1.29,46.842,0.253,44.5c-0.892-2.02,0.857-0.499,0.857-0.499s2.309,3.455,2.541,3.229
			c0.18-0.174-1.189-1.988-2.199-4.212c-0.259-0.572-0.514-1.137-0.742-1.658c-0.604-1.368,0.044-2.115,0.897-0.78
			c0.301,0.471,0.783,1.266,1.048,1.88c0.287,0.663,0.76,1.184,1.084,1.706c0.645,1.036,1.102,1.8,1.129,1.75
			c0.034-0.063,0.304,0.054,0.046-0.562c-0.31-0.739-1.306-2.171-1.679-3.293c-0.21-0.636-0.731-1.939-0.731-1.939
			s-0.427-2.112-0.313-2.177c0.61-0.347,1.302,1.021,1.478,1.921c0.401,0.521,0.911,1.907,0.911,1.907s1.646,2.582,2.004,2.359
			c0.153-0.095-0.672-1.797-1.226-3.59c-0.514-1.664-0.767-3.424-0.46-3.57c0.521-0.247,1.284,1.543,1.284,1.543
			s0.47,1.282,0.657,1.696c0.22,0.485,0.987,1.892,0.987,1.892s2.893,4.771,3.214,4.531s0.896-1.198,0.816-1.555
			c-0.08-0.356-0.563-0.939-0.642-1.296s0.117-0.885,0.538-1.008c0.423-0.123,1.455,1.464,1.455,1.464S14.038,45.537,14.1,46.597z"
			/>
		<path fill="#B85742" d="M65.753,140.259c0,0,22.121,51.876,22.947,56.555c0.604,3.415-0.05,42.297-0.05,42.297l10.385-0.211
			l3.514-44.429l-13.835-55.955L65.753,140.259z"/>
		<polygon fill="#F37458" points="56.11,142.746 66.291,200.425 59.864,239.068 71.692,239.018 80.857,197.451 82,151.94 
			77.165,137.315 		"/>
		<path fill="#F69321" d="M84.588,74.105c0,0,2.63,11.613,4.458,13.418c0,0-9.264,6.207-8.826,8.649s10.426,48.091,10.426,48.091
			s-20.25,10.596-32.867,8.955c0,0-9.653-52-12.118-54.433c-2.464-2.433-10.104-6.271-10.104-6.271s5.672-10.915,5.666-12.844
			c0,0,13.558,6.203,15.852,8.467c2.293,2.264,6.715-0.637,7.78-1.091C64.854,87.047,82.964,75.101,84.588,74.105z"/>
		<path fill="#F15F5C" d="M58.83,77.543l-1.688,10.687c0,0,4.528,7.441,8.132,6.313c3.024-0.946,2.746-6.836,2.746-6.836
			s-1.668-6.088-1.183-9.14S58.83,77.543,58.83,77.543z"/>
		<path fill="#D0405A" d="M66.836,78.567c0.485-3.052-8.007-1.024-8.007-1.024l-0.135,0.894c0.25,0.597,0.556,1.106,0.926,1.497
			c1.905,2.011,4.876,3.21,7.441,3.29C66.801,81.58,66.637,79.818,66.836,78.567z"/>
		<g>
			<path fill="#F15F5C" d="M57.39,62.309c-0.241-0.084-1.89,12.277,1.319,15.663c3.208,3.386,9.441,4.472,11.669,1.784
				c2.463-2.973,2.3-16.25-2.683-19.726C62.712,56.555,57.39,62.309,57.39,62.309z"/>
			<path fill="#131131" d="M57.658,55.508c-1.744,0.211-4.787,2.625-7.224,6.642c-2.997,4.938,0.807,10.971,4.319,13.633
				c3.514,2.662,3.45,5.762,3.45,5.762l0.574-1.608c0.405-1.214,0.568-2.5,0.428-3.77c-0.084-0.763-0.252-1.587-0.574-2.264
				c-0.849-1.784,1.803-2.983,2.542-4.475c0.57-1.147,0.59-3.769,1.487-5.666l1.074-1.449c0,0,3.047,0.248,4.917-1.395
				C74.023,56.2,65.782,50.02,57.658,55.508z"/>
			
				<ellipse transform="matrix(0.9998 -0.0214 0.0214 0.9998 -1.5215 1.2893)" fill="#F15F5C" cx="59.422" cy="71.661" rx="1.596" ry="2.73"/>
		</g>
		<g>
			<path fill="#2A256E" d="M69.9,65.016l0.237,0.985c0,0-1.767-0.074-2.651,0.958c-0.885,1.033-1.01,1.152-1.01,1.152
				S66.812,65.815,69.9,65.016z"/>
			
				<ellipse transform="matrix(-0.9971 0.0765 -0.0765 -0.9971 143.0625 130.878)" fill="#2A256E" cx="69.024" cy="68.179" rx="0.772" ry="0.917"/>
			<path fill="#2A256E" d="M70.445,77.339c-0.595,0.047-1.207-0.035-1.709-0.289c-0.249-0.131-0.453-0.315-0.6-0.531
				c-0.157-0.209-0.214-0.476-0.266-0.728l-0.007-0.032c-0.033-0.163-0.193-0.268-0.356-0.233c-0.162,0.033-0.267,0.193-0.233,0.355
				c0.003,0.015,0.008,0.031,0.013,0.045c0.118,0.315,0.254,0.636,0.502,0.878c0.234,0.245,0.527,0.423,0.831,0.522
				C69.235,77.515,69.864,77.481,70.445,77.339z"/>
			
				<ellipse transform="matrix(0.9574 -0.2888 0.2888 0.9574 -17.6315 22.48)" opacity="0.5" fill="#F15F5C" cx="67.365" cy="70.99" rx="2.066" ry="1.267"/>
		</g>
	</g>
	<g>
		<path fill="#13375B" d="M171.41,64.19c-5.322-2.882-11.751-1.731-15.401,3.005c-3.218-0.983-6.84-0.598-9.713,1.061
			c-5.667,3.271-9.147,12.437-4.552,17.414c1.119,5.122,3.168,9.167,8.26,9.232c3.008,5.528,12.376,7.143,17.794,1.959
			c4.728,1.494,9.783-1.211,13.067-4.967c0.774-0.887,1.43-2.282,1.725-2.468c0.005-0.002,12.194-2.243,11.088-14.053
			C192.519,63.014,179.675,54.486,171.41,64.19z"/>
		<path fill="#F8A492" d="M124.835,212c0.279,5.347,1.287,10.154,1.436,10.725c0.072,0.273,0.946,1.356,1.027,1.638
			c-1.32,6.299-5.672,9.562-9.651,11.77c1.188-3.106,3.404-6.556,3.266-7.3c-0.222-1.186-0.989-6.565-3.185-13.496
			C120.807,215.385,122.126,213.603,124.835,212z"/>
		<path fill="#35548A" d="M139.713,135.188l18.952,15.346c0,0-9.55,9.415-13.132,12.915c-3.583,3.499-21.604,16.108-21.921,16.914
			c-0.064,0.162,0.885,2.085,1.178,4.481c0.791,6.476,1.684,19.069,1.95,29.868c-2.04,2.139-6.456,2.646-9.096,3.317
			c-6.493-13.271-8.839-38.741-8.81-41.801C108.884,171.246,139.713,135.188,139.713,135.188z"/>
		<path fill="#F8A492" d="M194.993,168.574c-0.744,0.477-6.58,7.749-9.077,11.791c-1.93-2.016-2.907-4.104-5.206-5.697
			c2.639-2.532,8.083-8.84,8.776-10.484c1.643-3.9,2.659-4.291,2.659-4.291s12.077,7.727,12.667,9.23
			C205.4,170.625,197.981,166.66,194.993,168.574z"/>
		<path fill="#194655" d="M189.135,165.054c-1.016-0.237,1.132-4.771,1.604-5.821c0.533-1.181,1.303-1.39,1.483-1.394
			c0.49-0.01,13.912,8.577,15.967,11.006c0.139,0.165,0.352,0.632,0.378,0.731c0.774,2.942-11.322,0.601-12.798-0.955
			C194.458,167.238,193.705,166.123,189.135,165.054z"/>
		<path fill="#476EB5" d="M135.589,139.625c0,0,18.032-7.639,18.035-7.641c-0.066,0.03,0.085,0.713,0.106,0.764
			c2.682,6.115,8.98,5.93,11.91,15.849c2.315,7.843,1.024,34.102,1.024,34.102s7.807-5.691,16-11.763
			c0.748-0.554,6.612,5.97,6.612,5.97c-11.153,18.69-28.405,25.893-30.59,25.03c-7.456-2.946-18.537-53.086-18.518-53.082
			C138.732,145.852,135.589,139.625,135.589,139.625z"/>
		<path fill="#F37475" d="M162.711,97.444c0,0,20.519-4.104,25.085-4.738c4.565-0.634,20.494-5.739,21.107-5.959
			c0.611-0.22,3.1-8.532,3.972-7.898s-1.485,4.179-0.387,4.71s10.716-3.402,10.759-2.601c0.08,1.501-5.793,2.643-5.629,3.339
			c0.164,0.695,6.015-1.779,6.69-0.715c0.677,1.064-5.757,1.805-5.891,2.379c-0.133,0.574,6.155,0.14,5.778,1.357
			c-0.203,0.662-5.603,0.246-5.396,1.038c0.205,0.792,4.297,1.77,3.99,2.507c-0.307,0.738-3.331-1.293-5.473-0.84
			c-2.144,0.453-3.937-0.363-7.123,1.389c-3.187,1.751-13.692,9.287-21.046,10.579c-7.354,1.293-23.595,4.195-23.595,4.195
			L162.711,97.444z"/>
		<path fill="#F37475" d="M139.064,95.236c0,0-7.768-19.43-9.73-23.601s-6.385-20.303-6.535-20.936
			c-0.151-0.633,5.454-7.258,4.446-7.642c-1.007-0.384-2.688,3.527-3.733,2.896c-1.046-0.631-3.002-10.835-3.697-10.433
			c-1.302,0.753,0.95,6.296,0.277,6.538s-1.795-6.009-3.057-5.995c-1.26,0.015,1.633,5.81,1.225,6.234
			c-0.407,0.425-3.479-5.08-4.293-4.1c-0.442,0.532,2.854,4.828,2.079,5.089c-0.776,0.26-3.83-2.635-4.28-1.975
			s2.902,2.084,3.693,4.127c0.789,2.042,2.453,3.099,2.727,6.725c0.273,3.625-0.303,16.541,2.631,23.408
			c2.934,6.865,9.373,22.055,9.373,22.055L139.064,95.236z"/>
		<path fill="#EC2179" d="M132.873,118.565c-0.25-3.608-0.637-13.341-0.471-14.536c-1.007-3.754-4.76-9.343-5.543-10.921
			c0,0,5.225-6.064,9.054-5.976c0,0,4.022,5.416,7.03,7.094c0.044-0.012,1.064,0.488,1.516,0.489
			c2.921,0.007,13.126-0.218,15.023,0.396l-1.238,16.464c-0.559,0.938-1.408,19.876-2.552,21.424s-17.636,8.485-20.339,6.629
			C135.246,139.555,133.377,125.859,132.873,118.565z"/>
		<path fill="#EC2179" d="M154.277,95.316c0.46-0.225,1.538-0.468,3.104-0.479c4.629-0.035,12.423-0.152,12.423-0.152
			s1.807,9.929,0.246,12.296c0,0-12.195,1.774-11.858,2.821L154.277,95.316z"/>
		<path fill="#F37475" d="M151.173,88.713c0,0-1.113,5.705-0.924,7.962c0.19,2.257-0.898,9.513-5.465,9.492
			s-0.777-9.246-0.326-11.451c0.452-2.205,0.621-9.042,0.621-9.042L151.173,88.713z"/>
		<path fill="#F15F5C" d="M144.951,89.104c0.09-1.87,0.129-3.43,0.129-3.43l6.094,3.039c0,0-0.228,1.168-0.459,2.654
			C148.029,91.903,146.095,90.848,144.951,89.104z"/>
		<path fill="#F37475" d="M153.565,72.962c0,0,2.347,1.392,3.181,4.364c0.833,2.974-0.223,10.614-6.336,12.401
			c-6.114,1.786-8.695-4.298-7.394-9.021C144.317,75.982,147.107,70.011,153.565,72.962z"/>
		<path fill="#F37475" d="M142.271,78.863c0.107,1.273,0.77,2.252,1.479,2.186c0.71-0.065,1.198-1.15,1.092-2.424
			c-0.107-1.273-0.77-2.252-1.479-2.187C142.654,76.504,142.165,77.59,142.271,78.863z"/>
		<path fill="#194655" d="M126.299,222.886c0.505-0.95,3.966,2.761,4.795,3.531c0.934,0.866,0.907,1.696,0.86,1.879
			c-0.127,0.481-11.498,11.794-14.582,13.154c-0.292,0.129-0.862,0.057-1.021-0.034c-1.515-0.854,2.356-10.84,4.7-12.6
			C122.566,227.68,124.024,227.166,126.299,222.886z"/>
		<path fill="#13375B" d="M152.854,72.568c0,0,1.022,8.545,3.647,10.111c2.626,1.565,1.483,5.341,1.483,5.341
			s2.48-8.768,0.421-11.612C156.344,73.564,152.854,72.568,152.854,72.568z"/>
		<path fill="#F37475" d="M154.926,83.89c-0.728,1.104-0.737,2.416-0.022,2.929c0.714,0.514,1.882,0.033,2.609-1.072
			c0.727-1.105,0.736-2.416,0.022-2.929C156.821,82.305,155.653,82.784,154.926,83.89z"/>
		<g>
			
				<ellipse transform="matrix(-0.886 -0.4637 0.4637 -0.886 252.1503 221.0915)" fill="#2D1E66" cx="153.255" cy="79.548" rx="0.908" ry="0.992"/>
			
				<ellipse transform="matrix(-0.8855 -0.4646 0.4646 -0.8855 240.1902 213.0848)" fill="#2D1E66" cx="146.346" cy="76.953" rx="0.907" ry="0.993"/>
			<path fill="#2D1E66" d="M155.634,80.475c0,0-1.002-1.799-2.28-2.108s-1.788,0.295-1.788,0.295s1.295-0.226,2.414,0.617
				S155.634,80.475,155.634,80.475z"/>
			<path fill="#2D1E66" d="M143.635,76.131c0,0,1.932-0.714,3.104-0.116c1.171,0.597,1.164,1.388,1.164,1.388
				s-0.836-1.015-2.234-1.104S143.635,76.131,143.635,76.131z"/>
			<path fill="#2D1E66" d="M148.259,80.4c-0.58,0.768-1.246,1.445-1.94,2.094c0.189,0.435,0.769,0.981,1.11,1.313
				c-1.342-0.634-1.436-1.353-1.484-1.404C145.945,82.402,147.22,81.124,148.259,80.4z"/>
			
				<ellipse transform="matrix(-0.8858 -0.4641 0.4641 -0.8858 247.9789 228.4585)" fill="#F15F5C" cx="152.105" cy="83.711" rx="2.227" ry="1.389"/>
			<path fill="#F15F5C" d="M143.407,81.127c0.877,0.318,1.388,1.127,1.142,1.805c-0.219,0.604-0.965,0.9-1.745,0.733
				c0.026-0.893,0.096-1.781,0.192-2.644C143.131,81.042,143.269,81.077,143.407,81.127z"/>
			<path fill="#2D1E66" d="M148.967,86.711c0.187-0.028,0.162-0.086,0.19,0.1c0.179,1.205-4.643,0.062-4.069-1.031
				C145.193,85.579,146.181,87.081,148.967,86.711z"/>
			<path fill="#2D1E66" d="M156.138,78.184c0,0-1.528-1.664-2.281-2.059c-0.754-0.396-2.239-0.07-2.311,0.541
				c-0.07,0.611,1.544-0.271,2.166,0.055C154.333,77.047,156.138,78.184,156.138,78.184z"/>
			<path fill="#2D1E66" d="M145.403,74.654c0,0,1.024-0.86,1.859-0.702c0.836,0.159,1.798,1.337,1.474,1.859
				c-0.324,0.523-1.041-1.171-1.73-1.302S145.403,74.654,145.403,74.654z"/>
		</g>
	</g>
</g>
</svg>
